<svg xmlns="http://www.w3.org/2000/svg" viewBox="0 0 500 500"><g id="freepik--background-simple--inject-108"><path d="M347.82,227.75c-.82,9.56-.87,19.55,3.06,28.31s13.17,15,22.73,14.2c40.54,1.44,62.77,31.84,66.37,62.6s-22.57,61.79-52.31,70.41c-16.77,4.87-38,5.27-49.5-7.88-15.4-17.62-40.59-23.56-64-22.78s-46.22,7.21-69.47,10-46.88,1.49-66.45-11.35C113.49,355,91.29,334,77,308c-23-41.76-23-95.08-.73-137.23S142.17,98.7,189.4,92.34s104.85,6,131.18,45.66C351.82,185.1,348.63,218.19,347.82,227.75Z" style="fill:#5D66A8"></path><path d="M347.82,227.75c-.82,9.56-.87,19.55,3.06,28.31s13.17,15,22.73,14.2c40.54,1.44,62.77,31.84,66.37,62.6s-22.57,61.79-52.31,70.41c-16.77,4.87-38,5.27-49.5-7.88-15.4-17.62-40.59-23.56-64-22.78s-46.22,7.21-69.47,10-46.88,1.49-66.45-11.35C113.49,355,91.29,334,77,308c-23-41.76-23-95.08-.73-137.23S142.17,98.7,189.4,92.34s104.85,6,131.18,45.66C351.82,185.1,348.63,218.19,347.82,227.75Z" style="fill:#fff;opacity:0.9"></path></g><g id="freepik--Shadow--inject-108"><ellipse id="freepik--path--inject-108" cx="250" cy="415.69" rx="193.89" ry="11.32" style="fill:#f5f5f5"></ellipse></g><g id="freepik--Yarn--inject-108"><circle cx="358.29" cy="355.63" r="55.36" style="fill:#5D66A8"></circle><g style="opacity:0.30000000000000004"><circle cx="358.29" cy="355.63" r="55.36" style="fill:#fff"></circle></g><path d="M355.39,300.35a55.64,55.64,0,0,0-9.37,1.3c-19.41,17.49-31.12,45.31-34.9,83,.74,1.21,1.53,2.38,2.36,3.52.08-1.09.16-2.2.27-3.33C316.85,353,332.14,322.33,355.39,300.35Z" style="fill:none"></path><path d="M371.06,313.75c3.13-3.23,6.5-6.38,10.33-8.42a54.87,54.87,0,0,0-14.66-4.42c-8.43,6.55-14.86,15.22-19.45,22.11-15.61,23.42-25.12,48.14-27.83,72a56.76,56.76,0,0,0,4.58,4c.63-8.2,3.41-16.16,6.17-22.85A200.89,200.89,0,0,1,371.06,313.75ZM340,344.06c10.89-19.59,22.38-30.49,33.49-41a.5.5,0,1,1,.69.72c-11.06,10.49-22.49,21.34-33.31,40.79a.49.49,0,0,1-.43.26.54.54,0,0,1-.25-.06A.51.51,0,0,1,340,344.06Zm-14.71,36.51a.39.39,0,0,1-.15,0,.49.49,0,0,1-.33-.62c3.51-11.33,7.79-21.75,12.05-29.35a.5.5,0,0,1,.87.49,158,158,0,0,0-12,29.15A.48.48,0,0,1,325.25,380.57Z" style="fill:none"></path><path d="M330,308a55.33,55.33,0,0,0-11.71,9.32,100.47,100.47,0,0,0-14,50.51,55.38,55.38,0,0,0,3.25,9.92,134.43,134.43,0,0,1,3.69-29.57C314.14,336.34,319.62,321.53,330,308Z" style="fill:none"></path><path d="M365.34,300.74a54.68,54.68,0,0,0-7-.47c-.47,0-.93,0-1.39,0-23.54,21.86-39,52.63-42.15,84.58-.15,1.53-.25,3-.34,4.47a56.93,56.93,0,0,0,4.13,4.77c2.85-23.8,12.39-48.38,27.91-71.67C350.94,315.72,357.19,307.29,365.34,300.74Z" style="fill:none"></path><path d="M344,302.14a54.58,54.58,0,0,0-11.69,4.6c-11.28,13.86-17.1,29.38-20.09,41.72a132.6,132.6,0,0,0-3.68,31.48c.54,1.09,1.11,2.15,1.71,3.2C314.12,346.78,325.45,319.64,344,302.14Z" style="fill:none"></path><path d="M401.16,325.84l1-2.75a.51.51,0,0,1,.64-.31l.11.07a55.61,55.61,0,0,0-11.58-11.65c2.67,4.42,5.65,8.66,8.57,12.82Z" style="fill:none"></path><path d="M302.93,355.63a55.15,55.15,0,0,0,.53,7.53A101.6,101.6,0,0,1,315.13,321,55.09,55.09,0,0,0,302.93,355.63Z" style="fill:none"></path><path d="M411.43,342.08c.35.66.67,1.32,1,2a55.08,55.08,0,0,0-2.54-8.49l-.69,2.51C410,339.4,410.73,340.73,411.43,342.08Z" style="fill:none"></path><path d="M403.08,323.42,402,326.53a.5.5,0,0,1-.17.23l2.34,3.39v0l1.05-2.3a.5.5,0,1,1,.91.41l-1.05,2.3a.49.49,0,0,1-.45.29h0c1.34,2,2.65,4,3.89,6.07l.69-2.51a.51.51,0,0,1,.15-.23,55.38,55.38,0,0,0-6.24-11A.44.44,0,0,1,403.08,323.42Z" style="fill:none"></path><path d="M406.7,369.88a53.4,53.4,0,0,1-33.38,32.41l-.15,0a.45.45,0,0,1-.35-.18q-.3,3.56-.63,7.09a55.47,55.47,0,0,0,37-31.81Q408,373.62,406.7,369.88Z" style="fill:none"></path><path d="M372.82,319.67a.5.5,0,0,1,.47-.53.51.51,0,0,1,.53.47c.17,3,.31,5.91.44,8.86a.47.47,0,0,1,.28-.29,14.3,14.3,0,0,0,6.46-4.84.5.5,0,0,1,.7-.1.51.51,0,0,1,.11.7,15.46,15.46,0,0,1-6.92,5.18.51.51,0,0,1-.17,0,.5.5,0,0,1-.45-.3q.68,16,.48,32A53.61,53.61,0,0,0,393.49,347a.5.5,0,1,1,.75.65A54.48,54.48,0,0,1,375,361.85a.51.51,0,0,1-.2,0,.24.24,0,0,1-.09,0c-.06,4.24-.18,8.48-.32,12.71a72.22,72.22,0,0,0,23.93-17.74.5.5,0,0,1,.7,0,.49.49,0,0,1,.05.7,73,73,0,0,1-24.34,18,.39.39,0,0,1-.38,0q-.47,13-1.51,25.91a.46.46,0,0,1,.15-.09,52.32,52.32,0,0,0,32.81-32,.49.49,0,0,1,.58-.31c-.37-1-.76-2.06-1.14-3.08a57.08,57.08,0,0,1-30.83,30.94.41.41,0,0,1-.19,0,.51.51,0,0,1-.46-.31.5.5,0,0,1,.27-.65,56,56,0,0,0,30.68-31.37h0a176,176,0,0,0-20.39-37.89.46.46,0,0,1-.13.33,29.76,29.76,0,0,1-8.54,6.44.44.44,0,0,1-.22.05.5.5,0,0,1-.23-.94,29,29,0,0,0,8.26-6.23.49.49,0,0,1,.51-.13c-1-1.37-2-2.72-3-4.06a32.22,32.22,0,0,0-6.54-6.92.51.51,0,0,1-.11-.7.5.5,0,0,1,.7-.11,32.93,32.93,0,0,1,6.74,7.13A177,177,0,0,1,409.77,376a53.28,53.28,0,0,0,1.91-5.72.49.49,0,0,1-.32-.32,122.06,122.06,0,0,0-21.25-43,.5.5,0,1,1,.79-.61,123,123,0,0,1,21.17,42.41,54.49,54.49,0,0,0,1.48-10.05c-.27-.72-.54-1.44-.83-2.16-7.12-17.87-19.18-33.23-30.85-48.08a.5.5,0,0,1,.09-.7.5.5,0,0,1,.7.08c11.7,14.9,23.79,30.29,31,48.27,0-.15,0-.31,0-.47a57.29,57.29,0,0,0-.55-7.8c-.79-1.78-1.63-3.55-2.54-5.28a164.92,164.92,0,0,0-11.49-18c-3.35-4.77-6.77-9.66-9.74-14.8a54.47,54.47,0,0,0-6.79-3.93c-4.18,2-7.68,5.41-10.75,8.58a199.8,199.8,0,0,0-40.66,62.19c-2.8,6.8-5.61,14.92-6.12,23.22a55.1,55.1,0,0,0,22.34,10q.23-3.36.48-6.71h0A31.86,31.86,0,0,1,327.74,395a.51.51,0,0,1,0-.71.5.5,0,0,1,.71,0,30.85,30.85,0,0,0,19.42,8h.06c.09-1.2.2-2.39.3-3.59l-.1,0h-.05a30.66,30.66,0,0,1-19.56-9.48.5.5,0,0,1,.73-.69,29.6,29.6,0,0,0,18.92,9.18.37.37,0,0,1,.14,0c.36-4.08.76-8.14,1.21-12.21A45.77,45.77,0,0,1,330.77,379a.5.5,0,0,1-.16-.69.49.49,0,0,1,.69-.16,44.88,44.88,0,0,0,18.29,6.32c.38-3.33.77-6.65,1.2-10a83.42,83.42,0,0,1-14.91-5.88.5.5,0,1,1,.46-.89,81.38,81.38,0,0,0,14.59,5.76q1.31-9.94,3-19.83a.49.49,0,0,1-.45.33.27.27,0,0,1-.13,0,36.06,36.06,0,0,1-7.43-2.88.52.52,0,0,1-.21-.68.51.51,0,0,1,.68-.21,35.12,35.12,0,0,0,7.21,2.81.49.49,0,0,1,.37.44q1.4-8.32,3.05-16.58a.5.5,0,0,1,.58-.4.51.51,0,0,1,.4.59q-3.66,18.24-6.07,36.73a.5.5,0,0,1-.13,1c-.42,3.27-.82,6.55-1.18,9.84h.07a.5.5,0,0,1,.46.54.51.51,0,0,1-.5.46h-.14q-1.35,12.23-2.15,24.48a56.6,56.6,0,0,0,6.55.8c1.78-27.56,4.4-55.18,7.85-82.45a.5.5,0,0,1,.56-.43.49.49,0,0,1,.43.56c-3.44,27.24-6.06,54.84-7.84,82.37.8,0,1.6.06,2.41.06,1.59,0,3.16-.08,4.71-.21,2.46-30.28,4.62-60.71,6.44-90.87a.51.51,0,0,1,.53-.47.5.5,0,0,1,.47.53c-1.82,30.11-4,60.5-6.43,90.73a54.62,54.62,0,0,0,7.16-1.23A594.23,594.23,0,0,0,372.82,319.67Zm18.54,20.23a.5.5,0,0,1,.07.69,31.57,31.57,0,0,1-15,10.47l-.15,0a.49.49,0,0,1-.48-.35.51.51,0,0,1,.32-.63,30.59,30.59,0,0,0,12.24-7.51.57.57,0,0,1,.08-.13l2.25-2.51A.51.51,0,0,1,391.36,339.9ZM375,342.61a63.27,63.27,0,0,0,13.24-8.77.5.5,0,0,1,.65.76,64.38,64.38,0,0,1-13.44,8.9.46.46,0,0,1-.22.06.49.49,0,0,1-.45-.28A.5.5,0,0,1,375,342.61ZM374.59,323a6.46,6.46,0,0,0,3.68-2.72.5.5,0,0,1,.84.54,7.46,7.46,0,0,1-4.26,3.14l-.13,0a.52.52,0,0,1-.49-.37A.5.5,0,0,1,374.59,323ZM352,361.23a.49.49,0,0,1,.49.51.51.51,0,0,1-.5.49h0a21,21,0,0,1-10-2.86.51.51,0,0,1-.18-.69.49.49,0,0,1,.68-.18A20,20,0,0,0,352,361.23Zm2.63-12.58a.49.49,0,0,1-.41.21.52.52,0,0,1-.29-.09,10.59,10.59,0,0,0-5.32-1.86.49.49,0,0,1-.46-.53.5.5,0,0,1,.53-.47,11.5,11.5,0,0,1,5.82,2A.5.5,0,0,1,354.65,348.65Zm1.22-8.24a3.76,3.76,0,0,1-1.29.22,3.81,3.81,0,0,1-1.84-.47.49.49,0,0,1-.19-.68.5.5,0,0,1,.68-.19,2.84,2.84,0,0,0,2.3.18.49.49,0,0,1,.64.29A.51.51,0,0,1,355.87,340.41Z" style="fill:none"></path><path d="M312.23,348.46c3-12.34,8.81-27.86,20.09-41.72-.78.41-1.55.85-2.3,1.3-10.4,13.49-15.88,28.3-18.77,40.18a134.43,134.43,0,0,0-3.69,29.57c.32.73.65,1.45,1,2.15A132.6,132.6,0,0,1,312.23,348.46Z" style="fill:#5D66A8"></path><path d="M356.9,300.31c-.5,0-1,0-1.51,0-23.25,22-38.54,52.63-41.64,84.44-.11,1.13-.19,2.24-.27,3.33l.93,1.24c.09-1.46.19-2.94.34-4.47C317.86,352.94,333.36,322.17,356.9,300.31Z" style="fill:#5D66A8"></path><path d="M366.73,300.91c-.46-.07-.93-.12-1.39-.17-8.15,6.55-14.4,15-18.89,21.72-15.52,23.29-25.06,47.87-27.91,71.67.3.31.6.63.91.93,2.71-23.9,12.22-48.62,27.83-72C351.87,316.13,358.3,307.46,366.73,300.91Z" style="fill:#5D66A8"></path><path d="M371.78,314.44c3.07-3.17,6.57-6.56,10.75-8.58-.38-.19-.76-.36-1.14-.53-3.83,2-7.2,5.19-10.33,8.42a200.89,200.89,0,0,0-40.86,62.5c-2.76,6.69-5.54,14.65-6.17,22.85.32.25.64.51,1,.75.51-8.3,3.32-16.42,6.12-23.22A199.8,199.8,0,0,1,371.78,314.44Z" style="fill:#5D66A8"></path><path d="M375.08,314.46a.5.5,0,0,0-.7.11.51.51,0,0,0,.11.7,32.22,32.22,0,0,1,6.54,6.92c1,1.34,2,2.69,3,4.06a.54.54,0,0,1,.2.1.46.46,0,0,1,.15.38,176,176,0,0,1,20.39,37.89.5.5,0,0,1,.65-.29.51.51,0,0,1,.29.64c-.13.34-.28.67-.41,1,.38,1,.77,2,1.14,3.08h.06a.5.5,0,0,1,.3.64c0,.06,0,.12-.07.19q1.32,3.74,2.48,7.53c.21-.48.4-1,.59-1.46a177,177,0,0,0-27.95-54.36A32.93,32.93,0,0,0,375.08,314.46Z" style="fill:#5D66A8"></path><path d="M382,307.75a.5.5,0,0,0-.09.7c11.67,14.85,23.73,30.21,30.85,48.08.29.72.56,1.44.83,2.16.05-.85.07-1.72.08-2.59-7.18-18-19.27-33.37-31-48.27A.5.5,0,0,0,382,307.75Z" style="fill:#5D66A8"></path><path d="M410.55,342.55c.91,1.73,1.75,3.5,2.54,5.28-.18-1.27-.4-2.53-.67-3.77-.32-.66-.64-1.32-1-2-.7-1.35-1.46-2.68-2.24-4l0,.14a.5.5,0,0,1-.49.36h-.13a.52.52,0,0,1-.35-.62l.29-1.06c-1.24-2.06-2.55-4.08-3.89-6.07a.48.48,0,0,1-.2,0,.5.5,0,0,1-.25-.63l-2.34-3.39a.55.55,0,0,1-.3.11.51.51,0,0,1-.17,0,.5.5,0,0,1-.3-.64l.13-.36L399.88,324c-2.92-4.16-5.9-8.4-8.57-12.82-.66-.49-1.32-1-2-1.41,3,5.14,6.39,10,9.74,14.8A164.92,164.92,0,0,1,410.55,342.55Z" style="fill:#5D66A8"></path><path d="M315.13,321a101.6,101.6,0,0,0-11.67,42.18c.21,1.59.5,3.16.85,4.71a100.47,100.47,0,0,1,14-50.51Q316.65,319.1,315.13,321Z" style="fill:#5D66A8"></path><path d="M346,301.65c-.67.16-1.34.31-2,.49-18.56,17.5-29.89,44.64-33.75,81,.28.49.57,1,.86,1.46C314.9,347,326.61,319.14,346,301.65Z" style="fill:#5D66A8"></path><path d="M349.49,385.47c-.45,4.07-.85,8.13-1.21,12.21a.48.48,0,0,1,.31.5.48.48,0,0,1-.39.43c-.1,1.2-.21,2.39-.3,3.59a.5.5,0,0,1,.42.5.51.51,0,0,1-.5.49q-.26,3.35-.48,6.71l1,.17q.81-12.26,2.15-24.48Z" style="fill:#5D66A8"></path><path d="M351.77,374.76h0l-.13,0c-.27-.07-.54-.17-.81-.24-.43,3.32-.82,6.64-1.2,10l1,.12C351,381.31,351.35,378,351.77,374.76Z" style="fill:#5D66A8"></path><path d="M351.9,373.8q2.43-18.48,6.07-36.73a.51.51,0,0,0-.4-.59.5.5,0,0,0-.58.4q-1.67,8.25-3.05,16.58a1,1,0,0,1,0,.17l0,0q-1.66,9.88-3,19.83l.94.29Z" style="fill:#5D66A8"></path><path d="M363.29,328a.5.5,0,0,0-.56.43c-3.45,27.27-6.07,54.89-7.85,82.45l1,.05c1.78-27.53,4.4-55.13,7.84-82.37A.49.49,0,0,0,363.29,328Z" style="fill:#5D66A8"></path><path d="M370,319.43a.51.51,0,0,0-.53.47c-1.82,30.16-4,60.59-6.44,90.87l1-.08c2.46-30.23,4.61-60.62,6.43-90.73A.5.5,0,0,0,370,319.43Z" style="fill:#5D66A8"></path><path d="M372.69,402a.51.51,0,0,1,.18-.54q1-12.94,1.51-25.91a.47.47,0,0,1-.28-.24.52.52,0,0,1,.25-.67l.07,0c.14-4.23.26-8.47.32-12.71a.47.47,0,0,1-.37-.27.5.5,0,0,1,.26-.66l.12-.06q.19-16-.48-32l0,0a.45.45,0,0,1,0-.36c-.13-3-.27-5.9-.44-8.86a.51.51,0,0,0-.53-.47.5.5,0,0,0-.47.53,594.23,594.23,0,0,1-1.65,89.79l1-.24q.33-3.54.63-7.09A.45.45,0,0,1,372.69,402Z" style="fill:#5D66A8"></path><path d="M347.84,402.19a30.85,30.85,0,0,1-19.42-8,.5.5,0,0,0-.71,0,.51.51,0,0,0,0,.71,31.86,31.86,0,0,0,20.06,8.24h0c0-.33.05-.66.08-1Z" style="fill:#5D66A8"></path><path d="M348.32,402.7a.5.5,0,0,0-.42-.5c0,.33,0,.66-.08,1A.51.51,0,0,0,348.32,402.7Z" style="fill:#5D66A8"></path><path d="M348.14,397.64a29.6,29.6,0,0,1-18.92-9.18.5.5,0,0,0-.73.69,30.66,30.66,0,0,0,19.56,9.48h.05l.1,0c0-.31.05-.62.08-.93A.37.37,0,0,0,348.14,397.64Z" style="fill:#5D66A8"></path><path d="M348.59,398.18a.48.48,0,0,0-.31-.5c0,.31,0,.62-.08.93A.48.48,0,0,0,348.59,398.18Z" style="fill:#5D66A8"></path><path d="M350.58,385.6h0a.51.51,0,0,0,.5-.46.5.5,0,0,0-.46-.54h-.07c0,.33-.07.66-.11,1Z" style="fill:#5D66A8"></path><path d="M331.3,378.16a.49.49,0,0,0-.69.16.5.5,0,0,0,.16.69,45.77,45.77,0,0,0,18.72,6.46c0-.33.07-.66.1-1A44.88,44.88,0,0,1,331.3,378.16Z" style="fill:#5D66A8"></path><path d="M350.59,384.6l-1-.12c0,.33-.07.66-.1,1l1,.12C350.52,385.26,350.55,384.93,350.59,384.6Z" style="fill:#5D66A8"></path><path d="M336.34,367.74a.5.5,0,1,0-.46.89,83.42,83.42,0,0,0,14.91,5.88c0-.34.1-.67.14-1A81.38,81.38,0,0,1,336.34,367.74Z" style="fill:#5D66A8"></path><path d="M352.21,374.4a.49.49,0,0,0-.31-.6c0,.32-.09.64-.13,1A.49.49,0,0,0,352.21,374.4Z" style="fill:#5D66A8"></path><path d="M351.73,374.77h0c0-.32.09-.64.13-1h0l-.94-.29c0,.34-.09.67-.14,1,.27.07.54.17.81.24Z" style="fill:#5D66A8"></path><path d="M341.84,358.68a.51.51,0,0,0,.18.69,21,21,0,0,0,10,2.86h0a.51.51,0,0,0,.5-.49.49.49,0,0,0-.49-.51,20,20,0,0,1-9.5-2.73A.49.49,0,0,0,341.84,358.68Z" style="fill:#5D66A8"></path><path d="M353.57,353a35.12,35.12,0,0,1-7.21-2.81.51.51,0,0,0-.68.21.52.52,0,0,0,.21.68,36.06,36.06,0,0,0,7.43,2.88.27.27,0,0,0,.13,0,.49.49,0,0,0,.45-.33c0-.07,0-.14,0-.21A.49.49,0,0,0,353.57,353Z" style="fill:#5D66A8"></path><path d="M353.94,353.46c0,.07,0,.14,0,.21l0,0A1,1,0,0,0,353.94,353.46Z" style="fill:#5D66A8"></path><path d="M348.7,345.91a.5.5,0,0,0-.53.47.49.49,0,0,0,.46.53,10.59,10.59,0,0,1,5.32,1.86.52.52,0,0,0,.29.09.49.49,0,0,0,.41-.21.5.5,0,0,0-.13-.7A11.5,11.5,0,0,0,348.7,345.91Z" style="fill:#5D66A8"></path><path d="M374.82,343.28a.49.49,0,0,0,.45.28.46.46,0,0,0,.22-.06,64.38,64.38,0,0,0,13.44-8.9.5.5,0,0,0-.65-.76A63.27,63.27,0,0,1,375,342.61.5.5,0,0,0,374.82,343.28Z" style="fill:#5D66A8"></path><path d="M388.33,342.59a30.59,30.59,0,0,1-12.24,7.51.51.51,0,0,0-.32.63.49.49,0,0,0,.48.35l.15,0a31.57,31.57,0,0,0,15-10.47.5.5,0,0,0-.07-.69.51.51,0,0,0-.7.05l-2.25,2.51A.57.57,0,0,0,388.33,342.59Z" style="fill:#5D66A8"></path><path d="M375,361.85a54.48,54.48,0,0,0,19.21-14.22.5.5,0,1,0-.75-.65,53.61,53.61,0,0,1-18.74,13.89c0,.33,0,.66,0,1a.24.24,0,0,0,.09,0A.51.51,0,0,0,375,361.85Z" style="fill:#5D66A8"></path><path d="M374.63,360.93a.5.5,0,0,0-.26.66.47.47,0,0,0,.37.27c0-.33,0-.66,0-1Z" style="fill:#5D66A8"></path><path d="M374.76,375.51a73,73,0,0,0,24.34-18,.49.49,0,0,0-.05-.7.5.5,0,0,0-.7,0,72.22,72.22,0,0,1-23.93,17.74c0,.31,0,.63,0,.94a.39.39,0,0,0,.38,0Z" style="fill:#5D66A8"></path><path d="M374.35,374.6a.52.52,0,0,0-.25.67.47.47,0,0,0,.28.24c0-.31,0-.63,0-.94Z" style="fill:#5D66A8"></path><path d="M404.74,364.62A56,56,0,0,1,374.06,396a.5.5,0,0,0-.27.65.51.51,0,0,0,.46.31.41.41,0,0,0,.19,0A57.08,57.08,0,0,0,405.27,366l-.53-1.35Z" style="fill:#5D66A8"></path><path d="M405.39,364.33a.5.5,0,0,0-.65.29l.53,1.35c.13-.33.28-.66.41-1A.51.51,0,0,0,405.39,364.33Z" style="fill:#5D66A8"></path><path d="M405.83,369.36a52.32,52.32,0,0,1-32.81,32,.46.46,0,0,0-.15.09c0,.24,0,.48-.05.71a.45.45,0,0,0,.35.18l.15,0a53.4,53.4,0,0,0,33.38-32.41c-.1-.28-.19-.56-.29-.83A.49.49,0,0,0,405.83,369.36Z" style="fill:#5D66A8"></path><path d="M406.47,369.05h-.06c.1.27.19.55.29.83,0-.07.05-.13.07-.19A.5.5,0,0,0,406.47,369.05Z" style="fill:#5D66A8"></path><path d="M372.69,402a.45.45,0,0,0,.13.17c0-.23,0-.47.05-.71A.51.51,0,0,0,372.69,402Z" style="fill:#5D66A8"></path><path d="M402.14,323.09l-1,2.75.64.92a.5.5,0,0,0,.17-.23l1.11-3.11a.44.44,0,0,0,0-.3l-.19-.27-.11-.07A.51.51,0,0,0,402.14,323.09Z" style="fill:#5D66A8"></path><path d="M401,326.2a.5.5,0,0,0,.3.64.51.51,0,0,0,.17,0,.55.55,0,0,0,.3-.11l-.64-.92Z" style="fill:#5D66A8"></path><path d="M405.05,330.53l1.05-2.3a.5.5,0,1,0-.91-.41l-1.05,2.3v0l.45.67h0A.49.49,0,0,0,405.05,330.53Z" style="fill:#5D66A8"></path><path d="M404.39,330.78a.48.48,0,0,0,.2,0l-.45-.67A.5.5,0,0,0,404.39,330.78Z" style="fill:#5D66A8"></path><path d="M409.17,334.38l-.69,2.51c.24.39.48.79.71,1.19l.69-2.51c-.18-.47-.36-.95-.56-1.42A.51.51,0,0,0,409.17,334.38Z" style="fill:#5D66A8"></path><path d="M408.19,338a.52.52,0,0,0,.35.62h.13a.5.5,0,0,0,.49-.36l0-.14c-.23-.4-.47-.8-.71-1.19Z" style="fill:#5D66A8"></path><path d="M383.49,326.38a29,29,0,0,1-8.26,6.23.5.5,0,0,0,.23.94.44.44,0,0,0,.22-.05,29.76,29.76,0,0,0,8.54-6.44.46.46,0,0,0,.13-.33l-.35-.48A.49.49,0,0,0,383.49,326.38Z" style="fill:#5D66A8"></path><path d="M384.2,326.35a.54.54,0,0,0-.2-.1l.35.48A.46.46,0,0,0,384.2,326.35Z" style="fill:#5D66A8"></path><path d="M374.72,329.15a.51.51,0,0,0,.17,0,15.46,15.46,0,0,0,6.92-5.18.51.51,0,0,0-.11-.7.5.5,0,0,0-.7.1,14.3,14.3,0,0,1-6.46,4.84.47.47,0,0,0-.28.29c0,.13,0,.26,0,.38A.5.5,0,0,0,374.72,329.15Z" style="fill:#5D66A8"></path><path d="M374.25,328.83l0,0c0-.12,0-.25,0-.38A.45.45,0,0,0,374.25,328.83Z" style="fill:#5D66A8"></path><path d="M374.72,323.93l.13,0a7.46,7.46,0,0,0,4.26-3.14.5.5,0,0,0-.84-.54,6.46,6.46,0,0,1-3.68,2.72.5.5,0,0,0-.36.61A.52.52,0,0,0,374.72,323.93Z" style="fill:#5D66A8"></path><path d="M355.53,339.47a2.84,2.84,0,0,1-2.3-.18.5.5,0,0,0-.68.19.49.49,0,0,0,.19.68,3.81,3.81,0,0,0,1.84.47,3.76,3.76,0,0,0,1.29-.22.51.51,0,0,0,.3-.65A.49.49,0,0,0,355.53,339.47Z" style="fill:#5D66A8"></path><path d="M390.19,326.24a.5.5,0,0,0-.08.7,122.06,122.06,0,0,1,21.25,43,.49.49,0,0,0,.32.32c.14-.5.27-1,.39-1.49a123,123,0,0,0-21.17-42.41A.51.51,0,0,0,390.19,326.24Z" style="fill:#5D66A8"></path><path d="M340.15,344.74a.54.54,0,0,0,.25.06.49.49,0,0,0,.43-.26c10.82-19.45,22.25-30.3,33.31-40.79a.5.5,0,1,0-.69-.72c-11.11,10.54-22.6,21.44-33.49,41A.51.51,0,0,0,340.15,344.74Z" style="fill:#5D66A8"></path><path d="M337.5,350.39a.49.49,0,0,0-.68.19c-4.26,7.6-8.54,18-12.05,29.35a.49.49,0,0,0,.33.62.39.39,0,0,0,.15,0,.48.48,0,0,0,.47-.35,158,158,0,0,1,12-29.15A.5.5,0,0,0,337.5,350.39Z" style="fill:#5D66A8"></path></g><g id="freepik--Character--inject-108"><g id="freepik--layer-8--inject-108"><path d="M316.91,377.81a84.53,84.53,0,0,1,19.84-3.38c5.37-.27,11,0,15.41,3.48a10.56,10.56,0,0,1,3.7,5.33c1.59,5.47-2,9.15-5.37,12.41L335.68,410a14.86,14.86,0,0,1-7.53,3.92c-13.71,2.66-27.77,4.75-41.68,4.79-15.4.05-31.18-3.14-44-11.68-.66-6.66-.67-13.11,2.13-19.27S255,376,261.68,375.12a31.28,31.28,0,0,1,11.6.57c4.89,1.27,9.61,3.19,14.57,4.13C297.56,381.64,307.44,380.62,316.91,377.81Z" style="fill:#5D66A8"></path><path d="M316.91,377.81a84.53,84.53,0,0,1,19.84-3.38c5.37-.27,11,0,15.41,3.48a10.56,10.56,0,0,1,3.7,5.33c1.59,5.47-2,9.15-5.37,12.41L335.68,410a14.86,14.86,0,0,1-7.53,3.92c-13.71,2.66-27.77,4.75-41.68,4.79-15.4.05-31.18-3.14-44-11.68-.66-6.66-.67-13.11,2.13-19.27S255,376,261.68,375.12a31.28,31.28,0,0,1,11.6.57c4.89,1.27,9.61,3.19,14.57,4.13C297.56,381.64,307.44,380.62,316.91,377.81Z" style="fill:#fff;opacity:0.6000000000000001"></path><g style="opacity:0.2"><path d="M331,404.13a18.7,18.7,0,0,0-7.08-3.89,17.84,17.84,0,0,1,4.75,7.93c-6.3-5-14.93-6.19-23-5.43S289.93,406,282,407.35s-16.44,1.67-23.76-1.73c-4.22-2-8-5.26-9.7-9.6-1.91-4.85-1-10.43,1.34-15.09a23.43,23.43,0,0,1,11.81-5.81,31.28,31.28,0,0,1,11.6.57c4.89,1.27,9.61,3.19,14.57,4.13,9.71,1.82,19.59.8,29.06-2a84.53,84.53,0,0,1,19.84-3.38c.63,0,1.26-.06,1.89-.07A32.62,32.62,0,0,1,326.85,398,6.41,6.41,0,0,1,331,404.13Z"></path><path d="M329.6,409.54l-1.22-1c-6.89-5.51-16.1-5.94-22.6-5.32a112.91,112.91,0,0,0-14.59,2.68c-3,.68-6.05,1.38-9.11,1.92-9.88,1.74-17.75,1.16-24.06-1.77-4.79-2.23-8.33-5.74-10-9.87-1.8-4.58-1.3-10.23,1.36-15.5l.12-.14a24,24,0,0,1,12.07-5.94,32,32,0,0,1,11.79.59c2,.51,3.94,1.13,5.85,1.74a77.39,77.39,0,0,0,8.69,2.38c9,1.68,18.69,1,28.83-2a85.3,85.3,0,0,1,20-3.4c.69,0,1.3-.06,1.9-.07h.53l0,.53a33.2,33.2,0,0,1-11.34,23.48,6.91,6.91,0,0,1,3.72,6.29l0,1.05-.79-.69a18.11,18.11,0,0,0-5-3.13,18.23,18.23,0,0,1,3.49,6.65Zm-79.33-28.3c-2.5,5-3,10.3-1.27,14.6,1.53,3.89,4.88,7.2,9.44,9.33,6.12,2.84,13.79,3.39,23.46,1.69,3-.54,6.1-1.24,9.07-1.92a115.55,115.55,0,0,1,14.71-2.7c6.3-.59,15.06-.23,22,4.58a17.18,17.18,0,0,0-4.12-6.22l-1.46-1.41,1.95.57a19.18,19.18,0,0,1,6.36,3.25,6,6,0,0,0-3.75-4.54l-.85-.29.7-.57a32.12,32.12,0,0,0,11.57-22.74l-1.25.05a84.87,84.87,0,0,0-19.81,3.37c-10.29,3-20.15,3.74-29.29,2a77.93,77.93,0,0,1-8.82-2.41c-1.89-.6-3.84-1.22-5.79-1.73a31,31,0,0,0-11.4-.55A23,23,0,0,0,250.27,381.24Z" style="fill:#5D66A8"></path></g></g><g id="freepik--group--inject-108"><path d="M289.85,295.21a33.32,33.32,0,0,1-.64,4.6c-.45,3.1-1,6.14-1.66,9.21a107.65,107.65,0,0,1-5.39,18.36l-1,2.3-.26.57-.06.15-.1.21-.31.61a10.06,10.06,0,0,1-1.4,2,12.15,12.15,0,0,1-3,2.41c-1.94,1.63-27.34,5.53-27.34,5.53L245.25,335s21.35-6.92,23.7-8c3.45-2.31,5.41-14.65,6.34-20.29.52-2.88,1-5.78,1.41-8.69s.29-1.14.63-3.93Z" style="fill:#dd8c6a"></path><path d="M245.25,335l-9.11,1.19,6.14,9.8s7.54-2.74,6.53-6.89Z" style="fill:#dd8c6a"></path><path d="M232.93,344.6l1,1.46a4.46,4.46,0,0,0,5.86,1.33l2.48-1.41-6.15-9.79-2.71,2.72A4.46,4.46,0,0,0,232.93,344.6Z" style="fill:#dd8c6a"></path><path d="M296.32,289.13c1.2,8.57-6.41,28.26-6.41,28.26l-21.43-3.79c3.69-7.41,5.42-18.29,9.94-25.23C282.62,282.15,295,279.8,296.32,289.13Z" style="fill:#5D66A8"></path><path d="M296.32,289.13c1.2,8.57-6.41,28.26-6.41,28.26l-21.43-3.79c3.69-7.41,5.42-18.29,9.94-25.23C282.62,282.15,295,279.8,296.32,289.13Z" style="opacity:0.6000000000000001"></path><path d="M326.87,290.17l0,.15c-.16.82-.28,5.15-2.77,40.47-.72,10.17,3.84,27.12,3.84,27.12l-49.53,1.65c2.64-23.11,3.85-25.23.08-33.27-1-2.13-4.22-3.48-4.15-11.66,0-2.35,4.27-19,5.93-24.89a8.61,8.61,0,0,1,6.81-6.18c1.85-.31,4.05-.64,6.39-.88.81,0,1.64-.14,2.48-.19,6.87-.21,9.06-.4,15.91.18,1.29.1,2.6.24,3.88.39,2.55.34,5,.74,7,1.11A5.16,5.16,0,0,1,326.87,290.17Z" style="fill:#5D66A8"></path><path d="M326.87,290.17l0,.15c-.16.82-.28,5.15-2.77,40.47-.72,10.17,3.84,27.12,3.84,27.12l-49.53,1.65c2.64-23.11,3.85-25.23.08-33.27-1-2.13-4.22-3.48-4.15-11.66,0-2.35,4.27-19,5.93-24.89a8.61,8.61,0,0,1,6.81-6.18c1.85-.31,4.05-.64,6.39-.88.81,0,1.64-.14,2.48-.19,6.87-.21,9.06-.4,15.91.18,1.29.1,2.6.24,3.88.39,2.55.34,5,.74,7,1.11A5.16,5.16,0,0,1,326.87,290.17Z" style="opacity:0.5"></path></g><polygon points="264.09 387.82 277.59 395.74 284.07 399.55 280.84 406.82 274.37 404.1 258.58 397.45 264.09 387.82" style="fill:#dd8c6a"></polygon><polygon points="264.09 387.82 277.59 395.74 274.37 404.1 258.58 397.45 264.09 387.82" style="opacity:0.2;isolation:isolate"></polygon><polygon points="239.72 406.33 224.61 410.43 217.35 412.4 214.42 405 220.89 402.29 236.69 395.66 239.72 406.33" style="fill:#dd8c6a"></polygon><polygon points="239.72 406.33 224.61 410.43 220.89 402.29 236.69 395.66 239.72 406.33" style="opacity:0.2;isolation:isolate"></polygon><path d="M331.68,369.67a6.88,6.88,0,0,0-1-2c-4.55-6-22.33-6.77-33.19-6.17-4.94.27-11.46,2.43-18.58,5.6a12.57,12.57,0,0,0-3.72-4.06c-8.73-5.69-20.89-8.2-33-8.63,17.56.3,37.27,2.89,37.27,2.89l47.44-1.56A37.51,37.51,0,0,1,331.68,369.67Z" style="fill:#263238"></path><path d="M331.68,369.67a6.88,6.88,0,0,0-1-2c-4.55-6-22.33-6.77-33.19-6.17-4.94.27-11.46,2.43-18.58,5.6a12.57,12.57,0,0,0-3.72-4.06c-8.73-5.69-20.89-8.2-33-8.63,17.56.3,37.27,2.89,37.27,2.89l47.44-1.56A37.51,37.51,0,0,1,331.68,369.67Z" style="opacity:0.2"></path><path d="M280.5,386.9c-2.82,4-7.83,6-12.71,6.36s-9.74-.75-14.52-1.85l-12.46-2.85-20.3-4.64c-3.82-.88-7.72-1.78-11.06-3.86-10.73-6.68-12.62-13.7-6.64-18.42a20.36,20.36,0,0,1,6.64-3.33,1.66,1.66,0,0,1,.29-.1,93.11,93.11,0,0,1,20.53-3.62l.24,0a107.59,107.59,0,0,1,11.67-.2c12.08.43,24.24,2.94,33,8.63a12.57,12.57,0,0,1,3.72,4.06C282.48,372.92,283.77,382.26,280.5,386.9Z" style="fill:#263238"></path><path d="M280.5,386.9c-2.82,4-7.83,6-12.71,6.36s-9.74-.75-14.52-1.85l-12.46-2.85-20.3-4.64c-3.82-.88-7.72-1.78-11.06-3.86-10.73-6.68-12.62-13.7-6.64-18.42a20.36,20.36,0,0,1,6.64-3.33,1.66,1.66,0,0,1,.29-.1,93.11,93.11,0,0,1,20.53-3.62l.24,0a107.59,107.59,0,0,1,11.67-.2c12.08.43,24.24,2.94,33,8.63a12.57,12.57,0,0,1,3.72,4.06C282.48,372.92,283.77,382.26,280.5,386.9Z" style="opacity:0.2"></path><path d="M206.16,359.71S194,365.07,196.07,377c0,0,1.54,7.61,23.69,13.18s50.29,12.12,50.29,12.12l3.31-9s-28.17-26.88-50.17-33.44A29.54,29.54,0,0,0,206.16,359.71Z" style="fill:#263238"></path><polygon points="271.12 405.9 263.91 405.41 271.09 387.97 276.63 391.59 271.12 405.9" style="fill:#5D66A8"></polygon><g style="opacity:0.6000000000000001;isolation:isolate"><polygon points="271.12 405.9 263.91 405.41 271.09 387.97 276.63 391.59 271.12 405.9" style="fill:#fff"></polygon></g><path d="M280.26,395.36c.11.61,21.24,7.44,29.37,5C335,392.77,275.63,369.62,280.26,395.36Z" style="fill:#5D66A8"></path><path d="M280.26,395.36c.11.61,21.24,7.44,29.37,5C335,392.77,275.63,369.62,280.26,395.36Z" style="fill:#263238"></path><path d="M280.26,395.36c.11.61,21.24,7.44,29.37,5C335,392.77,275.63,369.62,280.26,395.36Z" style="opacity:0.2"></path><path d="M330.16,384.05a32.7,32.7,0,0,1-2.41,5s0,0,0,0l-.49.81c-.45.69-.9,1.35-1.38,2l-.1.12c-.22.29-.44.56-.68.83-6.79,7.91-23.66,10.32-27.35,4.8a28.83,28.83,0,0,1-3.31-8.29,290.84,290.84,0,0,1-42.75,15.59c-7.53,2.1-15.55,4.05-23.62,5.58l-4.32-10.36,2-1.39c2.76-2,8.24-5.76,15.09-10.21,11-7.1,25.45-15.88,38.06-21.5,7.12-3.17,13.64-5.33,18.58-5.6,10.86-.6,28.64.16,33.19,6.17a6.88,6.88,0,0,1,1,2C332.91,373.34,332.15,378.88,330.16,384.05Z" style="fill:#263238"></path><polygon points="222.95 398.19 228.56 393.64 235.18 411.3 228.66 412.43 222.95 398.19" style="fill:#5D66A8"></polygon><g style="opacity:0.6000000000000001;isolation:isolate"><polygon points="222.95 398.19 228.56 393.64 235.18 411.3 228.66 412.43 222.95 398.19" style="fill:#fff"></polygon></g><path d="M270.93,412.2a1.77,1.77,0,0,0,1.35.36,5.08,5.08,0,0,0,.69-.23,3.88,3.88,0,0,0,1.57-1.12c.13-.14.26-.28.38-.43a15.34,15.34,0,0,0,1.51-2,.19.19,0,0,0-.06-.25.29.29,0,0,0-.3,0l-.73.26-.16.06h0l-1,.42c-1.5.64-3.32,1.55-3.48,2.32A.71.71,0,0,0,270.93,412.2Zm.25-.57a.68.68,0,0,1,.24-.36,14.12,14.12,0,0,1,3.47-1.88,2.49,2.49,0,0,1,.29-.11l.41-.14c-.18.27-.37.52-.55.75a8.94,8.94,0,0,1-1.33,1.43,3.05,3.05,0,0,1-1.5.82,1.11,1.11,0,0,1-.91-.25A.26.26,0,0,1,271.18,411.63Z" style="fill:#5D66A8"></path><path d="M269.39,407.89c.45.8,3,1.29,4.73,1.33a5.84,5.84,0,0,0,.87,0H275a.14.14,0,0,0,.1,0,.18.18,0,0,0,.09-.1.2.2,0,0,0,0-.22l0,0s0,0,0,0a7.73,7.73,0,0,0-3.85-2.2,2.25,2.25,0,0,0-1.5.33C269.22,407.31,269.26,407.65,269.39,407.89Zm.49-.18s-.11-.19.27-.44l.13-.07a1.72,1.72,0,0,1,1-.17,6.82,6.82,0,0,1,3.19,1.76C272.82,408.82,270.21,408.3,269.88,407.71Z" style="fill:#5D66A8"></path><path d="M276.28,405.38l7.48-7a1.07,1.07,0,0,1,1.18-.17l8.83,4.34a1.33,1.33,0,0,1,.57,2.05l-.12.12c-10.13,12.61-15.69,16-17.09,17.22-4,3.55-7,.48-6.14-1,4.08-6.49,4.21-8.92,4.11-12.11A6.28,6.28,0,0,1,276.28,405.38Z" style="fill:#263238"></path><path d="M209.37,396.26a1.79,1.79,0,0,0-.75,1.17,5.9,5.9,0,0,0,0,.73,3.86,3.86,0,0,0,.6,1.84c.09.17.19.32.29.49a15.71,15.71,0,0,0,1.49,2.06.18.18,0,0,0,.25,0,.27.27,0,0,0,.11-.28c0-.1,0-.38,0-.77v-.2c0-.32-.05-.7-.09-1.11-.15-1.62-.47-3.63-1.16-4A.7.7,0,0,0,209.37,396.26Zm.47.41a.63.63,0,0,1,.27.33,14.51,14.51,0,0,1,.75,3.88c0,.1,0,.2,0,.31s0,.28,0,.43c-.2-.25-.38-.51-.55-.74a10.19,10.19,0,0,1-1-1.71,3,3,0,0,1-.32-1.68,1.1,1.1,0,0,1,.51-.79A.25.25,0,0,1,209.84,396.67Z" style="fill:#5D66A8"></path><path d="M214,396.09c-.9.19-2.14,2.49-2.7,4.11a6.49,6.49,0,0,0-.24.83.09.09,0,0,1,0,.05.21.21,0,0,0,0,.11.25.25,0,0,0,.08.12.18.18,0,0,0,.21,0l0,0h0a7.79,7.79,0,0,0,3.26-3,2.33,2.33,0,0,0,.14-1.53C214.56,396.1,214.22,396,214,396.09Zm0,.52c.05,0,.22-.05.34.4l0,.14a1.68,1.68,0,0,1-.14,1,6.74,6.74,0,0,1-2.64,2.51C212,399.08,213.31,396.75,214,396.61Z" style="fill:#5D66A8"></path><path d="M214.65,404.13l3.46,7.6a1.05,1.05,0,0,1-.2,1.17L210,418.27a1.34,1.34,0,0,1-2.13-.08l-.08-.15c-8.95-13.47-10.89-19.52-11.65-21.24-2.16-4.91,1.68-6.85,2.78-5.55,5,5.85,8.82,9.22,11.89,10.09C215,403.09,214.38,403.58,214.65,404.13Z" style="fill:#263238"></path><path d="M331.05,293.18c-1.39,7.41-3.47,24.89-4.07,28.21l-1,.18c-5.24,1-14-.59-14-.59s-2.58-20.24,9.37-32.43C323.82,286.12,329.11,289.55,331.05,293.18Z" style="opacity:0.1"></path><path d="M289.61,355.88l-9.06,1.52L287,367s7.43-3,6.27-7.11Z" style="fill:#dd8c6a"></path><path d="M277.26,365.4l1.88,2.51a3.66,3.66,0,0,0,4.88.92l3-1.87-6.5-9.56-3.05,3.29A3.69,3.69,0,0,0,277.26,365.4Z" style="fill:#dd8c6a"></path><path d="M289,356.34l24.66-26.13a8.41,8.41,0,0,0,1.78-3.92l.54-24.41L328.63,303l-2.19,27.33a8.34,8.34,0,0,1-1.47,3.25c-4.3,5.88-10.78,13.14-32.29,26.73Z" style="fill:#dd8c6a"></path><path d="M331.49,291.16c4.06,7.64-.44,26.23-.44,26.23l-20.58-.83s-.61-13.42,4.32-23.47C320.14,282.2,326.58,281.9,331.49,291.16Z" style="fill:#5D66A8"></path><path d="M331.49,291.16c4.06,7.64-.44,26.23-.44,26.23l-20.58-.83s-.61-13.42,4.32-23.47C320.14,282.2,326.58,281.9,331.49,291.16Z" style="opacity:0.5"></path><path d="M284.58,283a.45.45,0,0,1-.27-.08.51.51,0,0,1-.16-.69.61.61,0,0,0,.06-.56,2.13,2.13,0,0,0-1.18-1.14c-.27-.1-.56-.19-.85-.27A4.48,4.48,0,0,1,280,279.1c-1.12-1.24-.72-3-.19-4.61a6.88,6.88,0,0,0,.48-2.34,2,2,0,0,0-.95-1.72,3.22,3.22,0,0,0-.7-.2,4.7,4.7,0,0,1-.67-.18c-1.71-.6-2.42-2.62-2.23-4.2a10.45,10.45,0,0,1,1.88-4.25.5.5,0,1,1,.84.54A9.71,9.71,0,0,0,276.7,266a2.94,2.94,0,0,0,1.57,3.14,5.54,5.54,0,0,0,.55.14,4.28,4.28,0,0,1,.93.28,3,3,0,0,1,1.51,2.57,7.64,7.64,0,0,1-.54,2.71c-.43,1.31-.78,2.76,0,3.62a3.78,3.78,0,0,0,1.75.85c.32.09.64.19.94.3a3.15,3.15,0,0,1,1.76,1.75,1.65,1.65,0,0,1-.16,1.42A.49.49,0,0,1,284.58,283Z" style="fill:#263238"></path><path d="M300.62,265c.75,4.52,2.5,11.68,5.49,15.83,1.82,2.5,7.87,2.14,2.48,10.5-8.41,13-16.12,5.95-16.74,2.85-1.16-5.75.45-8.66,3.11-10.31,1.49-.92.9-2-1.23-5.07Z" style="fill:#dd8c6a"></path><path d="M297.81,270.59l-4.09,8.17a19.69,19.69,0,0,1,1.66,2.84c2.17-1.39,4.35-5.45,3.67-8.05A9,9,0,0,0,297.81,270.59Z" style="opacity:0.2"></path><path d="M288.57,265.36c-1.62.89-5.79,2.28-7.35,3.28a5.43,5.43,0,0,1-5.72,0c-1.69-1.09-3.2-3.44-2.91-5.44a3.74,3.74,0,0,1-3.68-1.06,7,7,0,0,1-1.72-3.57c-1.06-5.14,3.85-11.68,8.41-14.29C280.25,251.24,283.93,258.39,288.57,265.36Z" style="fill:#263238"></path><path d="M300.26,252c2.36,9.45,3.56,13.4.47,19.87-4.6,9.68-16.38,11.11-21.47,2.7-4.56-7.59-7.65-21.78,0-28.78a12.49,12.49,0,0,1,21,6.21Z" style="fill:#dd8c6a"></path><path d="M281.05,263.2a24.09,24.09,0,0,1-2,5.77,3.27,3.27,0,0,0,2.85-.06Z" style="fill:#ba4d3c"></path><path d="M286.44,271.06a7.09,7.09,0,0,1-1.29.38.23.23,0,0,1-.27-.18h0a.25.25,0,0,1,.2-.28,6.83,6.83,0,0,0,4.66-3.61.24.24,0,0,1,.32-.09h0a.24.24,0,0,1,.09.32h0A7.07,7.07,0,0,1,286.44,271.06Z" style="fill:#263238"></path><path d="M308.17,249.75c1.41-.89,9.86,3,6.1,14.87-1.5,4.72-11,15-12.49,6.11-.38-3.67-.67-8.24-1-11.92a9.69,9.69,0,0,1-7.48-.94c-2.23-1.31-3.18-3.43-3.79-6a9.94,9.94,0,0,1-10.5,0,10.06,10.06,0,0,1-4.4-9.6,7.06,7.06,0,0,1,4.82-5.45c1.74-.51,4-1.52,6.89-.38a32.36,32.36,0,0,0,9.88,2C309.32,239.27,309.09,247.37,308.17,249.75Z" style="fill:#263238"></path><path d="M303.79,261.08a6.72,6.72,0,0,1-2.8,4.64c-1.94,1.23-3.66-.9-3.71-3.57,0-2.41.88-5.91,3.12-6S304.14,258.62,303.79,261.08Z" style="fill:#dd8c6a"></path><path d="M286.27,260.39c.21.78,0,1.57-.5,1.74s-1.06-.33-1.29-1.11,0-1.58.49-1.75S286,259.6,286.27,260.39Z" style="fill:#263238"></path><path d="M278.31,263c.21.78,0,1.56-.49,1.73s-1.07-.32-1.28-1.11,0-1.56.49-1.74S278.09,262.22,278.31,263Z" style="fill:#263238"></path><path d="M277.25,261.87l-2,.09S276.64,263.11,277.25,261.87Z" style="fill:#263238"></path><path d="M287.72,255.8a.41.41,0,0,1-.34-.07,3.47,3.47,0,0,0-3.27-.59.43.43,0,0,1-.57-.22.08.08,0,0,1,0,0,.52.52,0,0,1,.29-.64,4.37,4.37,0,0,1,4.15.7.48.48,0,0,1,.06.67A.44.44,0,0,1,287.72,255.8Z" style="fill:#263238"></path><path d="M274.33,260a.44.44,0,0,1-.6-.16.43.43,0,0,1,0-.4,5,5,0,0,1,3-3.28.44.44,0,0,1,.55.29v0a.51.51,0,0,1-.33.61,4,4,0,0,0-2.34,2.62A.48.48,0,0,1,274.33,260Z" style="fill:#263238"></path><path d="M285.21,259.24l-2,.09S284.59,260.48,285.21,259.24Z" style="fill:#263238"></path><path d="M300.54,278.88a.51.51,0,0,1-.33-.13.5.5,0,0,1,0-.71.61.61,0,0,0,.14-.55,2.07,2.07,0,0,0-1-1.31c-.26-.15-.53-.29-.8-.42a4.36,4.36,0,0,1-2-1.5c-.89-1.41-.2-3.1.59-4.57a6.74,6.74,0,0,0,.87-2.23,2,2,0,0,0-.64-1.85,3.68,3.68,0,0,0-.66-.32,4.51,4.51,0,0,1-.63-.29,3.93,3.93,0,0,1-1.49-4.51,10.36,10.36,0,0,1,2.58-3.87.49.49,0,0,1,.7,0,.51.51,0,0,1,0,.71,9.6,9.6,0,0,0-2.36,3.48,2.93,2.93,0,0,0,1,3.36,4.67,4.67,0,0,0,.51.23,4.19,4.19,0,0,1,.87.44,2.94,2.94,0,0,1,1,2.79,7.7,7.7,0,0,1-1,2.58c-.66,1.21-1.24,2.58-.63,3.56a3.64,3.64,0,0,0,1.58,1.13c.3.15.6.3.87.46a3.1,3.1,0,0,1,1.44,2,1.58,1.58,0,0,1-.39,1.36A.5.5,0,0,1,300.54,278.88Z" style="fill:#263238"></path><path d="M207.61,360.93l1.9.42a1.38,1.38,0,0,1-.74,1.06,3.2,3.2,0,0,1-1.23.27,14.34,14.34,0,0,1-2.27,0,2.52,2.52,0,0,1,1-3.16l5-3.68c.33-.33,18.45-11.39,18.45-11.39l2,2.66-19.15,11.09Z" style="fill:#263238"></path><path d="M207.61,360.93l1.9.42a1.38,1.38,0,0,1-.74,1.06,3.2,3.2,0,0,1-1.23.27,14.34,14.34,0,0,1-2.27,0,2.52,2.52,0,0,1,1-3.16l5-3.68c.33-.33,18.45-11.39,18.45-11.39l2,2.66-19.15,11.09Z" style="fill:#fff;opacity:0.6000000000000001"></path><path d="M268.85,320.82,223.73,347a2.9,2.9,0,0,0-1.06,4h0a2.89,2.89,0,0,0,4,1.05l45.13-26.15a2.88,2.88,0,0,0,1.05-4h0A2.9,2.9,0,0,0,268.85,320.82Z" style="fill:#263238"></path><path d="M227.36,347.1a1.3,1.3,0,0,0-1.79-.52l-1.47.86a1.34,1.34,0,1,0,1.29,2.22l1.47-.86a1.29,1.29,0,0,0,.5-1.7Z" style="fill:#fff;opacity:0.2"></path><path d="M228.33,346.4a1.47,1.47,0,0,0,2.08.34l40.17-23.59a1,1,0,1,0-1-1.74l-40.44,23.12a1.5,1.5,0,0,0-.8,1.87Z" style="fill:#fff;opacity:0.2"></path></g><g id="freepik--Proyect--inject-108"><path d="M318.56,419.8c-70.48,0-120.62-3.92-153-11.93-29.6-7.32-39.57-16.74-47.25-25.76-12.3-14.45-8.4-31.62,1.5-40.44,9.29-8.26,24.78-10,38.45,4.66,14.49,15.57,33.73,17.2,49.19,18.51,3.73.32,7.25.62,10.48,1.09a1,1,0,1,1-.29,2c-3.17-.45-6.66-.75-10.36-1.07-15.8-1.34-35.47-3-50.49-19.14-13.62-14.64-27.72-11.58-35.65-4.52-9.2,8.18-12.78,24.16-1.31,37.64C132,395.09,152.3,419,332.27,417.75c18.46-.12,23.4-1.13,24.71-1.68-2.2-1.41-12.42-3.67-21.45-5.09a1,1,0,1,1,.31-2c23.71,3.75,23.51,6.39,23.44,7.25-.1,1.4-.25,3.32-27,3.5Q325.31,419.79,318.56,419.8Z" style="fill:#5D66A8"></path><path d="M277.36,415.05c1.71,2.27,1,5-1.61,6.57s-5.8,1.66-8.77,1.66l-62.4.08-26.27,0c-8.21,0-17.5,1-25.56,0-2.19-.29-4.67-.62-6-2.28s.59-5.41.86-8.54c1.3-14.8-1.26-12.95-1.06-19.89.19-6.41,3-16.45,3.33-19a22.46,22.46,0,0,0,.06-2.72c-.1-4.43,3.4-5.19,4.85-4.43l47.21-.71c.2,0,18-.12,18.19-.11h3.66l47.73,0c9.44,0,8.81,2.11,9.38,8.54,0,.08,1.8,5.44,1.82,5.52C286.66,396.49,277.66,414,277.36,415.05Z" style="fill:#5D66A8"></path><g style="opacity:0.30000000000000004"><path d="M195.85,381.47a2.34,2.34,0,0,1-2.46,1.89c-.21.13.3.44-1.23,1.29a5.46,5.46,0,0,1-2.77.75,14,14,0,0,1,6.26,2.19C195.65,385.92,195.85,383.14,195.85,381.47Z"></path><path d="M193.87,388.57a9.92,9.92,0,0,1-4.16-1.5c0,.25.17.62.21.87l-.9.32C190.54,388.42,192.35,388.41,193.87,388.57Z"></path><path d="M198.25,381a24,24,0,0,0-.74,5.62,19.89,19.89,0,0,1,2.13-5.15.81.81,0,0,1-.84.29C198.61,381.52,198.21,381.3,198.25,381Z"></path><path d="M199.5,387.1A2.34,2.34,0,0,1,197,389c-.22.13.3.44-1.23,1.29A5.46,5.46,0,0,1,193,391a13.9,13.9,0,0,1,6.25,2.19C199.3,391.54,199.49,388.76,199.5,387.1Z"></path><path d="M197.52,394.2a9.93,9.93,0,0,1-4.16-1.51c0,.26.17.63.21.88l-.9.31C194.19,394,196,394,197.52,394.2Z"></path><path d="M201.9,386.61a24,24,0,0,0-.74,5.63,19.89,19.89,0,0,1,2.13-5.15.85.85,0,0,1-.84.29C202.25,387.15,201.85,386.92,201.9,386.61Z"></path><path d="M203.22,393.7a2.33,2.33,0,0,1-2.45,1.88c-.22.13.29.44-1.24,1.29a5.44,5.44,0,0,1-2.77.75,13.94,13.94,0,0,1,6.26,2.19C203,398.15,203.22,395.37,203.22,393.7Z"></path><path d="M201.24,400.8a10,10,0,0,1-4.15-1.5c0,.25.16.62.2.87l-.9.31C197.91,400.64,199.72,400.63,201.24,400.8Z"></path><path d="M205.62,393.21a24.57,24.57,0,0,0-.74,5.63,19.92,19.92,0,0,1,2.14-5.15.86.86,0,0,1-.85.29C206,393.75,205.58,393.52,205.62,393.21Z"></path><path d="M207.47,400.53a2.33,2.33,0,0,1-2.45,1.89c-.22.13.29.44-1.24,1.29a5.4,5.4,0,0,1-2.76.75,13.9,13.9,0,0,1,6.25,2.19C207.27,405,207.47,402.2,207.47,400.53Z"></path><path d="M205.5,407.63a9.92,9.92,0,0,1-4.16-1.5c0,.25.16.62.21.87l-.9.32C202.17,407.48,204,407.47,205.5,407.63Z"></path><path d="M209.87,400.05a24.47,24.47,0,0,0-.73,5.62,19.89,19.89,0,0,1,2.13-5.15.81.81,0,0,1-.84.29C210.23,400.58,209.83,400.36,209.87,400.05Z"></path><path d="M178.2,381.21a2.33,2.33,0,0,1-2.45,1.88c-.22.13.29.44-1.24,1.29a5.43,5.43,0,0,1-2.76.75,13.94,13.94,0,0,1,6.25,2.19C178,385.65,178.2,382.87,178.2,381.21Z"></path><path d="M176.22,388.3a9.79,9.79,0,0,1-4.15-1.5c0,.25.16.62.21.88l-.91.31C172.9,388.15,174.7,388.14,176.22,388.3Z"></path><path d="M180.6,380.72a25.14,25.14,0,0,0-.74,5.63A19.77,19.77,0,0,1,182,381.2a.86.86,0,0,1-.85.29C181,381.26,180.56,381,180.6,380.72Z"></path><path d="M181.85,386.83a2.33,2.33,0,0,1-2.45,1.89c-.22.13.29.44-1.24,1.29a5.44,5.44,0,0,1-2.77.75,13.94,13.94,0,0,1,6.26,2.19C181.65,391.28,181.85,388.5,181.85,386.83Z"></path><path d="M179.87,393.93a9.88,9.88,0,0,1-4.15-1.5c0,.25.16.62.2.87l-.9.32C176.54,393.78,178.35,393.77,179.87,393.93Z"></path><path d="M184.25,386.35a24.49,24.49,0,0,0-.74,5.62,19.92,19.92,0,0,1,2.14-5.15.83.83,0,0,1-.85.29C184.61,386.89,184.21,386.66,184.25,386.35Z"></path><path d="M185.58,393.43a2.34,2.34,0,0,1-2.46,1.89c-.22.13.3.44-1.24,1.29a5.4,5.4,0,0,1-2.76.75,13.9,13.9,0,0,1,6.25,2.19C185.38,397.88,185.57,395.1,185.58,393.43Z"></path><path d="M183.6,400.53a9.92,9.92,0,0,1-4.16-1.5c0,.25.17.62.21.87l-.9.32C180.27,400.38,182.08,400.37,183.6,400.53Z"></path><path d="M188,393a24.47,24.47,0,0,0-.73,5.62,19.68,19.68,0,0,1,2.13-5.14.82.82,0,0,1-.84.28C188.33,393.49,187.93,393.26,188,393Z"></path><path d="M189.83,400.27a2.33,2.33,0,0,1-2.45,1.88c-.22.13.29.44-1.24,1.29a5.44,5.44,0,0,1-2.77.75,14,14,0,0,1,6.26,2.19C189.63,404.71,189.83,401.93,189.83,400.27Z"></path><path d="M187.85,407.36a9.74,9.74,0,0,1-4.15-1.5c0,.25.16.62.2.88l-.9.31C184.52,407.21,186.33,407.2,187.85,407.36Z"></path><path d="M192.23,399.78a24,24,0,0,0-.74,5.63,19.44,19.44,0,0,1,2.14-5.15.86.86,0,0,1-.85.29C192.59,400.32,192.19,400.09,192.23,399.78Z"></path><path d="M162.84,383.47a2.34,2.34,0,0,1-2.5,1.83c-.22.12.28.45-1.27,1.26a5.42,5.42,0,0,1-2.77.68,14,14,0,0,1,6.18,2.35C162.52,387.92,162.79,385.14,162.84,383.47Z"></path><path d="M160.68,390.53a9.72,9.72,0,0,1-4.1-1.61c0,.25.14.63.18.88l-.91.29C157.36,390.3,159.17,390.33,160.68,390.53Z"></path><path d="M165.24,383.05a24.46,24.46,0,0,0-.88,5.61,20.16,20.16,0,0,1,2.26-5.1.83.83,0,0,1-.85.27C165.59,383.6,165.19,383.36,165.24,383.05Z"></path><path d="M160,377.12a2.34,2.34,0,0,1-2.5,1.83c-.22.12.29.45-1.26,1.26a5.45,5.45,0,0,1-2.78.68,13.86,13.86,0,0,1,6.18,2.35C159.68,381.57,160,378.79,160,377.12Z"></path><path d="M157.83,384.18a9.86,9.86,0,0,1-4.1-1.61c0,.25.14.63.18.88l-.91.29C154.52,383.94,156.32,384,157.83,384.18Z"></path><path d="M162.4,376.69a24.09,24.09,0,0,0-.88,5.62,19.48,19.48,0,0,1,2.26-5.1.84.84,0,0,1-.85.27C162.74,377.24,162.35,377,162.4,376.69Z"></path><path d="M166.33,389.2a2.34,2.34,0,0,1-2.5,1.83c-.22.12.29.45-1.26,1.26a5.45,5.45,0,0,1-2.78.68,14,14,0,0,1,6.18,2.35C166,393.65,166.29,390.87,166.33,389.2Z"></path><path d="M164.17,396.26a9.72,9.72,0,0,1-4.1-1.61c0,.26.15.63.18.88l-.91.29C160.86,396,162.66,396.06,164.17,396.26Z"></path><path d="M168.74,388.78a23.93,23.93,0,0,0-.88,5.61,19.48,19.48,0,0,1,2.26-5.1.84.84,0,0,1-.85.27C169.08,389.33,168.69,389.09,168.74,388.78Z"></path><path d="M148.46,393.64a8.85,8.85,0,0,1,1.47,1c0-1.67.32-4.45.36-6.12a2,2,0,0,1-1.38,1.65Z"></path><path d="M152.7,388.09a24.63,24.63,0,0,0-.88,5.62,19.54,19.54,0,0,1,2.26-5.11.84.84,0,0,1-.85.27C153,388.64,152.65,388.4,152.7,388.09Z"></path><path d="M151.16,377.7a24.65,24.65,0,0,0-.89,5.62,19.7,19.7,0,0,1,2.27-5.1.82.82,0,0,1-.85.26C151.5,378.25,151.11,378,151.16,377.7Z"></path><path d="M169.51,395.26a2.33,2.33,0,0,1-2.5,1.82c-.22.13.28.45-1.27,1.26A5.32,5.32,0,0,1,163,399a13.92,13.92,0,0,1,6.18,2.36C169.19,399.71,169.46,396.93,169.51,395.26Z"></path><path d="M167.35,402.32a9.86,9.86,0,0,1-4.1-1.61c0,.25.14.62.18.87l-.91.3C164,402.08,165.84,402.11,167.35,402.32Z"></path><path d="M171.91,394.83a24.63,24.63,0,0,0-.88,5.62,20.23,20.23,0,0,1,2.26-5.11.83.83,0,0,1-.85.27C172.26,395.38,171.87,395.14,171.91,394.83Z"></path><path d="M173.06,401.55a2.33,2.33,0,0,1-2.49,1.83c-.22.12.28.44-1.27,1.25a5.37,5.37,0,0,1-2.78.69,13.7,13.7,0,0,1,6.18,2.35C172.75,406,173,403.22,173.06,401.55Z"></path><path d="M170.91,408.61A10,10,0,0,1,166.8,407c0,.25.15.62.18.88l-.9.29C167.59,408.37,169.39,408.41,170.91,408.61Z"></path><path d="M175.47,401.12a24.63,24.63,0,0,0-.88,5.62,20,20,0,0,1,2.26-5.1.82.82,0,0,1-.85.26C175.81,401.67,175.42,401.43,175.47,401.12Z"></path><path d="M209.91,374.16a2.32,2.32,0,0,1-2.6,1.68c-.22.1.25.46-1.34,1.18a5.34,5.34,0,0,1-2.8.5,13.84,13.84,0,0,1,6,2.76C209.31,378.61,209.75,375.83,209.91,374.16Z"></path><path d="M207.31,381.11a9.72,9.72,0,0,1-4-1.88c0,.26.11.64.13.89l-.92.24C204,380.66,205.82,380.81,207.31,381.11Z"></path><path d="M212.32,373.89a24.67,24.67,0,0,0-1.23,5.58,19.79,19.79,0,0,1,2.57-5,.83.83,0,0,1-.86.22C212.63,374.46,212.25,374.2,212.32,373.89Z"></path><path d="M213,380.14a2.31,2.31,0,0,1-2.59,1.67c-.23.11.25.47-1.34,1.18a5.35,5.35,0,0,1-2.8.51,13.73,13.73,0,0,1,6,2.75C212.4,384.58,212.85,381.81,213,380.14Z"></path><path d="M210.41,387.08a9.54,9.54,0,0,1-4-1.88c0,.26.1.64.12.9l-.92.23C207.13,386.63,208.92,386.78,210.41,387.08Z"></path><path d="M215.42,379.86a24.69,24.69,0,0,0-1.24,5.58,20.58,20.58,0,0,1,2.57-5,.82.82,0,0,1-.86.21C215.72,380.44,215.35,380.17,215.42,379.86Z"></path><path d="M216.09,387.1a2.32,2.32,0,0,1-2.6,1.67c-.22.11.25.47-1.34,1.18a5.35,5.35,0,0,1-2.8.51,13.77,13.77,0,0,1,6,2.75C215.49,391.54,215.94,388.77,216.09,387.1Z"></path><path d="M213.49,394a9.6,9.6,0,0,1-4-1.88c0,.26.11.64.13.9l-.92.23C210.22,393.59,212,393.74,213.49,394Z"></path><path d="M218.5,386.82a24.67,24.67,0,0,0-1.23,5.58,19.89,19.89,0,0,1,2.57-5,.82.82,0,0,1-.86.21C218.81,387.4,218.43,387.13,218.5,386.82Z"></path><path d="M219.67,394.34a2.31,2.31,0,0,1-2.59,1.67c-.23.11.25.47-1.34,1.18a5.35,5.35,0,0,1-2.8.51,13.64,13.64,0,0,1,6,2.76C219.08,398.78,219.52,396,219.67,394.34Z"></path><path d="M217.08,401.28a9.6,9.6,0,0,1-4-1.88c0,.26.1.64.12.9l-.92.23C213.8,400.83,215.59,401,217.08,401.28Z"></path><path d="M222.09,394.06a25.37,25.37,0,0,0-1.24,5.58,20.27,20.27,0,0,1,2.58-5,.83.83,0,0,1-.86.21C222.4,394.64,222,394.37,222.09,394.06Z"></path><path d="M222.85,400.31a2.32,2.32,0,0,1-2.6,1.68c-.22.1.26.46-1.33,1.18a5.36,5.36,0,0,1-2.8.5,13.8,13.8,0,0,1,6,2.76C222.25,404.76,222.7,402,222.85,400.31Z"></path><path d="M220.25,407.26a9.78,9.78,0,0,1-4-1.88c0,.26.11.64.13.89l-.92.24C217,406.81,218.77,407,220.25,407.26Z"></path><path d="M225.26,400a25.22,25.22,0,0,0-1.23,5.58,19.79,19.79,0,0,1,2.57-5,.83.83,0,0,1-.86.22C225.57,400.61,225.2,400.35,225.26,400Z"></path><path d="M225.9,406.77a2.31,2.31,0,0,1-2.59,1.67c-.23.11.25.47-1.34,1.18a5.35,5.35,0,0,1-2.8.51,13.64,13.64,0,0,1,6,2.76C225.3,411.21,225.75,408.44,225.9,406.77Z"></path><path d="M223.31,413.71a9.54,9.54,0,0,1-4-1.88c0,.26.1.64.12.9l-.92.23C220,413.26,221.82,413.41,223.31,413.71Z"></path><path d="M228.32,406.49a24.81,24.81,0,0,0-1.24,5.58,20.27,20.27,0,0,1,2.58-5,.84.84,0,0,1-.87.21C228.62,407.07,228.25,406.8,228.32,406.49Z"></path><path d="M226.58,375.2a2.31,2.31,0,0,1-2.59,1.68c-.23.11.25.47-1.34,1.18a5.35,5.35,0,0,1-2.8.51,13.62,13.62,0,0,1,6,2.75C226,379.65,226.43,376.88,226.58,375.2Z"></path><path d="M224,382.15a9.66,9.66,0,0,1-4-1.88c0,.26.1.64.12.9l-.92.23C220.71,381.7,222.5,381.85,224,382.15Z"></path><path d="M229,374.93a24.69,24.69,0,0,0-1.24,5.58,20.4,20.4,0,0,1,2.57-5,.84.84,0,0,1-.86.21C229.3,375.5,228.93,375.24,229,374.93Z"></path><path d="M229.67,382.16a2.33,2.33,0,0,1-2.6,1.68c-.23.11.25.46-1.34,1.18a5.35,5.35,0,0,1-2.8.51,13.71,13.71,0,0,1,6,2.75C229.07,386.61,229.51,383.84,229.67,382.16Z"></path><path d="M227.07,389.11a9.72,9.72,0,0,1-4-1.88c0,.26.11.64.13.89l-.92.24C223.8,388.66,225.58,388.81,227.07,389.11Z"></path><path d="M232.08,381.89a24.67,24.67,0,0,0-1.23,5.58,19.56,19.56,0,0,1,2.57-5,.84.84,0,0,1-.86.21C232.39,382.46,232,382.2,232.08,381.89Z"></path><path d="M232.86,388.58a2.33,2.33,0,0,1-2.6,1.68c-.23.11.25.47-1.34,1.18a5.35,5.35,0,0,1-2.8.51,13.62,13.62,0,0,1,6,2.75C232.26,393,232.7,390.26,232.86,388.58Z"></path><path d="M230.26,395.53a9.72,9.72,0,0,1-4-1.88c0,.26.1.64.12.9l-.91.23C227,395.08,228.77,395.23,230.26,395.53Z"></path><path d="M235.27,388.31a25.25,25.25,0,0,0-1.24,5.58,20.27,20.27,0,0,1,2.58-5,.83.83,0,0,1-.86.21C235.58,388.88,235.2,388.62,235.27,388.31Z"></path><path d="M241.81,375.51a2.34,2.34,0,0,1-2.48,1.85c-.22.12.29.44-1.25,1.27a5.36,5.36,0,0,1-2.78.71,13.83,13.83,0,0,1,6.21,2.29C241.54,380,241.78,377.18,241.81,375.51Z"></path><path d="M239.73,382.58A9.83,9.83,0,0,1,235.6,381c0,.25.15.62.19.87l-.9.31C236.4,382.38,238.21,382.4,239.73,382.58Z"></path><path d="M244.21,375.06a24.53,24.53,0,0,0-.82,5.62,19.64,19.64,0,0,1,2.21-5.12.83.83,0,0,1-.85.27C244.56,375.6,244.17,375.37,244.21,375.06Z"></path><path d="M245.37,381.2a2.34,2.34,0,0,1-2.48,1.85c-.22.12.28.44-1.26,1.27a5.42,5.42,0,0,1-2.77.71,13.93,13.93,0,0,1,6.21,2.28C245.1,385.65,245.34,382.86,245.37,381.2Z"></path><path d="M243.28,388.27a9.92,9.92,0,0,1-4.12-1.56c0,.25.15.62.19.87l-.91.3C240,388.07,241.76,388.09,243.28,388.27Z"></path><path d="M247.77,380.75a24.53,24.53,0,0,0-.82,5.62,19.64,19.64,0,0,1,2.21-5.12.84.84,0,0,1-.85.27C248.12,381.29,247.72,381.06,247.77,380.75Z"></path><path d="M249,387.86a2.33,2.33,0,0,1-2.48,1.85c-.22.13.29.45-1.25,1.27a5.35,5.35,0,0,1-2.77.71,13.94,13.94,0,0,1,6.21,2.29C248.72,392.31,249,389.53,249,387.86Z"></path><path d="M246.9,394.94a9.89,9.89,0,0,1-4.13-1.57c0,.25.16.63.2.88l-.91.3C243.58,394.74,245.38,394.75,246.9,394.94Z"></path><path d="M251.39,387.41a24.55,24.55,0,0,0-.83,5.62,20.14,20.14,0,0,1,2.21-5.12.82.82,0,0,1-.84.28C251.74,388,251.34,387.72,251.39,387.41Z"></path><path d="M253.13,394.77a2.34,2.34,0,0,1-2.48,1.85c-.22.12.28.44-1.26,1.27a5.33,5.33,0,0,1-2.77.71,13.83,13.83,0,0,1,6.21,2.29C252.86,399.22,253.1,396.44,253.13,394.77Z"></path><path d="M251,401.84a9.79,9.79,0,0,1-4.12-1.56c0,.25.15.62.19.87l-.91.31C247.72,401.64,249.53,401.66,251,401.84Z"></path><path d="M255.53,394.32a24.53,24.53,0,0,0-.82,5.62,19.79,19.79,0,0,1,2.21-5.12.84.84,0,0,1-.85.27C255.88,394.86,255.49,394.63,255.53,394.32Z"></path><path d="M256.4,400.39a2.34,2.34,0,0,1-2.48,1.85c-.22.12.29.45-1.25,1.27a5.36,5.36,0,0,1-2.78.71,13.94,13.94,0,0,1,6.21,2.29C256.13,404.84,256.37,402.06,256.4,400.39Z"></path><path d="M254.32,407.46a9.83,9.83,0,0,1-4.13-1.56c0,.25.15.62.19.87l-.9.31C251,407.26,252.8,407.28,254.32,407.46Z"></path><path d="M258.8,399.94a24.53,24.53,0,0,0-.82,5.62,19.79,19.79,0,0,1,2.21-5.12.83.83,0,0,1-.85.27C259.15,400.48,258.76,400.25,258.8,399.94Z"></path><path d="M275.08,402.68c-.32,2.29-2.81,2.2-2.81,2.2-.25.15.35.5-1.41,1.49a6.19,6.19,0,0,1-3.18.9,16.13,16.13,0,0,1,7.24,2.45C274.9,407.8,275.1,404.6,275.08,402.68Z"></path><path d="M272.23,409.9a10.44,10.44,0,0,1-4.42-.72c.08.23.27.57.36.8l-.85.47C268.87,410.34,270.68,410,272.23,409.9Z"></path><path d="M276.93,402.16a23.08,23.08,0,0,0,.26,5.58,19.45,19.45,0,0,1,1.22-5.36.86.86,0,0,1-.79.43C277.38,402.62,276.94,402.47,276.93,402.16Z"></path><path d="M258.29,376.32a2.33,2.33,0,0,1-2.38,2c-.22.14.31.43-1.19,1.33a5.46,5.46,0,0,1-2.75.86,14,14,0,0,1,6.36,1.94C258.27,380.76,258.36,378,258.29,376.32Z"></path><path d="M256.58,383.46a9.87,9.87,0,0,1-4.22-1.33c0,.25.19.61.24.86l-.89.35C253.24,383.44,255.05,383.36,256.58,383.46Z"></path><path d="M260.68,375.74a24.45,24.45,0,0,0-.52,5.63,19.59,19.59,0,0,1,1.94-5.2.84.84,0,0,1-.84.31C261.06,376.27,260.65,376.05,260.68,375.74Z"></path><path d="M261.91,382.43c-.22,2-2.39,2-2.39,2-.21.13.31.43-1.19,1.33a5.41,5.41,0,0,1-2.74.85,14.18,14.18,0,0,1,6.35,1.94C261.88,386.86,262,384.09,261.91,382.43Z"></path><path d="M260.2,389.57a10.14,10.14,0,0,1-4.23-1.33c.06.24.19.61.24.86l-.89.34C256.85,389.55,258.67,389.47,260.2,389.57Z"></path><path d="M264.29,381.85a24.4,24.4,0,0,0-.52,5.63,20,20,0,0,1,1.94-5.21.84.84,0,0,1-.83.32C264.67,382.37,264.26,382.16,264.29,381.85Z"></path><path d="M265.49,388.22a2.34,2.34,0,0,1-2.39,2c-.21.14.31.43-1.19,1.33a5.42,5.42,0,0,1-2.74.86,13.93,13.93,0,0,1,6.35,1.94C265.46,392.66,265.55,389.88,265.49,388.22Z"></path><path d="M263.78,395.36a9.78,9.78,0,0,1-4.22-1.33c.05.25.18.61.24.86l-.89.35C260.44,395.34,262.25,395.26,263.78,395.36Z"></path><path d="M267.88,387.64a23.91,23.91,0,0,0-.52,5.63,19.56,19.56,0,0,1,1.93-5.2.83.83,0,0,1-.83.31C268.26,388.17,267.85,388,267.88,387.64Z"></path><path d="M269.49,395.75a2.34,2.34,0,0,1-2.39,2c-.22.14.31.43-1.19,1.33a5.53,5.53,0,0,1-2.75.86,14,14,0,0,1,6.36,1.93C269.46,400.18,269.55,397.41,269.49,395.75Z"></path><path d="M267.78,402.89a10.14,10.14,0,0,1-4.23-1.33c.06.25.19.61.24.86l-.89.35C264.43,402.87,266.25,402.79,267.78,402.89Z"></path><path d="M271.87,395.17a24.4,24.4,0,0,0-.52,5.63,19.66,19.66,0,0,1,1.94-5.21.82.82,0,0,1-.83.32C272.25,395.69,271.84,395.48,271.87,395.17Z"></path><path d="M274,375.34a2.34,2.34,0,0,1-2.38,2c-.22.13.31.42-1.19,1.33a5.55,5.55,0,0,1-2.75.85,14.13,14.13,0,0,1,6.36,1.94C274,379.78,274.05,377,274,375.34Z"></path><path d="M272.27,382.49a10,10,0,0,1-4.22-1.34c.05.25.19.61.24.86l-.89.35C268.93,382.46,270.74,382.38,272.27,382.49Z"></path><path d="M276.37,374.77a23.82,23.82,0,0,0-.52,5.63,19.53,19.53,0,0,1,1.94-5.21.87.87,0,0,1-.84.32C276.75,375.29,276.34,375.08,276.37,374.77Z"></path><path d="M278.08,382.21a2.34,2.34,0,0,1-2.39,2c-.21.14.31.43-1.19,1.33a5.42,5.42,0,0,1-2.74.86,13.93,13.93,0,0,1,6.35,1.94C278.05,386.65,278.14,383.87,278.08,382.21Z"></path><path d="M276.37,389.36a9.93,9.93,0,0,1-4.22-1.34c.05.25.18.61.24.86l-.89.35C273,389.33,274.84,389.25,276.37,389.36Z"></path><path d="M280.47,381.63a24.5,24.5,0,0,0-.53,5.64,19.88,19.88,0,0,1,1.94-5.21.86.86,0,0,1-.83.32C280.85,382.16,280.44,382,280.47,381.63Z"></path><path d="M281.9,389.23a2.34,2.34,0,0,1-2.39,2c-.21.14.31.43-1.19,1.33a5.52,5.52,0,0,1-2.74.86,9.73,9.73,0,0,1,5.34,1.38C280.85,393.11,282,390.89,281.9,389.23Z"></path><path d="M280.19,396.37A10.14,10.14,0,0,1,276,395c.06.24.19.61.24.86l-.89.35C276.84,396.35,278.66,396.27,280.19,396.37Z"></path><path d="M235.3,394.07a2.33,2.33,0,0,1-2.49,1.85c-.22.12.29.44-1.25,1.26a5.47,5.47,0,0,1-2.78.7,13.93,13.93,0,0,1,6.2,2.31C235,398.52,235.27,395.74,235.3,394.07Z"></path><path d="M233.19,401.14a9.81,9.81,0,0,1-4.12-1.58c0,.25.15.62.19.88l-.91.3C229.87,400.93,231.67,401,233.19,401.14Z"></path><path d="M237.71,393.63a24,24,0,0,0-.85,5.62,20.13,20.13,0,0,1,2.23-5.11.84.84,0,0,1-.85.27C238.05,394.18,237.66,393.94,237.71,393.63Z"></path><path d="M238.83,399.78a2.33,2.33,0,0,1-2.49,1.84c-.22.12.29.45-1.25,1.27a5.47,5.47,0,0,1-2.78.7,13.81,13.81,0,0,1,6.2,2.31C238.54,404.23,238.8,401.45,238.83,399.78Z"></path><path d="M236.72,406.85a10,10,0,0,1-4.12-1.58c0,.25.15.62.19.87l-.91.3C233.4,406.63,235.2,406.66,236.72,406.85Z"></path><path d="M241.24,399.34a24,24,0,0,0-.85,5.62,20.13,20.13,0,0,1,2.23-5.11.85.85,0,0,1-.85.27C241.58,399.89,241.19,399.65,241.24,399.34Z"></path><path d="M242.42,406.46a2.33,2.33,0,0,1-2.49,1.84c-.22.13.29.45-1.26,1.27a5.41,5.41,0,0,1-2.77.7,13.93,13.93,0,0,1,6.2,2.31C242.13,410.91,242.38,408.13,242.42,406.46Z"></path><path d="M240.3,413.53a9.77,9.77,0,0,1-4.11-1.58c0,.25.15.62.19.87l-.91.3C237,413.32,238.79,413.34,240.3,413.53Z"></path><path d="M244.82,406a24.57,24.57,0,0,0-.84,5.62,19.45,19.45,0,0,1,2.23-5.11.84.84,0,0,1-.85.27C245.17,406.57,244.78,406.33,244.82,406Z"></path></g><path d="M157.79,415.81a27.62,27.62,0,0,1-2.77,2.95l.33.37c1.11,1.27,2.77,1.58,4.45,2a5.45,5.45,0,0,1-1.63-1.18,1.53,1.53,0,0,1-.42-1.65,2.79,2.79,0,0,1,1.4-1.19,1.65,1.65,0,0,0-1.37-1.27l-.21.51C157.45,416.3,157.91,415.85,157.79,415.81Z" style="opacity:0.30000000000000004"></path><path d="M164.22,415.81a27.62,27.62,0,0,1-2.77,2.95l.32.37c1.11,1.27,2.78,1.58,4.45,2a5.71,5.71,0,0,1-1.63-1.18,1.52,1.52,0,0,1-.41-1.65,2.75,2.75,0,0,1,1.4-1.19,1.66,1.66,0,0,0-1.37-1.27l-.21.51C163.88,416.3,164.34,415.85,164.22,415.81Z" style="opacity:0.30000000000000004"></path><path d="M170.64,415.81a26.64,26.64,0,0,1-2.77,2.95l.33.37c1.11,1.27,2.77,1.58,4.45,2a5.58,5.58,0,0,1-1.63-1.18,1.52,1.52,0,0,1-.41-1.65A2.77,2.77,0,0,1,172,417.1a1.64,1.64,0,0,0-1.36-1.27l-.21.51C170.3,416.3,170.77,415.85,170.64,415.81Z" style="opacity:0.30000000000000004"></path><path d="M177.07,415.81a27.62,27.62,0,0,1-2.77,2.95l.33.37c1.11,1.27,2.77,1.58,4.45,2a5.45,5.45,0,0,1-1.63-1.18,1.53,1.53,0,0,1-.42-1.65,2.75,2.75,0,0,1,1.4-1.19,1.65,1.65,0,0,0-1.37-1.27l-.21.51C176.73,416.3,177.19,415.85,177.07,415.81Z" style="opacity:0.30000000000000004"></path><path d="M183.5,415.81a27.62,27.62,0,0,1-2.77,2.95l.32.37c1.11,1.27,2.77,1.58,4.45,2a5.71,5.71,0,0,1-1.63-1.18,1.52,1.52,0,0,1-.41-1.65,2.77,2.77,0,0,1,1.39-1.19,1.64,1.64,0,0,0-1.36-1.27l-.21.51C183.16,416.3,183.62,415.85,183.5,415.81Z" style="opacity:0.30000000000000004"></path><path d="M189.92,415.81a26.64,26.64,0,0,1-2.77,2.95l.33.37c1.11,1.27,2.77,1.58,4.45,2a5.58,5.58,0,0,1-1.63-1.18,1.52,1.52,0,0,1-.41-1.65,2.73,2.73,0,0,1,1.39-1.19,1.65,1.65,0,0,0-1.36-1.27l-.21.51C189.58,416.3,190.05,415.85,189.92,415.81Z" style="opacity:0.30000000000000004"></path><path d="M196.35,415.81a27.62,27.62,0,0,1-2.77,2.95l.32.37c1.12,1.27,2.78,1.58,4.45,2a5.53,5.53,0,0,1-1.62-1.18,1.53,1.53,0,0,1-.42-1.65,2.75,2.75,0,0,1,1.4-1.19,1.66,1.66,0,0,0-1.37-1.27l-.21.51C196,416.3,196.47,415.85,196.35,415.81Z" style="opacity:0.30000000000000004"></path><path d="M202.77,415.81a27.53,27.53,0,0,1-2.76,2.95c.1.13.21.25.32.37,1.11,1.27,2.77,1.58,4.45,2a5.71,5.71,0,0,1-1.63-1.18,1.52,1.52,0,0,1-.41-1.65,2.77,2.77,0,0,1,1.39-1.19,1.64,1.64,0,0,0-1.36-1.27l-.21.51C202.43,416.3,202.9,415.85,202.77,415.81Z" style="opacity:0.30000000000000004"></path><path d="M209.2,415.81a27.62,27.62,0,0,1-2.77,2.95l.33.37c1.11,1.27,2.77,1.58,4.45,2a5.58,5.58,0,0,1-1.63-1.18,1.55,1.55,0,0,1-.42-1.65,2.79,2.79,0,0,1,1.4-1.19,1.65,1.65,0,0,0-1.36-1.27l-.21.51C208.86,416.3,209.33,415.85,209.2,415.81Z" style="opacity:0.30000000000000004"></path><path d="M215.63,415.81a27.62,27.62,0,0,1-2.77,2.95l.32.37c1.11,1.27,2.78,1.58,4.45,2a5.53,5.53,0,0,1-1.62-1.18,1.51,1.51,0,0,1-.42-1.65,2.75,2.75,0,0,1,1.4-1.19,1.66,1.66,0,0,0-1.37-1.27l-.21.51C215.29,416.3,215.75,415.85,215.63,415.81Z" style="opacity:0.30000000000000004"></path><path d="M222.05,415.81a27.53,27.53,0,0,1-2.76,2.95c.1.13.21.25.32.37,1.11,1.27,2.77,1.58,4.45,2a5.58,5.58,0,0,1-1.63-1.18,1.52,1.52,0,0,1-.41-1.65,2.77,2.77,0,0,1,1.39-1.19,1.64,1.64,0,0,0-1.36-1.27l-.21.51C221.71,416.3,222.18,415.85,222.05,415.81Z" style="opacity:0.30000000000000004"></path><path d="M228.48,415.81a27.62,27.62,0,0,1-2.77,2.95l.33.37c1.11,1.27,2.77,1.58,4.45,2a5.45,5.45,0,0,1-1.63-1.18,1.53,1.53,0,0,1-.42-1.65,2.79,2.79,0,0,1,1.4-1.19,1.65,1.65,0,0,0-1.37-1.27l-.21.51C228.14,416.3,228.6,415.85,228.48,415.81Z" style="opacity:0.30000000000000004"></path><path d="M234.91,415.81a27.62,27.62,0,0,1-2.77,2.95l.32.37c1.11,1.27,2.78,1.58,4.45,2a5.71,5.71,0,0,1-1.63-1.18,1.52,1.52,0,0,1-.41-1.65,2.75,2.75,0,0,1,1.4-1.19,1.66,1.66,0,0,0-1.37-1.27l-.21.51C234.57,416.3,235,415.85,234.91,415.81Z" style="opacity:0.30000000000000004"></path><path d="M241.33,415.81a26.64,26.64,0,0,1-2.77,2.95l.33.37c1.11,1.27,2.77,1.58,4.45,2a5.58,5.58,0,0,1-1.63-1.18,1.52,1.52,0,0,1-.41-1.65,2.77,2.77,0,0,1,1.39-1.19,1.64,1.64,0,0,0-1.36-1.27l-.21.51C241,416.3,241.46,415.85,241.33,415.81Z" style="opacity:0.30000000000000004"></path><path d="M247.76,415.81a27.62,27.62,0,0,1-2.77,2.95l.33.37c1.11,1.27,2.77,1.58,4.45,2a5.45,5.45,0,0,1-1.63-1.18,1.53,1.53,0,0,1-.42-1.65,2.75,2.75,0,0,1,1.4-1.19,1.65,1.65,0,0,0-1.37-1.27l-.21.51C247.42,416.3,247.88,415.85,247.76,415.81Z" style="opacity:0.30000000000000004"></path><path d="M254.19,415.81a27.62,27.62,0,0,1-2.77,2.95l.32.37c1.11,1.27,2.77,1.58,4.45,2a5.71,5.71,0,0,1-1.63-1.18,1.52,1.52,0,0,1-.41-1.65,2.77,2.77,0,0,1,1.39-1.19,1.64,1.64,0,0,0-1.36-1.27l-.21.51C253.85,416.3,254.31,415.85,254.19,415.81Z" style="opacity:0.30000000000000004"></path><path d="M260.61,415.81a26.64,26.64,0,0,1-2.77,2.95l.33.37c1.11,1.27,2.77,1.58,4.45,2a5.58,5.58,0,0,1-1.63-1.18,1.52,1.52,0,0,1-.41-1.65A2.73,2.73,0,0,1,262,417.1a1.65,1.65,0,0,0-1.36-1.27l-.21.51C260.27,416.3,260.74,415.85,260.61,415.81Z" style="opacity:0.30000000000000004"></path><path d="M267,415.81a27.62,27.62,0,0,1-2.77,2.95l.32.37c1.12,1.27,2.78,1.58,4.45,2a5.53,5.53,0,0,1-1.62-1.18,1.53,1.53,0,0,1-.42-1.65,2.75,2.75,0,0,1,1.4-1.19,1.66,1.66,0,0,0-1.37-1.27l-.21.51C266.7,416.3,267.16,415.85,267,415.81Z" style="opacity:0.30000000000000004"></path><path d="M273.47,415.81a28.67,28.67,0,0,1-2.77,2.95c.1.13.21.25.32.37,1.11,1.27,2.77,1.58,4.45,2a5.71,5.71,0,0,1-1.63-1.18,1.52,1.52,0,0,1-.41-1.65,2.77,2.77,0,0,1,1.39-1.19,1.64,1.64,0,0,0-1.36-1.27l-.21.51C273.12,416.3,273.59,415.85,273.47,415.81Z" style="opacity:0.30000000000000004"></path><path d="M151,415.81a27.62,27.62,0,0,1-2.77,2.95c.1.13.21.25.32.37,1.11,1.27,2.77,1.58,4.45,2a5.71,5.71,0,0,1-1.63-1.18,1.52,1.52,0,0,1-.41-1.65,2.77,2.77,0,0,1,1.39-1.19,1.64,1.64,0,0,0-1.36-1.27l-.21.51C150.61,416.3,151.07,415.85,151,415.81Z" style="opacity:0.30000000000000004"></path><path d="M267.88,372.81a29.85,29.85,0,0,1,2.77-3l-.32-.37c-1.11-1.27-2.77-1.57-4.45-2a5.53,5.53,0,0,1,1.63,1.18,1.52,1.52,0,0,1,.41,1.65,2.71,2.71,0,0,1-1.39,1.18,1.64,1.64,0,0,0,1.36,1.28l.21-.51C268.23,372.32,267.76,372.77,267.88,372.81Z" style="opacity:0.30000000000000004"></path><path d="M261.46,372.81a28.71,28.71,0,0,1,2.77-3l-.33-.37c-1.11-1.27-2.77-1.57-4.45-2a5.4,5.4,0,0,1,1.63,1.18,1.54,1.54,0,0,1,.42,1.65,2.73,2.73,0,0,1-1.4,1.18,1.65,1.65,0,0,0,1.36,1.28l.21-.51C261.8,372.32,261.33,372.77,261.46,372.81Z" style="opacity:0.30000000000000004"></path><path d="M255,372.81a28.71,28.71,0,0,1,2.77-3c-.11-.12-.22-.24-.32-.37-1.12-1.27-2.78-1.57-4.45-2a5.36,5.36,0,0,1,1.62,1.18,1.52,1.52,0,0,1,.42,1.65,2.69,2.69,0,0,1-1.4,1.18,1.66,1.66,0,0,0,1.37,1.28l.21-.51C255.37,372.32,254.91,372.77,255,372.81Z" style="opacity:0.30000000000000004"></path><path d="M248.61,372.81a28.61,28.61,0,0,1,2.76-3l-.32-.37c-1.11-1.27-2.77-1.57-4.45-2a5.4,5.4,0,0,1,1.63,1.18,1.52,1.52,0,0,1,.41,1.65,2.71,2.71,0,0,1-1.39,1.18,1.64,1.64,0,0,0,1.36,1.28l.21-.51C249,372.32,248.48,372.77,248.61,372.81Z" style="opacity:0.30000000000000004"></path><path d="M242.18,372.81a28.71,28.71,0,0,1,2.77-3l-.33-.37c-1.11-1.27-2.77-1.57-4.45-2a5.28,5.28,0,0,1,1.63,1.18,1.52,1.52,0,0,1,.42,1.65,2.73,2.73,0,0,1-1.4,1.18,1.65,1.65,0,0,0,1.37,1.28l.21-.51C242.52,372.32,242.06,372.77,242.18,372.81Z" style="opacity:0.30000000000000004"></path><path d="M235.75,372.81a28.71,28.71,0,0,1,2.77-3l-.32-.37c-1.11-1.27-2.78-1.57-4.45-2a5.53,5.53,0,0,1,1.63,1.18,1.52,1.52,0,0,1,.41,1.65,2.69,2.69,0,0,1-1.4,1.18,1.66,1.66,0,0,0,1.37,1.28l.21-.51C236.09,372.32,235.63,372.77,235.75,372.81Z" style="opacity:0.30000000000000004"></path><path d="M229.33,372.81a27.66,27.66,0,0,1,2.77-3l-.33-.37c-1.11-1.27-2.77-1.57-4.45-2a5.4,5.4,0,0,1,1.63,1.18,1.52,1.52,0,0,1,.41,1.65,2.71,2.71,0,0,1-1.39,1.18,1.64,1.64,0,0,0,1.36,1.28l.21-.51C229.67,372.32,229.2,372.77,229.33,372.81Z" style="opacity:0.30000000000000004"></path><path d="M222.9,372.81a28.71,28.71,0,0,1,2.77-3l-.33-.37c-1.11-1.27-2.77-1.57-4.45-2a5.28,5.28,0,0,1,1.63,1.18,1.52,1.52,0,0,1,.42,1.65,2.69,2.69,0,0,1-1.4,1.18,1.65,1.65,0,0,0,1.37,1.28l.21-.51C223.24,372.32,222.78,372.77,222.9,372.81Z" style="opacity:0.30000000000000004"></path><path d="M213.72,372.81a27.66,27.66,0,0,1,2.77-3l-.33-.37c-1.11-1.27-2.77-1.57-4.45-2a5.4,5.4,0,0,1,1.63,1.18,1.52,1.52,0,0,1,.41,1.65,2.71,2.71,0,0,1-1.39,1.18,1.64,1.64,0,0,0,1.36,1.28l.21-.51C214.06,372.32,213.59,372.77,213.72,372.81Z" style="opacity:0.30000000000000004"></path><path d="M207.29,372.81a28.71,28.71,0,0,1,2.77-3l-.32-.37c-1.12-1.27-2.78-1.57-4.46-2a5.28,5.28,0,0,1,1.63,1.18,1.52,1.52,0,0,1,.42,1.65,2.69,2.69,0,0,1-1.4,1.18,1.65,1.65,0,0,0,1.37,1.28l.21-.51C207.63,372.32,207.17,372.77,207.29,372.81Z" style="opacity:0.30000000000000004"></path><path d="M200.86,372.81a28.71,28.71,0,0,1,2.77-3l-.32-.37c-1.11-1.27-2.77-1.57-4.45-2a5.53,5.53,0,0,1,1.63,1.18,1.52,1.52,0,0,1,.41,1.65,2.71,2.71,0,0,1-1.39,1.18,1.64,1.64,0,0,0,1.36,1.28l.21-.51C201.2,372.32,200.74,372.77,200.86,372.81Z" style="opacity:0.30000000000000004"></path><path d="M194.44,372.81a27.66,27.66,0,0,1,2.77-3l-.33-.37c-1.11-1.27-2.77-1.57-4.45-2a5.4,5.4,0,0,1,1.63,1.18,1.54,1.54,0,0,1,.42,1.65,2.73,2.73,0,0,1-1.4,1.18,1.65,1.65,0,0,0,1.36,1.28l.21-.51C194.78,372.32,194.31,372.77,194.44,372.81Z" style="opacity:0.30000000000000004"></path><path d="M188,372.81a28.71,28.71,0,0,1,2.77-3l-.32-.37c-1.12-1.27-2.78-1.57-4.45-2a5.36,5.36,0,0,1,1.62,1.18,1.52,1.52,0,0,1,.42,1.65,2.69,2.69,0,0,1-1.4,1.18,1.66,1.66,0,0,0,1.37,1.28l.21-.51C188.35,372.32,187.89,372.77,188,372.81Z" style="opacity:0.30000000000000004"></path><path d="M181.59,372.81a28.61,28.61,0,0,1,2.76-3l-.32-.37c-1.11-1.27-2.77-1.57-4.45-2a5.53,5.53,0,0,1,1.63,1.18,1.52,1.52,0,0,1,.41,1.65,2.71,2.71,0,0,1-1.39,1.18,1.64,1.64,0,0,0,1.36,1.28l.21-.51C181.93,372.32,181.46,372.77,181.59,372.81Z" style="opacity:0.30000000000000004"></path><path d="M175.16,372.81a28.71,28.71,0,0,1,2.77-3l-.33-.37c-1.11-1.27-2.77-1.57-4.45-2a5.4,5.4,0,0,1,1.63,1.18,1.54,1.54,0,0,1,.42,1.65,2.73,2.73,0,0,1-1.4,1.18,1.65,1.65,0,0,0,1.36,1.28l.22-.51C175.5,372.32,175,372.77,175.16,372.81Z" style="opacity:0.30000000000000004"></path><path d="M168.73,372.81a28.71,28.71,0,0,1,2.77-3l-.32-.37c-1.11-1.27-2.78-1.57-4.45-2a5.36,5.36,0,0,1,1.62,1.18,1.51,1.51,0,0,1,.42,1.65,2.69,2.69,0,0,1-1.4,1.18,1.66,1.66,0,0,0,1.37,1.28l.21-.51C169.07,372.32,168.61,372.77,168.73,372.81Z" style="opacity:0.30000000000000004"></path><path d="M162.31,372.81a28.61,28.61,0,0,1,2.76-3l-.32-.37c-1.11-1.27-2.77-1.57-4.45-2a5.4,5.4,0,0,1,1.63,1.18,1.52,1.52,0,0,1,.41,1.65,2.71,2.71,0,0,1-1.39,1.18,1.64,1.64,0,0,0,1.36,1.28l.21-.51C162.65,372.32,162.18,372.77,162.31,372.81Z" style="opacity:0.30000000000000004"></path><path d="M155.88,372.81a28.71,28.71,0,0,1,2.77-3l-.33-.37c-1.11-1.27-2.77-1.57-4.45-2a5.28,5.28,0,0,1,1.63,1.18,1.52,1.52,0,0,1,.42,1.65,2.73,2.73,0,0,1-1.4,1.18,1.65,1.65,0,0,0,1.37,1.28l.21-.51C156.22,372.32,155.76,372.77,155.88,372.81Z" style="opacity:0.30000000000000004"></path><path d="M274.73,372.81a28.71,28.71,0,0,1,2.77-3l-.33-.37c-1.11-1.27-2.77-1.57-4.45-2a5.28,5.28,0,0,1,1.63,1.18,1.52,1.52,0,0,1,.42,1.65,2.73,2.73,0,0,1-1.4,1.18,1.65,1.65,0,0,0,1.37,1.28l.21-.51C275.07,372.32,274.61,372.77,274.73,372.81Z" style="opacity:0.30000000000000004"></path><g style="opacity:0.30000000000000004"><path d="M260.14,406.31a2.33,2.33,0,0,1-2.5,1.82c-.22.12.29.45-1.26,1.26a5.36,5.36,0,0,1-2.78.68,13.87,13.87,0,0,1,6.18,2.36C259.83,410.76,260.1,408,260.14,406.31Z"></path><path d="M258,413.37a10,10,0,0,1-4.1-1.61c0,.25.15.62.18.87l-.9.3C254.67,413.13,256.47,413.16,258,413.37Z"></path><path d="M262.55,405.88a24.09,24.09,0,0,0-.88,5.62,19.54,19.54,0,0,1,2.26-5.11.84.84,0,0,1-.85.27C262.89,406.43,262.5,406.19,262.55,405.88Z"></path></g><g style="opacity:0.30000000000000004"><path d="M209.86,407.22a2.34,2.34,0,0,1-2.5,1.83c-.22.12.28.45-1.27,1.26a5.42,5.42,0,0,1-2.77.68,14,14,0,0,1,6.18,2.35C209.54,411.67,209.81,408.89,209.86,407.22Z"></path><path d="M207.7,414.28a9.72,9.72,0,0,1-4.1-1.61c0,.26.14.63.18.88l-.91.3C204.38,414.05,206.19,414.08,207.7,414.28Z"></path><path d="M212.26,406.8a24.63,24.63,0,0,0-.88,5.61,20.16,20.16,0,0,1,2.26-5.1.83.83,0,0,1-.85.27C212.61,407.35,212.22,407.11,212.26,406.8Z"></path></g><g style="opacity:0.30000000000000004"><path d="M193.42,407.51a2.34,2.34,0,0,1-2.5,1.83c-.22.12.28.45-1.27,1.26a5.43,5.43,0,0,1-2.78.68,13.78,13.78,0,0,1,6.19,2.35C193.1,412,193.37,409.18,193.42,407.51Z"></path><path d="M191.26,414.57a10,10,0,0,1-4.11-1.61c0,.25.15.63.19.88l-.91.29C187.94,414.33,189.75,414.37,191.26,414.57Z"></path><path d="M195.82,407.08a24.63,24.63,0,0,0-.88,5.62,20,20,0,0,1,2.26-5.1.84.84,0,0,1-.85.27C196.16,407.63,195.77,407.39,195.82,407.08Z"></path></g><g style="opacity:0.30000000000000004"><path d="M175.91,407.84a2.34,2.34,0,0,1-2.5,1.83c-.22.12.28.45-1.26,1.26a5.45,5.45,0,0,1-2.78.68,14,14,0,0,1,6.18,2.35C175.6,412.29,175.86,409.51,175.91,407.84Z"></path><path d="M173.75,414.9a9.72,9.72,0,0,1-4.1-1.61c0,.26.14.63.18.88l-.91.3C170.44,414.67,172.24,414.7,173.75,414.9Z"></path><path d="M178.32,407.42a24.57,24.57,0,0,0-.89,5.61,19.85,19.85,0,0,1,2.27-5.1.85.85,0,0,1-.85.27C178.66,408,178.27,407.73,178.32,407.42Z"></path></g><g style="opacity:0.30000000000000004"><path d="M159.57,408.13a2.34,2.34,0,0,1-2.5,1.83c-.22.12.28.45-1.27,1.26a5.43,5.43,0,0,1-2.78.68,14,14,0,0,1,6.19,2.35C159.25,412.58,159.52,409.8,159.57,408.13Z"></path><path d="M156.45,414.49a10,10,0,0,1-4.11-1.61c0,.25.15.62.18.88l-.9.29C153.13,414.25,154.93,414.29,156.45,414.49Z"></path><path d="M162,407.71a24.46,24.46,0,0,0-.88,5.61,20.16,20.16,0,0,1,2.26-5.1.83.83,0,0,1-.85.27C162.32,408.25,161.92,408,162,407.71Z"></path></g><g style="opacity:0.30000000000000004"><path d="M151.14,405.74a13.46,13.46,0,0,1,4.47,2c0-1.67.32-4.45.36-6.12a2.34,2.34,0,0,1-2.5,1.83c-.22.12.29.45-1.26,1.26a6.19,6.19,0,0,1-1.15.48Z"></path><path d="M153.81,408.7a9.72,9.72,0,0,1-4.1-1.61c0,.25.15.63.18.88l-.91.29C150.5,408.47,152.3,408.5,153.81,408.7Z"></path><path d="M158,402.14a24.68,24.68,0,0,0-.52,4.69,17.84,17.84,0,0,1,1.45-4.22.48.48,0,0,1-.57.2C158.26,402.61,158,402.4,158,402.14Z"></path></g><g style="opacity:0.30000000000000004"><path d="M149.67,400.19a13,13,0,0,1,3.12,1.61c0-1.67.31-4.45.36-6.12a2.34,2.34,0,0,1-2.5,1.83c-.22.12.28.45-1.27,1.26Z"></path><path d="M155.43,395.27a22.85,22.85,0,0,0-.8,5.1,18.07,18.07,0,0,1,2.06-4.63.78.78,0,0,1-.78.24C155.75,395.77,155.39,395.55,155.43,395.27Z"></path></g><g style="opacity:0.30000000000000004"><path d="M174.1,375a2.32,2.32,0,0,1-2.49,1.82c-.22.13.28.45-1.27,1.26a5.36,5.36,0,0,1-2.78.68,13.83,13.83,0,0,1,6.18,2.36C173.79,379.49,174.06,376.71,174.1,375Z"></path><path d="M172,382.1a10,10,0,0,1-4.11-1.61c0,.25.15.62.18.88l-.9.29C168.63,381.86,170.43,381.9,172,382.1Z"></path><path d="M176.51,374.61a24.63,24.63,0,0,0-.88,5.62,19.67,19.67,0,0,1,2.26-5.1.86.86,0,0,1-.85.26C176.85,375.16,176.46,374.92,176.51,374.61Z"></path></g><g style="opacity:0.30000000000000004"><path d="M191.21,375a2.34,2.34,0,0,1-2.5,1.83c-.22.12.28.45-1.27,1.26a5.42,5.42,0,0,1-2.77.68,14,14,0,0,1,6.18,2.35C190.89,379.47,191.16,376.69,191.21,375Z"></path><path d="M189.05,382.08a9.82,9.82,0,0,1-4.11-1.61c0,.26.15.63.19.88l-.91.29C185.73,381.85,187.54,381.88,189.05,382.08Z"></path><path d="M193.61,374.6a24.46,24.46,0,0,0-.88,5.61,20.16,20.16,0,0,1,2.26-5.1.83.83,0,0,1-.85.27C194,375.15,193.56,374.91,193.61,374.6Z"></path></g><path d="M215.82,373.65l-.16,0h-8.43l-3.36-1.8-3.55,1.8-3.34-1.3-7.33,1.3-4.07-1.3-2.26,1.51-4.24-.65-4.74,1-3.77-.6-5.06.6-4.64-.6-3.82.6-4.82-1.9-2.38,1.3c.05-.91.08-1.81.06-2.72-.1-4.43,3.4-5.19,4.85-4.43l47.21-.71c.2,0,18-.12,18.19-.11h0v.09c-.1.73-2.26,1.7-.31,3.9,0,0-3.05.61-2.38,1.69C218.34,372.81,217,373.45,215.82,373.65Z" style="opacity:0.2"></path><path d="M213.67,362.7A1,1,0,0,1,213,361c.73-.69.65-3.71-.35-5.12a1,1,0,0,0-.56-.45,1,1,0,0,1-.81.41,1,1,0,0,1-1-1v-.21a1,1,0,0,1,.55-.88,2.56,2.56,0,0,1,3.45,1c1.42,2,1.72,6.18.09,7.73A1,1,0,0,1,213.67,362.7Z" style="fill:#5D66A8"></path><path d="M219.16,366.7a1.11,1.11,0,0,1-.46-.11l-4.39-2.31a7.9,7.9,0,0,1-2.17-1.48,5,5,0,0,1-1-3.38,1,1,0,0,1,2,.07,3.23,3.23,0,0,0,.49,1.93,6.48,6.48,0,0,0,1.65,1.09l4.39,2.31a1,1,0,0,1-.47,1.88Z" style="fill:#5D66A8"></path><path d="M216.72,374.61a1,1,0,0,1-1-.91c-.26-2.83.61-6.8,3.95-8.67a1,1,0,0,1,1,1.74c-2.68,1.5-3.11,5-2.94,6.74a1,1,0,0,1-.9,1.09Z" style="fill:#5D66A8"></path></g><g id="freepik--Plant--inject-108"><path d="M93,379.35a3.94,3.94,0,0,1,4.2-2.09,4.15,4.15,0,0,1,3.12,3.63,3.51,3.51,0,0,1,4-.11,4,4,0,0,1,1.6,3.86,2.93,2.93,0,0,1,4.26.87,3.28,3.28,0,0,1-1.3,4.37,2.12,2.12,0,0,1-.1,4.21,2.26,2.26,0,0,1,2.09,2,2.35,2.35,0,0,1-1.57,2.48,1.92,1.92,0,0,1,.45,3,1.72,1.72,0,0,1-2.72-.86.56.56,0,0,1-.89.14.63.63,0,0,1,.17-.94,1,1,0,0,1-1.8-.46c.35,1.89-1.9,3.66-3.51,2.77a1.59,1.59,0,0,1-1,2.13,3.61,3.61,0,0,1-2.54-.49A5.76,5.76,0,0,0,95,403a7.82,7.82,0,0,0-2.23.62,6.7,6.7,0,0,1-6.79-1.79,2.9,2.9,0,0,1-4.84-.74,2,2,0,0,1-4,.23l-.06,1.24c-1.69.4-3.36-1.78-2.63-3.44a2.61,2.61,0,0,1-2.5-2.28,2.71,2.71,0,0,1,1.86-2.89,5.1,5.1,0,0,1-.1-9.66,2.42,2.42,0,0,1,2.32.32,1.48,1.48,0,0,1,0,2.2,4.69,4.69,0,0,1,2-5.26,4.16,4.16,0,0,1,5.25,1.13,2.63,2.63,0,0,1,0-2.91,2.31,2.31,0,0,1,2.62-.88,2.62,2.62,0,0,1,2.84-2.15,2.74,2.74,0,0,1,2.13,2.92,1.33,1.33,0,0,1,2.41-.45C94,379,93,379.35,93,379.35Z" style="fill:#5D66A8"></path><path d="M92.55,391.93a2.4,2.4,0,0,1,1.81-.43,1.65,1.65,0,0,1,1.31,1.23,1.28,1.28,0,0,1-.88,1.48c-.75.18-1.5-.44-2.26-.33a6.59,6.59,0,0,0-.79.24c-1.1.29-2.19-.43-3.1-1.11a3.23,3.23,0,0,1-.87-.82,1.14,1.14,0,0,1-.09-1.14,1.48,1.48,0,0,1,1.5-.48,6,6,0,0,1,3.06,1.27l-.09-.52Z" style="fill:#fff;opacity:0.5"></path><path d="M76.59,391a3.07,3.07,0,0,1,1-.51.88.88,0,0,1,.72,1.6,3,3,0,0,1-1.4.48c-.51.07-1.15.09-1.4-.36a.88.88,0,0,1,.24-1,2.7,2.7,0,0,1,1-.49Z" style="fill:#fff;opacity:0.5"></path><path d="M101.81,382.69a3.49,3.49,0,0,1,2,2.44c.07.32.06.73-.22.9a1,1,0,0,1-.69,0l-2.93-.69a4.16,4.16,0,0,1,1.32.69,1.44,1.44,0,0,1,.5,1.34,1.35,1.35,0,0,1-1.35.91,2.92,2.92,0,0,1-1.61-.64,2.06,2.06,0,0,1-1-1.5c0-.62.78-1.21,1.26-.8A11,11,0,0,1,96,383.93a3,3,0,0,1-.9-.85,1.21,1.21,0,0,1-.1-1.19c1-1.82,2.27.84,2.88,1.08C99,383.42,100.33,382.07,101.81,382.69Z" style="fill:#fff;opacity:0.5"></path><path d="M106.35,390.43a1,1,0,0,1-.25,1,.62.62,0,0,1-.94-.19,3.36,3.36,0,0,1,1.76,1c.4.55.3,1.51-.35,1.72a1.59,1.59,0,0,1-1.21-.27,21.57,21.57,0,0,1-3-2c.29.67-.41,1.43-1.13,1.49a3.43,3.43,0,0,1-2-.71c-.77-.46-1.64-1.17-1.44-2a1.48,1.48,0,0,1,1.89-.87,4.24,4.24,0,0,1,1.83,1.4c-.41-.6.17-1.49.89-1.58a2.16,2.16,0,0,1,1.83.84c-.81-.45-1-1.61.09-1.74C105,388.4,106.18,389.84,106.35,390.43Z" style="fill:#fff;opacity:0.5"></path><path d="M84.05,387.82a1.17,1.17,0,1,1,.59,2.26,1.85,1.85,0,0,1,1.24.65,1,1,0,0,1,.26.73.89.89,0,0,1-.88.66,2.55,2.55,0,0,1-1.13-.31,2.09,2.09,0,0,1,1.12.32.72.72,0,0,1,.16,1,1,1,0,0,1-.93.1,4.56,4.56,0,0,1-1.92-1.07,1.83,1.83,0,0,1-1.6.67,1.11,1.11,0,0,1-.92-1.31,1.17,1.17,0,0,1,1-.72,3.08,3.08,0,0,1,1.27.2,2.45,2.45,0,0,1-1-1.12c-.15-.49.18-1.15.7-1.11s.87.83,1.33,1.11C83.87,389.38,82.81,388.28,84.05,387.82Z" style="fill:#fff;opacity:0.5"></path><g style="opacity:0.5"><path d="M94.46,385.42a2.33,2.33,0,0,1,.84,2.11,2.47,2.47,0,0,1-1.25,2.17,2,2,0,0,1-2.57-1.56,2.82,2.82,0,0,1,1.58-2.82A1.51,1.51,0,0,1,94.46,385.42Z" style="fill:#fff"></path></g><path d="M87.09,384.47l-.28.24a1.32,1.32,0,1,1,0,1.64,2,2,0,0,1-2.31-.43,1.51,1.51,0,0,1,.32-2.19,1.23,1.23,0,0,1,1.77,1l.31-.35Z" style="fill:#fff;opacity:0.5"></path><g style="opacity:0.5"><path d="M78.94,385.79a4.08,4.08,0,0,1,1.26,1.77,1.44,1.44,0,0,1-.83,1.79c-.71.18-1.38-.41-1.78-1a2.21,2.21,0,0,1-.43-1.85c.21-.63,1.1-1,1.55-.52Z" style="fill:#fff"></path></g><path d="M90.68,381.52a1.19,1.19,0,0,1,1.66-.46,1.45,1.45,0,0,1,.51,1.72,1.84,1.84,0,0,1-1.51,1.08c-.8.09-1.74-.55-1.56-1.34a1.7,1.7,0,0,1-1.53.58,4.1,4.1,0,0,1-1.6-.6c-.67-.39-1.38-1-1.31-1.76a1.37,1.37,0,0,1,1.26-1.14,2.33,2.33,0,0,1,1.69.63c.37.31.68.7,1.08,1a1.35,1.35,0,0,0,1.37.19Z" style="fill:#fff;opacity:0.5"></path><path d="M84.61,417.34H96.88a4.36,4.36,0,0,0,4.34-3.94L102.81,397H78.68l1.59,16.39A4.36,4.36,0,0,0,84.61,417.34Z" style="fill:#263238"></path><polygon points="77.12 398.06 104.57 398.06 105.06 395.35 76.63 395.35 77.12 398.06" style="fill:#fff"></polygon></g><g id="freepik--speech-bubble--inject-108"><path d="M243.5,256.72l-2.42-.6a36.71,36.71,0,0,1-7.53-2.43l-.32-.16c-2.37-1.14-5.33-2.57-6-7.56-.08-.63-.43-1.31-1.16-1.34-22.07-1.07-39.47-13.32-38.8-27.32s19.19-24.53,41.24-23.47,39.45,13.32,38.78,27.33c-.43,8.93-8.36,17-20.68,20.91-.36.14-1,.32-1.89.55-3.07.81-8.8,2.32-10.24,5.31-.71,1.48.43,3.38,1.87,4.41a16.08,16.08,0,0,0,2.42,1.35,17.72,17.72,0,0,1,2.69,1.54Zm-18-62c-20.15,0-36.54,9.78-37.16,22.6-.65,13.45,16.33,25.23,37.84,26.27a2.32,2.32,0,0,1,2.11,2.21c.56,4.45,3.14,5.7,5.41,6.79l.32.16a24.7,24.7,0,0,0,3.35,1.3,14.91,14.91,0,0,1-1.54-.92c-1.81-1.31-3.13-3.67-2.18-5.66,1.64-3.41,7.66-5,10.89-5.85.82-.21,1.47-.39,1.8-.52,11.95-3.84,19.61-11.51,20-20,.65-13.46-16.32-25.25-37.83-26.28C227.48,194.79,226.47,194.76,225.47,194.76Z" style="fill:#5D66A8"></path><path d="M230.08,232.14l-2.83,2.08a.1.1,0,0,1-.07,0l-2.75-2.3c-8.58-7.44-18.31-15.64-10.65-22.33,5.31-4.65,11.47-.32,14.58,2.5,3.28-2.61,10.2-10,16-1C249.24,218.6,239.11,225.27,230.08,232.14Z" style="fill:#5D66A8"></path><path d="M214.2,212.5a.89.89,0,1,1-.09,0Z" style="fill:#fff;opacity:0.5"></path><path d="M217.57,222.61c-2.37-1.54,0-6.91-3-7.37C212.43,216.14,214.64,220.7,217.57,222.61Z" style="fill:#fff;opacity:0.5"></path></g></svg>