<svg width="104" height="29" viewBox="0 0 104 29" fill="none" xmlns="http://www.w3.org/2000/svg">
<path d="M28 12C28 13.9794 32.5 16 32.5 16C32.5 16 37 13.9794 37 12" stroke="#7D84B2" stroke-width="12" stroke-linecap="round"/>
<path d="M28.5398 12.048C28.5508 13.8802 32.5703 15.7265 32.5703 15.7265C32.5703 15.7265 36.5673 13.8321 36.5564 12" stroke="#DBF4A7" stroke-width="8" stroke-linecap="round"/>
<mask id="path-3-outside-1_6_2" maskUnits="userSpaceOnUse" x="9" y="4" width="87" height="19" fill="black">
<rect fill="white" x="9" y="4" width="87" height="19"/>
<path d="M22.8481 10.1309V20.3232C22.0825 20.8975 21.1016 21.1846 19.9053 21.1846C18.9824 21.1846 18.251 20.9966 17.7109 20.6206C17.1436 20.2378 16.8599 19.6841 16.8599 18.9595V16.9292H17.5879C17.8682 16.9292 18.0425 16.895 18.1108 16.8267C18.186 16.7515 18.2236 16.6318 18.2236 16.4678H15.0039C15.0039 16.6318 15.0347 16.7515 15.0962 16.8267C15.1577 16.895 15.3047 16.9292 15.5371 16.9292H16.3164V20.3232C15.79 20.665 15.291 20.894 14.8193 21.0103C14.3477 21.1265 13.8657 21.1846 13.3735 21.1846C12.4507 21.1846 11.7192 20.9966 11.1792 20.6206C10.6118 20.2378 10.3281 19.6841 10.3281 18.9595V8.75684C10.6836 8.38086 11.1211 8.09375 11.6406 7.89551C12.167 7.69043 12.7139 7.58789 13.2812 7.58789C14.1084 7.58789 14.8091 7.79297 15.3833 8.20312C16.0054 8.66797 16.3164 9.31055 16.3164 10.1309V11.9561H17.6187C17.6187 11.7783 17.5845 11.6587 17.5161 11.5972C17.4546 11.5288 17.3521 11.4946 17.2085 11.4946H16.8599V8.75684C17.2153 8.38086 17.6528 8.09375 18.1724 7.89551C18.6987 7.69043 19.2456 7.58789 19.813 7.58789C20.6401 7.58789 21.3408 7.79297 21.915 8.20312C22.5371 8.66797 22.8481 9.31055 22.8481 10.1309ZM48.2471 16.8062C48.3154 16.8745 48.3975 16.9087 48.4932 16.9087C48.6436 16.9087 48.7461 16.8027 48.8008 16.5908C48.8555 16.3721 48.8828 15.9346 48.8828 15.2783V14.2324C48.8828 14.0479 48.8589 13.918 48.811 13.8428C48.7632 13.7676 48.6846 13.73 48.5752 13.73C48.4658 13.73 48.3872 13.7539 48.3394 13.8018V15.1758C48.3394 15.5859 48.3086 16.1294 48.2471 16.8062ZM48.6572 8.4082V9.3208C48.083 9.35498 47.5566 9.44385 47.0781 9.5874C46.5996 9.72412 46.3604 9.88477 46.3604 10.0693C46.3604 10.1787 46.415 10.2676 46.5244 10.3359C47.2764 9.9668 48.0728 9.78223 48.9136 9.78223C50.4175 9.78223 51.6479 10.3018 52.605 11.3408C53.5688 12.373 54.0508 13.7197 54.0508 15.3809C54.0508 17.3906 53.4697 18.9048 52.3076 19.9233C51.248 20.853 49.8057 21.3179 47.9805 21.3179C46.1621 21.3179 44.8223 20.9658 43.9609 20.2617C43.4893 19.8721 43.2534 19.3662 43.2534 18.7441V7.04443C43.5815 6.85303 43.9746 6.6958 44.4326 6.57275C44.8975 6.44971 45.3657 6.38818 45.8374 6.38818C46.6235 6.38818 47.2729 6.54199 47.7856 6.84961C48.3667 7.21191 48.6572 7.73145 48.6572 8.4082ZM59.6289 16.8062C59.6973 16.8745 59.7793 16.9087 59.875 16.9087C60.0254 16.9087 60.1279 16.8027 60.1826 16.5908C60.2373 16.3721 60.2646 15.9346 60.2646 15.2783V14.2324C60.2646 14.0479 60.2407 13.918 60.1929 13.8428C60.145 13.7676 60.0664 13.73 59.957 13.73C59.8477 13.73 59.769 13.7539 59.7212 13.8018V15.1758C59.7212 15.5859 59.6904 16.1294 59.6289 16.8062ZM60.0391 8.4082V9.3208C59.4648 9.35498 58.9385 9.44385 58.46 9.5874C57.9814 9.72412 57.7422 9.88477 57.7422 10.0693C57.7422 10.1787 57.7969 10.2676 57.9062 10.3359C58.6582 9.9668 59.4546 9.78223 60.2954 9.78223C61.7993 9.78223 63.0298 10.3018 63.9868 11.3408C64.9507 12.373 65.4326 13.7197 65.4326 15.3809C65.4326 17.3906 64.8516 18.9048 63.6895 19.9233C62.6299 20.853 61.1875 21.3179 59.3623 21.3179C57.5439 21.3179 56.2041 20.9658 55.3428 20.2617C54.8711 19.8721 54.6353 19.3662 54.6353 18.7441V7.04443C54.9634 6.85303 55.3564 6.6958 55.8145 6.57275C56.2793 6.44971 56.7476 6.38818 57.2192 6.38818C58.0054 6.38818 58.6548 6.54199 59.1675 6.84961C59.7485 7.21191 60.0391 7.73145 60.0391 8.4082ZM71.2363 11.7715V15.832C71.2363 16.8506 71.4824 17.5137 71.9746 17.8213C71.9814 17.8555 71.9849 17.9204 71.9849 18.0161V18.2007C71.9849 19.2056 71.7114 19.9609 71.1646 20.4668C70.6587 20.9453 69.9819 21.1846 69.1343 21.1846C68.2935 21.1846 67.5996 20.9453 67.0527 20.4668C66.3623 19.8584 66.0171 18.9697 66.0171 17.8008V11.1357C66.1401 11.0469 66.2734 10.9751 66.417 10.9204C66.5605 10.8657 66.7109 10.7974 66.8682 10.7153C66.5742 10.5649 66.3076 10.3052 66.0684 9.93604C65.8291 9.56006 65.7095 9.12256 65.7095 8.62354C65.7095 7.76221 65.9932 7.05811 66.5605 6.51123C67.1279 5.96436 67.8218 5.69092 68.6421 5.69092C69.4692 5.69092 70.1597 5.97119 70.7134 6.53174C71.2739 7.08545 71.5542 7.78271 71.5542 8.62354C71.5542 9.30029 71.3423 9.89502 70.9185 10.4077C70.4946 10.9136 69.9785 11.2314 69.3701 11.3613C69.3701 11.6211 69.4692 11.751 69.6675 11.751C70.0161 11.751 70.3716 11.6143 70.7339 11.3408C71.0073 11.5527 71.1748 11.6963 71.2363 11.7715ZM78.2808 21.3179C76.3872 21.3179 74.8936 20.7915 73.7998 19.7388C72.6787 18.6792 72.1182 17.23 72.1182 15.3911C72.1182 13.5454 72.6958 12.0825 73.8511 11.0024C74.9175 9.99756 76.2676 9.49512 77.9014 9.49512C79.5352 9.49512 80.8442 9.94629 81.8286 10.8486C82.8198 11.7441 83.3154 12.8481 83.3154 14.1606C83.3154 15.3296 82.9087 16.2114 82.0952 16.8062C81.3433 17.3667 80.3179 17.647 79.019 17.647C78.0483 17.647 77.228 17.4453 76.5581 17.042C76.5034 17.083 76.4761 17.1582 76.4761 17.2676C76.4761 17.4727 76.7461 17.6606 77.2861 17.8315C77.8262 18.0161 78.438 18.1084 79.1216 18.1084C79.812 18.1084 80.4375 18.0229 80.998 17.8521C81.5654 17.6743 82.02 17.4658 82.3618 17.2266C82.5259 17.3701 82.6558 17.6367 82.7515 18.0264C82.854 18.4092 82.9053 18.7612 82.9053 19.0825C82.9053 19.397 82.8745 19.6772 82.813 19.9233C82.2798 20.3745 81.7329 20.6958 81.1724 20.8872C80.3794 21.1743 79.4155 21.3179 78.2808 21.3179ZM78.1475 14.376C78.4893 14.376 78.6602 14.2461 78.6602 13.9863C78.6602 13.7402 78.479 13.6172 78.1167 13.6172C77.7544 13.6172 77.5459 13.812 77.4912 14.2017C77.6826 14.3179 77.9014 14.376 78.1475 14.376ZM89.437 12.9609C89.2593 13.0156 89.1704 13.1216 89.1704 13.2788V13.3301C89.1704 13.3643 89.1738 13.3848 89.1807 13.3916C89.2559 13.3848 89.355 13.3813 89.478 13.3813H89.7241C90.5034 13.3813 91.2314 13.501 91.9082 13.7402C92.5918 13.9727 93.1489 14.3486 93.5796 14.8682C94.0581 15.4561 94.2974 16.1978 94.2974 17.0933C94.2974 18.4878 93.8154 19.5405 92.8516 20.2515C91.8877 20.9624 90.5991 21.3179 88.9858 21.3179C87.3726 21.3179 86.1079 21.0513 85.1919 20.5181C84.2827 19.9849 83.8281 19.2021 83.8281 18.1699C83.8281 17.7871 83.9102 17.4385 84.0742 17.124C84.2383 16.8027 84.4229 16.5771 84.6279 16.4473C85.0039 16.7617 85.5474 17.0352 86.2583 17.2676C86.9761 17.4932 87.7349 17.606 88.5347 17.606C88.856 17.606 89.0166 17.5171 89.0166 17.3394C89.0166 17.2573 89.0063 17.189 88.9858 17.1343C88.938 17.1411 88.8799 17.1445 88.8115 17.1445H88.6987C87.2495 17.1445 86.0908 16.8574 85.2227 16.2832C84.2383 15.6338 83.7461 14.7178 83.7461 13.5352C83.7461 12.3525 84.187 11.3955 85.0688 10.6641C86.0464 9.85742 87.3896 9.4541 89.0986 9.4541C89.9395 9.4541 90.7222 9.54297 91.4468 9.7207C92.1782 9.89844 92.8037 10.1343 93.3232 10.4282C93.4531 10.7085 93.5181 11.1221 93.5181 11.6689C93.5181 12.5029 93.2891 13.1421 92.8311 13.5864C92.4824 13.395 92.0552 13.2378 91.5493 13.1147C91.0503 12.9849 90.5991 12.9199 90.1958 12.9199C89.7925 12.9199 89.5396 12.9336 89.437 12.9609Z"/>
</mask>
<path d="M22.8481 10.1309V20.3232C22.0825 20.8975 21.1016 21.1846 19.9053 21.1846C18.9824 21.1846 18.251 20.9966 17.7109 20.6206C17.1436 20.2378 16.8599 19.6841 16.8599 18.9595V16.9292H17.5879C17.8682 16.9292 18.0425 16.895 18.1108 16.8267C18.186 16.7515 18.2236 16.6318 18.2236 16.4678H15.0039C15.0039 16.6318 15.0347 16.7515 15.0962 16.8267C15.1577 16.895 15.3047 16.9292 15.5371 16.9292H16.3164V20.3232C15.79 20.665 15.291 20.894 14.8193 21.0103C14.3477 21.1265 13.8657 21.1846 13.3735 21.1846C12.4507 21.1846 11.7192 20.9966 11.1792 20.6206C10.6118 20.2378 10.3281 19.6841 10.3281 18.9595V8.75684C10.6836 8.38086 11.1211 8.09375 11.6406 7.89551C12.167 7.69043 12.7139 7.58789 13.2812 7.58789C14.1084 7.58789 14.8091 7.79297 15.3833 8.20312C16.0054 8.66797 16.3164 9.31055 16.3164 10.1309V11.9561H17.6187C17.6187 11.7783 17.5845 11.6587 17.5161 11.5972C17.4546 11.5288 17.3521 11.4946 17.2085 11.4946H16.8599V8.75684C17.2153 8.38086 17.6528 8.09375 18.1724 7.89551C18.6987 7.69043 19.2456 7.58789 19.813 7.58789C20.6401 7.58789 21.3408 7.79297 21.915 8.20312C22.5371 8.66797 22.8481 9.31055 22.8481 10.1309ZM48.2471 16.8062C48.3154 16.8745 48.3975 16.9087 48.4932 16.9087C48.6436 16.9087 48.7461 16.8027 48.8008 16.5908C48.8555 16.3721 48.8828 15.9346 48.8828 15.2783V14.2324C48.8828 14.0479 48.8589 13.918 48.811 13.8428C48.7632 13.7676 48.6846 13.73 48.5752 13.73C48.4658 13.73 48.3872 13.7539 48.3394 13.8018V15.1758C48.3394 15.5859 48.3086 16.1294 48.2471 16.8062ZM48.6572 8.4082V9.3208C48.083 9.35498 47.5566 9.44385 47.0781 9.5874C46.5996 9.72412 46.3604 9.88477 46.3604 10.0693C46.3604 10.1787 46.415 10.2676 46.5244 10.3359C47.2764 9.9668 48.0728 9.78223 48.9136 9.78223C50.4175 9.78223 51.6479 10.3018 52.605 11.3408C53.5688 12.373 54.0508 13.7197 54.0508 15.3809C54.0508 17.3906 53.4697 18.9048 52.3076 19.9233C51.248 20.853 49.8057 21.3179 47.9805 21.3179C46.1621 21.3179 44.8223 20.9658 43.9609 20.2617C43.4893 19.8721 43.2534 19.3662 43.2534 18.7441V7.04443C43.5815 6.85303 43.9746 6.6958 44.4326 6.57275C44.8975 6.44971 45.3657 6.38818 45.8374 6.38818C46.6235 6.38818 47.2729 6.54199 47.7856 6.84961C48.3667 7.21191 48.6572 7.73145 48.6572 8.4082ZM59.6289 16.8062C59.6973 16.8745 59.7793 16.9087 59.875 16.9087C60.0254 16.9087 60.1279 16.8027 60.1826 16.5908C60.2373 16.3721 60.2646 15.9346 60.2646 15.2783V14.2324C60.2646 14.0479 60.2407 13.918 60.1929 13.8428C60.145 13.7676 60.0664 13.73 59.957 13.73C59.8477 13.73 59.769 13.7539 59.7212 13.8018V15.1758C59.7212 15.5859 59.6904 16.1294 59.6289 16.8062ZM60.0391 8.4082V9.3208C59.4648 9.35498 58.9385 9.44385 58.46 9.5874C57.9814 9.72412 57.7422 9.88477 57.7422 10.0693C57.7422 10.1787 57.7969 10.2676 57.9062 10.3359C58.6582 9.9668 59.4546 9.78223 60.2954 9.78223C61.7993 9.78223 63.0298 10.3018 63.9868 11.3408C64.9507 12.373 65.4326 13.7197 65.4326 15.3809C65.4326 17.3906 64.8516 18.9048 63.6895 19.9233C62.6299 20.853 61.1875 21.3179 59.3623 21.3179C57.5439 21.3179 56.2041 20.9658 55.3428 20.2617C54.8711 19.8721 54.6353 19.3662 54.6353 18.7441V7.04443C54.9634 6.85303 55.3564 6.6958 55.8145 6.57275C56.2793 6.44971 56.7476 6.38818 57.2192 6.38818C58.0054 6.38818 58.6548 6.54199 59.1675 6.84961C59.7485 7.21191 60.0391 7.73145 60.0391 8.4082ZM71.2363 11.7715V15.832C71.2363 16.8506 71.4824 17.5137 71.9746 17.8213C71.9814 17.8555 71.9849 17.9204 71.9849 18.0161V18.2007C71.9849 19.2056 71.7114 19.9609 71.1646 20.4668C70.6587 20.9453 69.9819 21.1846 69.1343 21.1846C68.2935 21.1846 67.5996 20.9453 67.0527 20.4668C66.3623 19.8584 66.0171 18.9697 66.0171 17.8008V11.1357C66.1401 11.0469 66.2734 10.9751 66.417 10.9204C66.5605 10.8657 66.7109 10.7974 66.8682 10.7153C66.5742 10.5649 66.3076 10.3052 66.0684 9.93604C65.8291 9.56006 65.7095 9.12256 65.7095 8.62354C65.7095 7.76221 65.9932 7.05811 66.5605 6.51123C67.1279 5.96436 67.8218 5.69092 68.6421 5.69092C69.4692 5.69092 70.1597 5.97119 70.7134 6.53174C71.2739 7.08545 71.5542 7.78271 71.5542 8.62354C71.5542 9.30029 71.3423 9.89502 70.9185 10.4077C70.4946 10.9136 69.9785 11.2314 69.3701 11.3613C69.3701 11.6211 69.4692 11.751 69.6675 11.751C70.0161 11.751 70.3716 11.6143 70.7339 11.3408C71.0073 11.5527 71.1748 11.6963 71.2363 11.7715ZM78.2808 21.3179C76.3872 21.3179 74.8936 20.7915 73.7998 19.7388C72.6787 18.6792 72.1182 17.23 72.1182 15.3911C72.1182 13.5454 72.6958 12.0825 73.8511 11.0024C74.9175 9.99756 76.2676 9.49512 77.9014 9.49512C79.5352 9.49512 80.8442 9.94629 81.8286 10.8486C82.8198 11.7441 83.3154 12.8481 83.3154 14.1606C83.3154 15.3296 82.9087 16.2114 82.0952 16.8062C81.3433 17.3667 80.3179 17.647 79.019 17.647C78.0483 17.647 77.228 17.4453 76.5581 17.042C76.5034 17.083 76.4761 17.1582 76.4761 17.2676C76.4761 17.4727 76.7461 17.6606 77.2861 17.8315C77.8262 18.0161 78.438 18.1084 79.1216 18.1084C79.812 18.1084 80.4375 18.0229 80.998 17.8521C81.5654 17.6743 82.02 17.4658 82.3618 17.2266C82.5259 17.3701 82.6558 17.6367 82.7515 18.0264C82.854 18.4092 82.9053 18.7612 82.9053 19.0825C82.9053 19.397 82.8745 19.6772 82.813 19.9233C82.2798 20.3745 81.7329 20.6958 81.1724 20.8872C80.3794 21.1743 79.4155 21.3179 78.2808 21.3179ZM78.1475 14.376C78.4893 14.376 78.6602 14.2461 78.6602 13.9863C78.6602 13.7402 78.479 13.6172 78.1167 13.6172C77.7544 13.6172 77.5459 13.812 77.4912 14.2017C77.6826 14.3179 77.9014 14.376 78.1475 14.376ZM89.437 12.9609C89.2593 13.0156 89.1704 13.1216 89.1704 13.2788V13.3301C89.1704 13.3643 89.1738 13.3848 89.1807 13.3916C89.2559 13.3848 89.355 13.3813 89.478 13.3813H89.7241C90.5034 13.3813 91.2314 13.501 91.9082 13.7402C92.5918 13.9727 93.1489 14.3486 93.5796 14.8682C94.0581 15.4561 94.2974 16.1978 94.2974 17.0933C94.2974 18.4878 93.8154 19.5405 92.8516 20.2515C91.8877 20.9624 90.5991 21.3179 88.9858 21.3179C87.3726 21.3179 86.1079 21.0513 85.1919 20.5181C84.2827 19.9849 83.8281 19.2021 83.8281 18.1699C83.8281 17.7871 83.9102 17.4385 84.0742 17.124C84.2383 16.8027 84.4229 16.5771 84.6279 16.4473C85.0039 16.7617 85.5474 17.0352 86.2583 17.2676C86.9761 17.4932 87.7349 17.606 88.5347 17.606C88.856 17.606 89.0166 17.5171 89.0166 17.3394C89.0166 17.2573 89.0063 17.189 88.9858 17.1343C88.938 17.1411 88.8799 17.1445 88.8115 17.1445H88.6987C87.2495 17.1445 86.0908 16.8574 85.2227 16.2832C84.2383 15.6338 83.7461 14.7178 83.7461 13.5352C83.7461 12.3525 84.187 11.3955 85.0688 10.6641C86.0464 9.85742 87.3896 9.4541 89.0986 9.4541C89.9395 9.4541 90.7222 9.54297 91.4468 9.7207C92.1782 9.89844 92.8037 10.1343 93.3232 10.4282C93.4531 10.7085 93.5181 11.1221 93.5181 11.6689C93.5181 12.5029 93.2891 13.1421 92.8311 13.5864C92.4824 13.395 92.0552 13.2378 91.5493 13.1147C91.0503 12.9849 90.5991 12.9199 90.1958 12.9199C89.7925 12.9199 89.5396 12.9336 89.437 12.9609Z" fill="#D9DBF1"/>
<path d="M22.8481 20.3232L23.4481 21.1232L23.8481 20.8232V20.3232H22.8481ZM17.7109 20.6206L18.2823 19.7999L18.2763 19.7957L18.2702 19.7916L17.7109 20.6206ZM16.8599 16.9292V15.9292H15.8599V16.9292H16.8599ZM18.2236 16.4678H19.2236V15.4678H18.2236V16.4678ZM15.0039 16.4678V15.4678H14.0039V16.4678H15.0039ZM15.0962 16.8267L14.3222 17.4599L14.3371 17.4781L14.3529 17.4956L15.0962 16.8267ZM16.3164 16.9292H17.3164V15.9292H16.3164V16.9292ZM16.3164 20.3232L16.861 21.1619L17.3164 20.8662V20.3232H16.3164ZM11.1792 20.6206L11.7506 19.7999L11.7446 19.7957L11.7385 19.7916L11.1792 20.6206ZM10.3281 8.75684L9.60148 8.06982L9.32812 8.35895V8.75684H10.3281ZM11.6406 7.89551L11.9971 8.82982L12.0037 8.82729L11.6406 7.89551ZM15.3833 8.20312L15.9819 7.40207L15.9733 7.39564L15.9645 7.38939L15.3833 8.20312ZM16.3164 11.9561H15.3164V12.9561H16.3164V11.9561ZM17.6187 11.9561V12.9561H18.6187V11.9561H17.6187ZM17.5161 11.5972L16.7728 12.2661L16.808 12.3053L16.8471 12.3405L17.5161 11.5972ZM16.8599 11.4946H15.8599V12.4946H16.8599V11.4946ZM16.8599 8.75684L16.1332 8.06982L15.8599 8.35895V8.75684H16.8599ZM18.1724 7.89551L18.5289 8.82982L18.5354 8.82729L18.1724 7.89551ZM21.915 8.20312L22.5136 7.40207L22.505 7.39564L22.4963 7.38939L21.915 8.20312ZM21.8481 10.1309V20.3232H23.8481V10.1309H21.8481ZM22.2481 19.5232C21.6949 19.9382 20.9401 20.1846 19.9053 20.1846V22.1846C21.263 22.1846 22.4701 21.8568 23.4481 21.1232L22.2481 19.5232ZM19.9053 20.1846C19.1072 20.1846 18.5995 20.0207 18.2823 19.7999L17.1396 21.4413C17.9024 21.9724 18.8576 22.1846 19.9053 22.1846V20.1846ZM18.2702 19.7916C17.9971 19.6073 17.8599 19.3749 17.8599 18.9595H15.8599C15.8599 19.9933 16.29 20.8682 17.1516 21.4496L18.2702 19.7916ZM17.8599 18.9595V16.9292H15.8599V18.9595H17.8599ZM16.8599 17.9292H17.5879V15.9292H16.8599V17.9292ZM17.5879 17.9292C17.7602 17.9292 17.9453 17.9194 18.1212 17.8849C18.2628 17.8571 18.5679 17.7838 18.8179 17.5338L17.4037 16.1196C17.5044 16.0189 17.6024 15.9707 17.6505 15.9504C17.7011 15.929 17.7342 15.9227 17.7364 15.9223C17.738 15.9219 17.6959 15.9292 17.5879 15.9292V17.9292ZM18.8179 17.5338C19.161 17.1907 19.2236 16.7564 19.2236 16.4678H17.2236C17.2236 16.5073 17.2111 16.3122 17.4037 16.1196L18.8179 17.5338ZM18.2236 15.4678H15.0039V17.4678H18.2236V15.4678ZM14.0039 16.4678C14.0039 16.7173 14.0433 17.119 14.3222 17.4599L15.8701 16.1934C15.9528 16.2944 15.9842 16.3875 15.9955 16.4315C16.0066 16.4746 16.0039 16.4915 16.0039 16.4678H14.0039ZM14.3529 17.4956C14.5832 17.7515 14.8693 17.8411 15.026 17.8776C15.2023 17.9186 15.3809 17.9292 15.5371 17.9292V15.9292C15.4609 15.9292 15.4498 15.9227 15.4791 15.9296C15.4959 15.9335 15.5405 15.9451 15.5997 15.9742C15.659 16.0033 15.7505 16.0588 15.8395 16.1577L14.3529 17.4956ZM15.5371 17.9292H16.3164V15.9292H15.5371V17.9292ZM15.3164 16.9292V20.3232H17.3164V16.9292H15.3164ZM15.7718 19.4845C15.3132 19.7823 14.9169 19.9563 14.5801 20.0393L15.0586 21.9812C15.6651 21.8318 16.2669 21.5477 16.861 21.1619L15.7718 19.4845ZM14.5801 20.0393C14.1877 20.136 13.7862 20.1846 13.3735 20.1846V22.1846C13.9453 22.1846 14.5076 22.117 15.0586 21.9812L14.5801 20.0393ZM13.3735 20.1846C12.5755 20.1846 12.0678 20.0207 11.7506 19.7999L10.6078 21.4413C11.3707 21.9724 12.3259 22.1846 13.3735 22.1846V20.1846ZM11.7385 19.7916C11.4654 19.6073 11.3281 19.3749 11.3281 18.9595H9.32812C9.32812 19.9933 9.75828 20.8682 10.6199 21.4496L11.7385 19.7916ZM11.3281 18.9595V8.75684H9.32812V18.9595H11.3281ZM11.0548 9.44385C11.2994 9.18508 11.6073 8.97855 11.9971 8.8298L11.2841 6.96121C10.6349 7.20895 10.0678 7.57664 9.60148 8.06982L11.0548 9.44385ZM12.0037 8.82729C12.4138 8.6675 12.8375 8.58789 13.2812 8.58789V6.58789C12.5902 6.58789 11.9202 6.71336 11.2776 6.96373L12.0037 8.82729ZM13.2812 8.58789C13.9369 8.58789 14.4252 8.74769 14.8021 9.01686L15.9645 7.38939C15.1929 6.83825 14.2799 6.58789 13.2812 6.58789V8.58789ZM14.7847 9.00418C15.138 9.26816 15.3164 9.60517 15.3164 10.1309H17.3164C17.3164 9.01592 16.8728 8.06778 15.9819 7.40207L14.7847 9.00418ZM15.3164 10.1309V11.9561H17.3164V10.1309H15.3164ZM16.3164 12.9561H17.6187V10.9561H16.3164V12.9561ZM18.6187 11.9561C18.6187 11.7319 18.5922 11.2203 18.1851 10.8539L16.8471 12.3405C16.7007 12.2086 16.6484 12.0668 16.6315 12.0078C16.6147 11.9491 16.6187 11.9239 16.6187 11.9561H18.6187ZM18.2594 10.9282C17.9238 10.5553 17.4783 10.4946 17.2085 10.4946V12.4946C17.2059 12.4946 17.1548 12.4949 17.0768 12.4689C16.9929 12.441 16.8766 12.3815 16.7728 12.2661L18.2594 10.9282ZM17.2085 10.4946H16.8599V12.4946H17.2085V10.4946ZM17.8599 11.4946V8.75684H15.8599V11.4946H17.8599ZM17.5865 9.44385C17.8312 9.18508 18.139 8.97855 18.5289 8.8298L17.8159 6.96121C17.1666 7.20895 16.5995 7.57664 16.1332 8.06982L17.5865 9.44385ZM18.5354 8.82729C18.9455 8.6675 19.3692 8.58789 19.813 8.58789V6.58789C19.122 6.58789 18.4519 6.71336 17.8093 6.96373L18.5354 8.82729ZM19.813 8.58789C20.4687 8.58789 20.957 8.74769 21.3338 9.01686L22.4963 7.38939C21.7247 6.83825 20.8116 6.58789 19.813 6.58789V8.58789ZM21.3164 9.00418C21.6697 9.26816 21.8481 9.60517 21.8481 10.1309H23.8481C23.8481 9.01592 23.4045 8.06778 22.5136 7.40207L21.3164 9.00418ZM48.2471 16.8062L47.2512 16.7156L47.2088 17.1821L47.54 17.5133L48.2471 16.8062ZM48.8008 16.5908L49.7691 16.8407L49.7709 16.8334L48.8008 16.5908ZM48.3394 13.8018L47.6322 13.0947L47.3394 13.3875V13.8018H48.3394ZM48.6572 9.3208L48.7166 10.319L49.6572 10.263V9.3208H48.6572ZM47.0781 9.5874L47.3529 10.549L47.3655 10.5452L47.0781 9.5874ZM46.5244 10.3359L45.9944 11.1839L46.4659 11.4786L46.9651 11.2336L46.5244 10.3359ZM52.605 11.3408L51.8694 12.0183L51.8741 12.0233L52.605 11.3408ZM52.3076 19.9233L51.6485 19.1713L51.6481 19.1717L52.3076 19.9233ZM43.9609 20.2617L43.324 21.0327L43.328 21.0359L43.9609 20.2617ZM43.2534 7.04443L42.7495 6.18065L42.2534 6.47006V7.04443H43.2534ZM44.4326 6.57275L44.1767 5.60604L44.1732 5.607L44.4326 6.57275ZM47.7856 6.84961L48.3147 6.00105L48.3075 5.99652L48.3001 5.99212L47.7856 6.84961ZM47.54 17.5133C47.7937 17.767 48.1292 17.9087 48.4932 17.9087V15.9087C48.5671 15.9087 48.6545 15.9225 48.7445 15.96C48.8343 15.9974 48.9042 16.049 48.9542 16.099L47.54 17.5133ZM48.4932 17.9087C48.8332 17.9087 49.1576 17.7766 49.4015 17.5246C49.6176 17.3013 49.7179 17.0389 49.7691 16.8407L47.8325 16.3409C47.8325 16.3408 47.8338 16.3359 47.837 16.3271C47.8401 16.3183 47.8456 16.3043 47.8544 16.2865C47.8717 16.2517 47.9051 16.1949 47.9643 16.1338C48.0257 16.0704 48.1081 16.0094 48.2106 15.9665C48.3127 15.9237 48.411 15.9087 48.4932 15.9087V17.9087ZM49.7709 16.8334C49.8602 16.4761 49.8828 15.916 49.8828 15.2783H47.8828C47.8828 15.5948 47.8762 15.8457 47.8643 16.0363C47.8583 16.1312 47.8514 16.2055 47.8444 16.2617C47.8409 16.2895 47.8377 16.3107 47.835 16.3262C47.8322 16.3419 47.8305 16.3487 47.8306 16.3483L49.7709 16.8334ZM49.8828 15.2783V14.2324H47.8828V15.2783H49.8828ZM49.8828 14.2324C49.8828 14.0224 49.8669 13.6393 49.6547 13.3059L47.9674 14.3796C47.9303 14.3214 47.9097 14.2714 47.8986 14.2398C47.8874 14.2077 47.8829 14.1856 47.8814 14.1777C47.879 14.1646 47.8828 14.1789 47.8828 14.2324H49.8828ZM49.6547 13.3059C49.38 12.8742 48.9371 12.73 48.5752 12.73V14.73C48.5176 14.73 48.41 14.7202 48.2847 14.6603C48.1511 14.5964 48.0415 14.4962 47.9674 14.3796L49.6547 13.3059ZM48.5752 12.73C48.3572 12.73 47.9551 12.7718 47.6322 13.0947L49.0465 14.5089C48.932 14.6234 48.8097 14.6789 48.7254 14.7046C48.645 14.7291 48.5887 14.73 48.5752 14.73V12.73ZM47.3394 13.8018V15.1758H49.3394V13.8018H47.3394ZM47.3394 15.1758C47.3394 15.5426 47.3115 16.0522 47.2512 16.7156L49.243 16.8967C49.3057 16.2066 49.3394 15.6293 49.3394 15.1758H47.3394ZM47.6572 8.4082V9.3208H49.6572V8.4082H47.6572ZM48.5978 8.32257C47.9577 8.36067 47.3536 8.46072 46.7908 8.62958L47.3655 10.5452C47.7597 10.427 48.2083 10.3493 48.7166 10.319L48.5978 8.32257ZM46.8034 8.62588C46.5254 8.7053 46.2296 8.8142 45.9824 8.9802C45.7476 9.13784 45.3604 9.48767 45.3604 10.0693H47.3604C47.3604 10.254 47.2966 10.4047 47.2271 10.505C47.1648 10.5949 47.1051 10.6354 47.0972 10.6406C47.0869 10.6476 47.0987 10.6382 47.1468 10.6183C47.1931 10.5991 47.2603 10.5754 47.3528 10.5489L46.8034 8.62588ZM45.3604 10.0693C45.3604 10.5901 45.6539 10.9711 45.9944 11.1839L47.0544 9.48794C47.1002 9.51658 47.1827 9.5797 47.253 9.69392C47.3275 9.81486 47.3604 9.9483 47.3604 10.0693H45.3604ZM46.9651 11.2336C47.5794 10.9321 48.2249 10.7822 48.9136 10.7822V8.78223C47.9206 8.78223 46.9734 9.00154 46.0837 9.43827L46.9651 11.2336ZM48.9136 10.7822C50.1583 10.7822 51.1151 11.1993 51.8694 12.0183L53.3405 10.6633C52.1808 9.40425 50.6767 8.78223 48.9136 8.78223V10.7822ZM51.8741 12.0233C52.6351 12.8383 53.0508 13.9255 53.0508 15.3809H55.0508C55.0508 13.5139 54.5026 11.9078 53.3359 10.6583L51.8741 12.0233ZM53.0508 15.3809C53.0508 17.1947 52.5331 18.396 51.6485 19.1713L52.9667 20.6754C54.4063 19.4136 55.0508 17.5865 55.0508 15.3809H53.0508ZM51.6481 19.1717C50.8194 19.8988 49.6362 20.3179 47.9805 20.3179V22.3179C49.9751 22.3179 51.6767 21.8073 52.9672 20.675L51.6481 19.1717ZM47.9805 20.3179C46.2571 20.3179 45.194 19.9781 44.5938 19.4875L43.328 21.0359C44.4505 21.9535 46.0672 22.3179 47.9805 22.3179V20.3179ZM44.5978 19.4908C44.3605 19.2947 44.2534 19.0737 44.2534 18.7441H42.2534C42.2534 19.6587 42.618 20.4494 43.3241 21.0327L44.5978 19.4908ZM44.2534 18.7441V7.04443H42.2534V18.7441H44.2534ZM43.7573 7.90821C43.9926 7.77094 44.2995 7.64399 44.6921 7.53851L44.1732 5.607C43.6498 5.74762 43.1705 5.93512 42.7495 6.18065L43.7573 7.90821ZM44.6885 7.53946C45.0715 7.43808 45.4538 7.38818 45.8374 7.38818V5.38818C45.2777 5.38818 44.7234 5.46133 44.1767 5.60605L44.6885 7.53946ZM45.8374 7.38818C46.4979 7.38818 46.9555 7.51771 47.2711 7.7071L48.3001 5.99212C47.5904 5.56628 46.7492 5.38818 45.8374 5.38818V7.38818ZM47.2565 7.69817C47.5489 7.88048 47.6572 8.08157 47.6572 8.4082H49.6572C49.6572 7.38132 49.1845 6.54335 48.3147 6.00105L47.2565 7.69817ZM59.6289 16.8062L58.633 16.7156L58.5906 17.1821L58.9218 17.5133L59.6289 16.8062ZM60.1826 16.5908L61.1509 16.8407L61.1528 16.8334L60.1826 16.5908ZM59.7212 13.8018L59.0141 13.0947L58.7212 13.3875V13.8018H59.7212ZM60.0391 9.3208L60.0985 10.319L61.0391 10.263V9.3208H60.0391ZM58.46 9.5874L58.7347 10.549L58.7473 10.5452L58.46 9.5874ZM57.9062 10.3359L57.3763 11.1839L57.8478 11.4786L58.3469 11.2336L57.9062 10.3359ZM63.9868 11.3408L63.2513 12.0183L63.2559 12.0233L63.9868 11.3408ZM63.6895 19.9233L63.0303 19.1713L63.0299 19.1717L63.6895 19.9233ZM55.3428 20.2617L54.7059 21.0327L54.7099 21.0359L55.3428 20.2617ZM54.6353 7.04443L54.1314 6.18065L53.6353 6.47006V7.04443H54.6353ZM55.8145 6.57275L55.5586 5.60604L55.555 5.607L55.8145 6.57275ZM59.1675 6.84961L59.6966 6.00105L59.6893 5.99652L59.682 5.99212L59.1675 6.84961ZM58.9218 17.5133C59.1756 17.767 59.5111 17.9087 59.875 17.9087V15.9087C59.9489 15.9087 60.0363 15.9225 60.1263 15.96C60.2161 15.9974 60.286 16.049 60.336 16.099L58.9218 17.5133ZM59.875 17.9087C60.215 17.9087 60.5394 17.7766 60.7833 17.5246C60.9995 17.3013 61.0997 17.0389 61.1509 16.8407L59.2143 16.3409C59.2144 16.3408 59.2156 16.3359 59.2188 16.3271C59.222 16.3183 59.2275 16.3043 59.2363 16.2865C59.2535 16.2517 59.287 16.1949 59.3461 16.1338C59.4075 16.0704 59.4899 16.0094 59.5924 15.9665C59.6946 15.9237 59.7928 15.9087 59.875 15.9087V17.9087ZM61.1528 16.8334C61.2421 16.4761 61.2646 15.916 61.2646 15.2783H59.2646C59.2646 15.5948 59.258 15.8457 59.2461 16.0363C59.2402 16.1312 59.2333 16.2055 59.2262 16.2617C59.2228 16.2895 59.2195 16.3107 59.2168 16.3262C59.2141 16.3419 59.2124 16.3487 59.2125 16.3483L61.1528 16.8334ZM61.2646 15.2783V14.2324H59.2646V15.2783H61.2646ZM61.2646 14.2324C61.2646 14.0224 61.2487 13.6393 61.0365 13.3059L59.3492 14.3796C59.3121 14.3214 59.2915 14.2714 59.2804 14.2398C59.2692 14.2077 59.2647 14.1856 59.2633 14.1777C59.2608 14.1646 59.2646 14.1789 59.2646 14.2324H61.2646ZM61.0365 13.3059C60.7618 12.8742 60.319 12.73 59.957 12.73V14.73C59.8995 14.73 59.7918 14.7202 59.6666 14.6603C59.533 14.5964 59.4234 14.4962 59.3492 14.3796L61.0365 13.3059ZM59.957 12.73C59.739 12.73 59.3369 12.7718 59.0141 13.0947L60.4283 14.5089C60.3138 14.6234 60.1916 14.6789 60.1072 14.7046C60.0268 14.7291 59.9705 14.73 59.957 14.73V12.73ZM58.7212 13.8018V15.1758H60.7212V13.8018H58.7212ZM58.7212 15.1758C58.7212 15.5426 58.6933 16.0522 58.633 16.7156L60.6248 16.8967C60.6875 16.2066 60.7212 15.6293 60.7212 15.1758H58.7212ZM59.0391 8.4082V9.3208H61.0391V8.4082H59.0391ZM59.9796 8.32257C59.3395 8.36067 58.7355 8.46072 58.1726 8.62958L58.7473 10.5452C59.1415 10.427 59.5902 10.3493 60.0985 10.319L59.9796 8.32257ZM58.1852 8.62588C57.9073 8.7053 57.6114 8.8142 57.3642 8.9802C57.1294 9.13784 56.7422 9.48767 56.7422 10.0693H58.7422C58.7422 10.254 58.6785 10.4047 58.6089 10.505C58.5466 10.5949 58.4869 10.6354 58.4791 10.6406C58.4687 10.6476 58.4805 10.6382 58.5287 10.6183C58.575 10.5991 58.6421 10.5754 58.7347 10.5489L58.1852 8.62588ZM56.7422 10.0693C56.7422 10.5901 57.0358 10.9711 57.3763 11.1839L58.4362 9.48794C58.4821 9.51658 58.5646 9.5797 58.6349 9.69392C58.7093 9.81486 58.7422 9.9483 58.7422 10.0693H56.7422ZM58.3469 11.2336C58.9612 10.9321 59.6068 10.7822 60.2954 10.7822V8.78223C59.3024 8.78223 58.3552 9.00154 57.4656 9.43827L58.3469 11.2336ZM60.2954 10.7822C61.5401 10.7822 62.4969 11.1993 63.2513 12.0183L64.7224 10.6633C63.5627 9.40425 62.0585 8.78223 60.2954 8.78223V10.7822ZM63.2559 12.0233C64.0169 12.8383 64.4326 13.9255 64.4326 15.3809H66.4326C66.4326 13.5139 65.8845 11.9078 64.7177 10.6583L63.2559 12.0233ZM64.4326 15.3809C64.4326 17.1947 63.915 18.396 63.0303 19.1713L64.3486 20.6754C65.7882 19.4136 66.4326 17.5865 66.4326 15.3809H64.4326ZM63.0299 19.1717C62.2012 19.8988 61.0181 20.3179 59.3623 20.3179V22.3179C61.3569 22.3179 63.0586 21.8073 64.349 20.675L63.0299 19.1717ZM59.3623 20.3179C57.6389 20.3179 56.5759 19.9781 55.9757 19.4875L54.7099 21.0359C55.8323 21.9535 57.449 22.3179 59.3623 22.3179V20.3179ZM55.9797 19.4908C55.7424 19.2947 55.6353 19.0737 55.6353 18.7441H53.6353C53.6353 19.6587 53.9998 20.4494 54.7059 21.0327L55.9797 19.4908ZM55.6353 18.7441V7.04443H53.6353V18.7441H55.6353ZM55.1391 7.90821C55.3745 7.77094 55.6813 7.64399 56.0739 7.53851L55.555 5.607C55.0316 5.74762 54.5523 5.93512 54.1314 6.18065L55.1391 7.90821ZM56.0703 7.53946C56.4533 7.43808 56.8356 7.38818 57.2192 7.38818V5.38818C56.6595 5.38818 56.1053 5.46133 55.5586 5.60605L56.0703 7.53946ZM57.2192 7.38818C57.8797 7.38818 58.3373 7.51771 58.653 7.7071L59.682 5.99212C58.9722 5.56628 58.131 5.38818 57.2192 5.38818V7.38818ZM58.6384 7.69817C58.9308 7.88048 59.0391 8.08157 59.0391 8.4082H61.0391C61.0391 7.38132 60.5663 6.54335 59.6966 6.00105L58.6384 7.69817ZM71.2363 11.7715H72.2363V11.4145L72.0103 11.1382L71.2363 11.7715ZM71.9746 17.8213L72.9552 17.6252L72.8706 17.202L72.5046 16.9733L71.9746 17.8213ZM71.1646 20.4668L70.4855 19.7327L70.4774 19.7403L71.1646 20.4668ZM67.0527 20.4668L66.3916 21.2171L66.3942 21.2194L67.0527 20.4668ZM66.0171 11.1357L65.4316 10.3251L65.0171 10.6244V11.1357H66.0171ZM66.8682 10.7153L67.3307 11.6019L69.0467 10.7066L67.3236 9.82508L66.8682 10.7153ZM66.0684 9.93604L65.2247 10.4729L65.2292 10.4799L66.0684 9.93604ZM70.7134 6.53174L70.0019 7.23455L70.0106 7.24317L70.7134 6.53174ZM70.9185 10.4077L71.685 11.0499L71.6892 11.0449L70.9185 10.4077ZM69.3701 11.3613L69.1613 10.3834L68.3701 10.5523V11.3613H69.3701ZM70.7339 11.3408L71.3465 10.5504L70.7419 10.0819L70.1315 10.5426L70.7339 11.3408ZM70.2363 11.7715V15.832H72.2363V11.7715H70.2363ZM70.2363 15.832C70.2363 16.9353 70.4924 18.0741 71.4446 18.6693L72.5046 16.9733C72.4725 16.9532 72.2363 16.7659 72.2363 15.832H70.2363ZM70.994 18.0174C70.9906 18.0002 70.9884 17.9863 70.9871 17.977C70.9857 17.9674 70.9849 17.9601 70.9844 17.9556C70.9839 17.951 70.9837 17.9481 70.9836 17.9471C70.9836 17.9461 70.9836 17.9464 70.9837 17.9482C70.9839 17.9519 70.9842 17.9594 70.9844 17.9714C70.9847 17.9832 70.9849 17.998 70.9849 18.0161H72.9849C72.9849 17.9307 72.9842 17.7704 72.9552 17.6252L70.994 18.0174ZM70.9849 18.0161V18.2007H72.9849V18.0161H70.9849ZM70.9849 18.2007C70.9849 19.0281 70.7637 19.4754 70.4855 19.7327L71.8436 21.2009C72.6592 20.4465 72.9849 19.383 72.9849 18.2007H70.9849ZM70.4774 19.7403C70.1958 20.0066 69.785 20.1846 69.1343 20.1846V22.1846C70.1789 22.1846 71.1216 21.884 71.8518 21.1933L70.4774 19.7403ZM69.1343 20.1846C68.4953 20.1846 68.0476 20.0085 67.7112 19.7142L66.3942 21.2194C67.1516 21.8821 68.0916 22.1846 69.1343 22.1846V20.1846ZM67.7139 19.7165C67.2943 19.3468 67.0171 18.7658 67.0171 17.8008H65.0171C65.0171 19.1736 65.4303 20.37 66.3916 21.2171L67.7139 19.7165ZM67.0171 17.8008V11.1357H65.0171V17.8008H67.0171ZM66.6026 11.9464C66.654 11.9093 66.71 11.8789 66.773 11.8549L66.061 9.98592C65.8369 10.0713 65.6263 10.1845 65.4316 10.3251L66.6026 11.9464ZM66.773 11.8549C66.958 11.7844 67.1441 11.6993 67.3307 11.6019L66.4056 9.82875C66.2778 9.89543 66.1631 9.94703 66.061 9.98592L66.773 11.8549ZM67.3236 9.82508C67.2292 9.77676 67.0821 9.66146 66.9075 9.39214L65.2292 10.4799C65.5332 10.9489 65.9192 11.3531 66.4127 11.6056L67.3236 9.82508ZM66.912 9.39916C66.7868 9.20236 66.7095 8.95587 66.7095 8.62354H64.7095C64.7095 9.28925 64.8714 9.91775 65.2247 10.4729L66.912 9.39916ZM66.7095 8.62354C66.7095 8.00584 66.902 7.57106 67.2545 7.23123L65.8666 5.79123C65.0844 6.54515 64.7095 7.51858 64.7095 8.62354H66.7095ZM67.2545 7.23123C67.6272 6.87199 68.0689 6.69092 68.6421 6.69092V4.69092C67.5747 4.69092 66.6286 5.05673 65.8666 5.79123L67.2545 7.23123ZM68.6421 6.69092C69.2167 6.69092 69.6463 6.87445 70.0019 7.23449L71.4248 5.82898C70.673 5.06793 69.7217 4.69092 68.6421 4.69092V6.69092ZM70.0106 7.24317C70.3672 7.59545 70.5542 8.03013 70.5542 8.62354H72.5542C72.5542 7.5353 72.1806 6.57545 71.4161 5.82031L70.0106 7.24317ZM70.5542 8.62354C70.5542 9.07212 70.4206 9.4405 70.1477 9.77057L71.6892 11.0449C72.264 10.3495 72.5542 9.52846 72.5542 8.62354H70.5542ZM70.1519 9.76549C69.862 10.1115 69.5378 10.303 69.1613 10.3834L69.5789 12.3393C70.4193 12.1599 71.1272 11.7156 71.685 11.0499L70.1519 9.76549ZM68.3701 11.3613C68.3701 11.5901 68.4089 11.9449 68.6495 12.2602C68.9292 12.6267 69.3308 12.751 69.6675 12.751V10.751C69.7259 10.751 69.8239 10.7605 69.9377 10.8102C70.0574 10.8625 70.1618 10.9453 70.2394 11.0469C70.3809 11.2323 70.3701 11.3923 70.3701 11.3613H68.3701ZM69.6675 12.751C70.2912 12.751 70.853 12.5038 71.3363 12.139L70.1315 10.5426C69.8902 10.7247 69.741 10.751 69.6675 10.751V12.751ZM70.1213 12.1312C70.2514 12.2321 70.3474 12.3098 70.4138 12.3667C70.4469 12.395 70.4679 12.4142 70.4796 12.4254C70.4946 12.4397 70.4838 12.4309 70.4624 12.4047L72.0103 11.1382C71.8622 10.9573 71.5932 10.7416 71.3465 10.5504L70.1213 12.1312ZM73.7998 19.7388L74.4933 19.0183L74.4867 19.012L73.7998 19.7388ZM73.8511 11.0024L74.534 11.7329L74.5369 11.7302L73.8511 11.0024ZM81.8286 10.8486L81.1529 11.5858L81.1582 11.5907L81.8286 10.8486ZM82.0952 16.8062L81.505 15.9989L81.4975 16.0044L82.0952 16.8062ZM76.5581 17.042L77.0739 16.1853L76.4969 15.8379L75.9581 16.242L76.5581 17.042ZM77.2861 17.8315L77.6095 16.8853L77.5987 16.8816L77.5878 16.8781L77.2861 17.8315ZM80.998 17.8521L81.2897 18.8086L81.297 18.8063L80.998 17.8521ZM82.3618 17.2266L83.0203 16.474L82.4305 15.9579L81.7884 16.4073L82.3618 17.2266ZM82.7515 18.0264L81.7803 18.2649L81.7828 18.275L81.7855 18.2851L82.7515 18.0264ZM82.813 19.9233L83.4589 20.6867L83.705 20.4785L83.7831 20.1659L82.813 19.9233ZM81.1724 20.8872L80.8492 19.9409L80.8405 19.9438L80.8319 19.9469L81.1724 20.8872ZM77.4912 14.2017L76.5009 14.0627L76.4094 14.7147L76.9722 15.0564L77.4912 14.2017ZM78.2808 20.3179C76.5786 20.3179 75.3573 19.8499 74.4933 19.0183L73.1063 20.4593C74.4298 21.7331 76.1958 22.3179 78.2808 22.3179V20.3179ZM74.4867 19.012C73.6035 18.1773 73.1182 17.0121 73.1182 15.3911H71.1182C71.1182 17.4478 71.7539 19.1811 73.1129 20.4655L74.4867 19.012ZM73.1182 15.3911C73.1182 13.7718 73.6151 12.592 74.534 11.7329L73.1681 10.272C71.7765 11.5731 71.1182 13.319 71.1182 15.3911H73.1182ZM74.5369 11.7302C75.3958 10.9208 76.4907 10.4951 77.9014 10.4951V8.49512C76.0444 8.49512 74.4391 9.07428 73.1653 10.2747L74.5369 11.7302ZM77.9014 10.4951C79.3437 10.4951 80.3921 10.8884 81.1529 11.5858L82.5043 10.1115C81.2964 9.00421 79.7267 8.49512 77.9014 8.49512V10.4951ZM81.1582 11.5907C81.9438 12.3004 82.3154 13.1367 82.3154 14.1606H84.3154C84.3154 12.5596 83.6958 11.1879 82.499 10.1066L81.1582 11.5907ZM82.3154 14.1606C82.3154 15.0688 82.0173 15.6244 81.505 15.9989L82.6854 17.6134C83.8001 16.7985 84.3154 15.5904 84.3154 14.1606H82.3154ZM81.4975 16.0044C80.9736 16.395 80.1836 16.647 79.019 16.647V18.647C80.4521 18.647 81.7129 18.3384 82.6929 17.6079L81.4975 16.0044ZM79.019 16.647C78.1865 16.647 77.5546 16.4747 77.0739 16.1853L76.0423 17.8987C76.9015 18.416 77.9102 18.647 79.019 18.647V16.647ZM75.9581 16.242C75.5306 16.5626 75.4761 17.034 75.4761 17.2676H77.4761C77.4761 17.2824 77.4762 17.6034 77.1581 17.842L75.9581 16.242ZM75.4761 17.2676C75.4761 17.8574 75.8694 18.2175 76.1072 18.3831C76.3636 18.5616 76.677 18.6877 76.9844 18.7849L77.5878 16.8781C77.4788 16.8436 77.3966 16.8124 77.3368 16.7859C77.3073 16.7728 77.2857 16.762 77.2706 16.7538C77.2553 16.7455 77.2492 16.7412 77.25 16.7417C77.2505 16.7421 77.2615 16.7497 77.2785 16.7659C77.2955 16.782 77.3222 16.8101 77.351 16.852C77.4125 16.9416 77.4761 17.0853 77.4761 17.2676H75.4761ZM76.9627 18.7778C77.6251 19.0042 78.3491 19.1084 79.1216 19.1084V17.1084C78.5269 17.1084 78.0272 17.028 77.6095 16.8853L76.9627 18.7778ZM79.1216 19.1084C79.8937 19.1084 80.6195 19.0129 81.2897 18.8086L80.7064 16.8955C80.2555 17.033 79.7303 17.1084 79.1216 17.1084V19.1084ZM81.297 18.8063C81.9243 18.6098 82.4821 18.363 82.9353 18.0458L81.7884 16.4073C81.558 16.5686 81.2066 16.7388 80.6991 16.8978L81.297 18.8063ZM81.7033 17.9791C81.6559 17.9376 81.657 17.9181 81.6833 17.9721C81.7085 18.0239 81.7439 18.1165 81.7803 18.2649L83.7226 17.7878C83.6135 17.3436 83.4222 16.8257 83.0203 16.474L81.7033 17.9791ZM81.7855 18.2851C81.8705 18.6023 81.9053 18.8661 81.9053 19.0825H83.9053C83.9053 18.6563 83.8375 18.216 83.7174 17.7676L81.7855 18.2851ZM81.9053 19.0825C81.9053 19.3339 81.8805 19.5303 81.8428 19.6808L83.7831 20.1659C83.8685 19.8242 83.9053 19.4601 83.9053 19.0825H81.9053ZM82.167 19.16C81.7123 19.5447 81.2726 19.7963 80.8492 19.9409L81.4955 21.8336C82.1932 21.5953 82.8472 21.2043 83.4589 20.6867L82.167 19.16ZM80.8319 19.9469C80.1786 20.1835 79.337 20.3179 78.2808 20.3179V22.3179C79.4941 22.3179 80.5802 22.1651 81.5128 21.8275L80.8319 19.9469ZM78.1475 15.376C78.4166 15.376 78.8015 15.3298 79.1371 15.0747C79.5245 14.7803 79.6602 14.3553 79.6602 13.9863H77.6602C77.6602 13.9428 77.6673 13.8578 77.7123 13.7551C77.7599 13.6466 77.8355 13.5519 77.9269 13.4824C78.0916 13.3572 78.2201 13.376 78.1475 13.376V15.376ZM79.6602 13.9863C79.6602 13.5799 79.4882 13.1553 79.0862 12.8823C78.7533 12.6562 78.3798 12.6172 78.1167 12.6172V14.6172C78.2159 14.6172 78.1141 14.6397 77.9624 14.5367C77.8738 14.4765 77.7873 14.3853 77.7285 14.2654C77.6718 14.15 77.6602 14.0478 77.6602 13.9863H79.6602ZM78.1167 12.6172C77.7531 12.6172 77.3414 12.7191 77.0059 13.0326C76.6809 13.3363 76.5481 13.7263 76.5009 14.0627L78.4815 14.3406C78.489 14.2874 78.4878 14.3852 78.3713 14.494C78.3143 14.5472 78.2515 14.5814 78.1968 14.6001C78.1457 14.6176 78.1146 14.6172 78.1167 14.6172V12.6172ZM76.9722 15.0564C77.3353 15.2769 77.737 15.376 78.1475 15.376V13.376C78.0657 13.376 78.0299 13.3588 78.0102 13.3469L76.9722 15.0564ZM89.437 12.9609L89.1793 11.9947L89.161 11.9996L89.1429 12.0052L89.437 12.9609ZM89.1807 13.3916L88.4736 14.0987L88.8047 14.4299L89.2712 14.3875L89.1807 13.3916ZM91.9082 13.7402L91.5749 14.6831L91.5863 14.687L91.9082 13.7402ZM93.5796 14.8682L94.3552 14.2369L94.3495 14.23L93.5796 14.8682ZM85.1919 20.5181L84.686 21.3807L84.6888 21.3823L85.1919 20.5181ZM84.0742 17.124L84.9608 17.5866L84.9648 17.5788L84.0742 17.124ZM84.6279 16.4473L85.2695 15.6802L84.7096 15.2119L84.0929 15.6024L84.6279 16.4473ZM86.2583 17.2676L85.9475 18.2181L85.9585 18.2216L86.2583 17.2676ZM88.9858 17.1343L89.9222 16.7832L89.64 16.0307L88.8444 16.1443L88.9858 17.1343ZM85.2227 16.2832L85.7743 15.4491L85.7733 15.4485L85.2227 16.2832ZM85.0688 10.6641L84.4324 9.89275L84.4304 9.89438L85.0688 10.6641ZM91.4468 9.7207L91.2086 10.6919L91.2107 10.6924L91.4468 9.7207ZM93.3232 10.4282L94.2306 10.0078L94.0954 9.71615L93.8157 9.55787L93.3232 10.4282ZM92.8311 13.5864L92.3498 14.463L92.9972 14.8185L93.5274 14.3042L92.8311 13.5864ZM91.5493 13.1147L91.2974 14.0825L91.3052 14.0845L91.313 14.0864L91.5493 13.1147ZM89.1429 12.0052C88.9317 12.0702 88.6751 12.1953 88.4709 12.4388C88.2548 12.6964 88.1704 12.9993 88.1704 13.2788H90.1704C90.1704 13.4011 90.1304 13.5724 90.0033 13.724C89.8879 13.8616 89.7646 13.9064 89.7311 13.9167L89.1429 12.0052ZM88.1704 13.2788V13.3301H90.1704V13.2788H88.1704ZM88.1704 13.3301C88.1704 13.372 88.1719 13.4475 88.1866 13.5355C88.1909 13.5616 88.2286 13.8538 88.4736 14.0987L89.8878 12.6845C90.0251 12.8219 90.0869 12.9645 90.1125 13.0328C90.1412 13.1093 90.1537 13.1725 90.1594 13.2067C90.1706 13.2741 90.1704 13.3223 90.1704 13.3301H88.1704ZM89.2712 14.3875C89.3036 14.3846 89.369 14.3813 89.478 14.3813V12.3813C89.341 12.3813 89.2081 12.385 89.0901 12.3957L89.2712 14.3875ZM89.478 14.3813H89.7241V12.3813H89.478V14.3813ZM89.7241 14.3813C90.3996 14.3813 91.014 14.4848 91.5749 14.683L92.2415 12.7974C91.4489 12.5172 90.6072 12.3813 89.7241 12.3813V14.3813ZM91.5863 14.687C92.1077 14.8643 92.5053 15.1391 92.8097 15.5064L94.3495 14.23C93.7926 13.5581 93.0759 13.081 92.2301 12.7935L91.5863 14.687ZM92.804 15.4994C93.1121 15.8779 93.2974 16.3842 93.2974 17.0933H95.2974C95.2974 16.0113 95.0041 15.0342 94.3552 14.2369L92.804 15.4994ZM93.2974 17.0933C93.2974 18.2296 92.922 18.957 92.258 19.4467L93.4452 21.0562C94.7089 20.1241 95.2974 18.746 95.2974 17.0933H93.2974ZM92.258 19.4467C91.5168 19.9933 90.4587 20.3179 88.9858 20.3179V22.3179C90.7396 22.3179 92.2585 21.9315 93.4452 21.0562L92.258 19.4467ZM88.9858 20.3179C87.4643 20.3179 86.3985 20.0634 85.695 19.6538L84.6888 21.3823C85.8173 22.0392 87.2808 22.3179 88.9858 22.3179V20.3179ZM85.6978 19.6555C85.0867 19.2971 84.8281 18.8382 84.8281 18.1699H82.8281C82.8281 19.5661 83.4787 20.6726 84.686 21.3807L85.6978 19.6555ZM84.8281 18.1699C84.8281 17.9351 84.8771 17.7471 84.9608 17.5866L83.1876 16.6615C82.9432 17.1299 82.8281 17.6391 82.8281 18.1699H84.8281ZM84.9648 17.5788C85.0843 17.3448 85.1655 17.2905 85.163 17.2921L84.0929 15.6024C83.6802 15.8638 83.3923 16.2606 83.1836 16.6692L84.9648 17.5788ZM83.9864 17.2143C84.4973 17.6417 85.1728 17.9648 85.9476 18.2181L86.569 16.3171C85.9219 16.1055 85.5105 15.8817 85.2695 15.6802L83.9864 17.2143ZM85.9585 18.2216C86.7792 18.4795 87.6396 18.606 88.5347 18.606V16.606C87.8301 16.606 87.1729 16.5068 86.5581 16.3136L85.9585 18.2216ZM88.5347 18.606C88.7547 18.606 89.0786 18.5812 89.3802 18.4143C89.5461 18.3226 89.7173 18.1807 89.843 17.9721C89.9697 17.7619 90.0166 17.5393 90.0166 17.3394H88.0166C88.0166 17.2283 88.0434 17.0835 88.13 16.9399C88.2155 16.798 88.3265 16.7116 88.4121 16.6643C88.553 16.5863 88.6359 16.606 88.5347 16.606V18.606ZM90.0166 17.3394C90.0166 17.1822 89.9981 16.9856 89.9222 16.7832L88.0495 17.4854C88.0312 17.4365 88.0234 17.3977 88.02 17.3749C88.0182 17.3631 88.0174 17.3541 88.017 17.3484C88.0166 17.3427 88.0166 17.3396 88.0166 17.3394H90.0166ZM88.8444 16.1443C88.8528 16.1431 88.8544 16.1433 88.8477 16.1437C88.8412 16.1441 88.8294 16.1445 88.8115 16.1445V18.1445C88.9095 18.1445 89.0178 18.1399 89.1273 18.1242L88.8444 16.1443ZM88.8115 16.1445H88.6987V18.1445H88.8115V16.1445ZM88.6987 16.1445C87.3715 16.1445 86.4263 15.8804 85.7743 15.4491L84.671 17.1173C85.7553 17.8345 87.1275 18.1445 88.6987 18.1445V16.1445ZM85.7733 15.4485C85.0704 14.9848 84.7461 14.3829 84.7461 13.5352H82.7461C82.7461 15.0527 83.4061 16.2828 84.672 17.1179L85.7733 15.4485ZM84.7461 13.5352C84.7461 12.6391 85.0629 11.9683 85.7073 11.4337L84.4304 9.89438C83.3112 10.8228 82.7461 12.066 82.7461 13.5352H84.7461ZM85.7053 11.4354C86.4498 10.821 87.5409 10.4541 89.0986 10.4541V8.4541C87.2384 8.4541 85.6429 8.89383 84.4324 9.89276L85.7053 11.4354ZM89.0986 10.4541C89.8692 10.4541 90.571 10.5355 91.2086 10.6919L91.685 8.74949C90.8733 8.5504 90.0098 8.4541 89.0986 8.4541V10.4541ZM91.2107 10.6924C91.8746 10.8538 92.4094 11.0601 92.8308 11.2986L93.8157 9.55787C93.1981 9.20843 92.4818 8.94311 91.6829 8.74898L91.2107 10.6924ZM92.4159 10.8487C92.4545 10.9319 92.5181 11.1721 92.5181 11.6689H94.5181C94.5181 11.072 94.4517 10.4851 94.2306 10.0078L92.4159 10.8487ZM92.5181 11.6689C92.5181 12.3192 92.3441 12.6656 92.1347 12.8687L93.5274 14.3042C94.234 13.6186 94.5181 12.6866 94.5181 11.6689H92.5181ZM93.3123 12.7098C92.8671 12.4654 92.3523 12.2809 91.7857 12.1431L91.313 14.0864C91.7581 14.1947 92.0978 14.3246 92.3498 14.463L93.3123 12.7098ZM91.8012 12.147C91.2415 12.0013 90.7039 11.9199 90.1958 11.9199V13.9199C90.4944 13.9199 90.8591 13.9684 91.2974 14.0825L91.8012 12.147ZM90.1958 11.9199C89.9853 11.9199 89.8014 11.9234 89.6496 11.9316C89.5227 11.9385 89.3409 11.9516 89.1793 11.9947L89.6947 13.9272C89.6524 13.9385 89.6327 13.9392 89.6567 13.9364C89.6747 13.9343 89.707 13.9315 89.7576 13.9287C89.8588 13.9232 90.003 13.9199 90.1958 13.9199V11.9199Z" fill="#7D84B2" mask="url(#path-3-outside-1_6_2)"/>
</svg>
