<svg xmlns="http://www.w3.org/2000/svg" viewBox="0 0 635.19 419.44"><g id="freepik--background-simple--inject-79"><path d="M190.83,100.25l2.41-4c20.39-33.59,57.24-53.83,96.09-51.38a102.26,102.26,0,0,1,14.87,2c35.33,7.56,66.07,34.27,78.81,68.48,7.49,20.12,9.58,43.29,23.8,59.26,18.51,20.79,49.92,21.44,77.55,20.58s59.06-.13,77.47,20.74c11.54,13.07,15.2,31.65,14.27,49.15-2.46,46.34-34.75,87.77-75.81,108.37s-89.41,22.43-134.35,13.38c-63-12.7-122.83-47.55-158.81-101.38S162,158.35,190.83,100.25Z" transform="translate(-52.95 -44.68)" style="fill:#ebebeb"></path></g><g id="freepik--Plant--inject-79"><rect x="383.93" y="154.94" width="209.15" height="7.89" style="fill:#455a64"></rect><rect x="420.38" y="160.71" width="10.56" height="17.84" style="fill:#455a64"></rect><rect x="546.22" y="160.71" width="10.56" height="17.84" style="fill:#455a64"></rect><path d="M596.44,107.42s0-.1-.13-.28-.25-.47-.42-.79c-.39-.68-1-1.67-1.85-2.89a31.21,31.21,0,0,0-9.16-8.65,22.59,22.59,0,0,0-8.21-3,20.44,20.44,0,0,0-10,1,16.21,16.21,0,0,0-8.53,7c-2,3.42-2.59,7.45-3.74,11.29A20.54,20.54,0,0,1,552,116.5a16.41,16.41,0,0,1-4.06,4c-1.53,1.12-3.12,2.14-4.57,3.32a19.55,19.55,0,0,0-3.71,4,24.63,24.63,0,0,0-3.8,9.29,32.65,32.65,0,0,0-.51,8.73,65.94,65.94,0,0,0,2.23,12.42c.38,1.44.7,2.55.92,3.3a7.61,7.61,0,0,0,.37,1.14,8.35,8.35,0,0,0-.24-1.17c-.19-.82-.46-1.93-.79-3.33a72,72,0,0,1-2-12.39,32.48,32.48,0,0,1,.58-8.58,24.28,24.28,0,0,1,3.76-9,19.43,19.43,0,0,1,3.61-3.88c1.41-1.14,3-2.15,4.55-3.29a16.83,16.83,0,0,0,4.23-4.15,21.23,21.23,0,0,0,2.47-5.57c1.16-3.91,1.79-7.87,3.67-11.15a15.59,15.59,0,0,1,8.17-6.73,19.8,19.8,0,0,1,9.67-1.08,22.49,22.49,0,0,1,8,2.87,32,32,0,0,1,9.18,8.39c.89,1.19,1.53,2.15,1.95,2.81A8.21,8.21,0,0,0,596.44,107.42Z" transform="translate(-52.95 -44.68)" style="fill:#e0e0e0"></path><path d="M546.19,121.51c1.06-1,1.57-.3,3,0a8.81,8.81,0,0,1,3.85,1.92,16.17,16.17,0,0,1,5.24,17,12.63,12.63,0,0,1-11.6-19" transform="translate(-52.95 -44.68)" style="fill:#e0e0e0"></path><path d="M589.65,101.72c.54-1.34,1.3-.94,2.69-1.32a8.78,8.78,0,0,1,4.29.08,16.16,16.16,0,0,1,12,13.07A12.63,12.63,0,0,1,590,101.41" transform="translate(-52.95 -44.68)" style="fill:#e0e0e0"></path><path d="M536.62,148.29a14.57,14.57,0,0,1,22.91,1.11,18,18,0,0,1-11.88,4.69,18.4,18.4,0,0,1-12-4.84" transform="translate(-52.95 -44.68)" style="fill:#e0e0e0"></path><path d="M540.18,128.29a14.76,14.76,0,0,1-14.91-17.63,13.25,13.25,0,0,1,15.4,17.48" transform="translate(-52.95 -44.68)" style="fill:#e0e0e0"></path><path d="M555.48,104.78a14.77,14.77,0,0,1-19.92-11.66,13.26,13.26,0,0,1,20.34,11.36" transform="translate(-52.95 -44.68)" style="fill:#e0e0e0"></path><path d="M560.61,97.11a14.77,14.77,0,0,1,19.93,11.66A13.26,13.26,0,0,1,560.2,97.41" transform="translate(-52.95 -44.68)" style="fill:#e0e0e0"></path><path d="M566.72,93a14.78,14.78,0,0,1-7.86-21.71A13.25,13.25,0,0,1,567.23,93" transform="translate(-52.95 -44.68)" style="fill:#e0e0e0"></path><path d="M582.39,93.72A14.77,14.77,0,0,1,594.45,74a13.25,13.25,0,0,1-11.77,20.11" transform="translate(-52.95 -44.68)" style="fill:#e0e0e0"></path><polyline points="466.29 154.94 457.94 102.55 521.91 103.33 515.6 154.25" style="fill:#263238"></polyline><path d="M546.84,137.66a10.89,10.89,0,0,0,10.61.9,11.5,11.5,0,0,0,5.81-9.18,12.28,12.28,0,0,0-17.65,7.35" transform="translate(-52.95 -44.68)" style="fill:#5D66A8"></path><path d="M576.08,148.94a10.89,10.89,0,0,0,10.61.9,11.48,11.48,0,0,0,5.81-9.17,13,13,0,0,0-10.6-.55,12.9,12.9,0,0,0-7,7.89" transform="translate(-52.95 -44.68)" style="fill:#5D66A8"></path><path d="M559.66,123.75a10.93,10.93,0,0,0,8.38,6.59,11.5,11.5,0,0,0,9.89-4.47,12.27,12.27,0,0,0-18.77-3.57" transform="translate(-52.95 -44.68)" style="fill:#5D66A8"></path><path d="M570.34,136.8a10.93,10.93,0,0,0-9.55,4.73,11.48,11.48,0,0,0-.22,10.86A12.27,12.27,0,0,0,571.87,137" transform="translate(-52.95 -44.68)" style="fill:#5D66A8"></path><path d="M580.64,157.43a10.92,10.92,0,0,0,.25,10.65,11.51,11.51,0,0,0,9.75,4.78,13,13,0,0,0-.6-10.6c-1.68-3-4.71-4.56-8.51-5.43" transform="translate(-52.95 -44.68)" style="fill:#5D66A8"></path><path d="M597.64,159.85a7.64,7.64,0,0,0-2.53-1.61,10.91,10.91,0,0,0-3.47-.61,39.82,39.82,0,0,0-4.72.28,13.75,13.75,0,0,1-5.81-.5,8.91,8.91,0,0,1-4.8-4.64,26.69,26.69,0,0,1-2.07-7.07,20,20,0,0,0-2.46-7.26,25.44,25.44,0,0,0-5.41-5.5,26.19,26.19,0,0,1-5.17-5.25,17.27,17.27,0,0,1-2.58-12,16.8,16.8,0,0,1,3.14-7.74,12.18,12.18,0,0,1,1.53-1.69,3.94,3.94,0,0,1,.61-.52,3.25,3.25,0,0,1-.51.62,16.69,16.69,0,0,0-1.41,1.75,17.2,17.2,0,0,0-2.87,7.64,17,17,0,0,0,2.61,11.62,26.09,26.09,0,0,0,5.09,5.09,25.86,25.86,0,0,1,5.55,5.64,20.67,20.67,0,0,1,2.55,7.51,26,26,0,0,0,2,6.92,8.32,8.32,0,0,0,4.42,4.38,13.53,13.53,0,0,0,5.58.55,40.37,40.37,0,0,1,4.77-.18,10.84,10.84,0,0,1,3.55.75,5.7,5.7,0,0,1,1.92,1.24,2.73,2.73,0,0,1,.4.45C597.61,159.78,597.65,159.84,597.64,159.85Z" transform="translate(-52.95 -44.68)" style="fill:#5D66A8"></path><path d="M597.64,159.85a7.64,7.64,0,0,0-2.53-1.61,10.91,10.91,0,0,0-3.47-.61,39.82,39.82,0,0,0-4.72.28,13.75,13.75,0,0,1-5.81-.5,8.91,8.91,0,0,1-4.8-4.64,26.69,26.69,0,0,1-2.07-7.07,20,20,0,0,0-2.46-7.26,25.44,25.44,0,0,0-5.41-5.5,26.19,26.19,0,0,1-5.17-5.25,17.27,17.27,0,0,1-2.58-12,16.8,16.8,0,0,1,3.14-7.74,12.18,12.18,0,0,1,1.53-1.69,3.94,3.94,0,0,1,.61-.52,3.25,3.25,0,0,1-.51.62,16.69,16.69,0,0,0-1.41,1.75,17.2,17.2,0,0,0-2.87,7.64,17,17,0,0,0,2.61,11.62,26.09,26.09,0,0,0,5.09,5.09,25.86,25.86,0,0,1,5.55,5.64,20.67,20.67,0,0,1,2.55,7.51,26,26,0,0,0,2,6.92,8.32,8.32,0,0,0,4.42,4.38,13.53,13.53,0,0,0,5.58.55,40.37,40.37,0,0,1,4.77-.18,10.84,10.84,0,0,1,3.55.75,5.7,5.7,0,0,1,1.92,1.24,2.73,2.73,0,0,1,.4.45C597.61,159.78,597.65,159.84,597.64,159.85Z" transform="translate(-52.95 -44.68)" style="fill:#5D66A8"></path><path d="M468.53,149.93a16.49,16.49,0,0,0-15.26-2.05,27,27,0,0,0,21.33,15.74l.57.2A16.46,16.46,0,0,0,468.53,149.93Z" transform="translate(-52.95 -44.68)" style="fill:#5D66A8"></path><path d="M479.82,175.18a21.19,21.19,0,0,0-8.55-10.38l-.21,1.24c-3.13,3.44-2.92,9-.69,13s6.09,7,9.95,9.56A21.21,21.21,0,0,0,479.82,175.18Z" transform="translate(-52.95 -44.68)" style="fill:#5D66A8"></path><path d="M485.46,151.58l.37-.22c-.06-.37-.13-.73-.17-1.1Z" transform="translate(-52.95 -44.68)" style="fill:#5D66A8"></path><path d="M499.77,153.39c-3.78-3.32-9.66-4.6-13.94-2a18.62,18.62,0,0,0,21.05,15.54C505.67,161.87,503.65,156.8,499.77,153.39Z" transform="translate(-52.95 -44.68)" style="fill:#5D66A8"></path><path d="M476.11,137.29c-4.62-.43-9.19,1.55-12.9,4.34a16.75,16.75,0,0,0,22.44,2.56C484.27,140.37,480.24,137.68,476.11,137.29Z" transform="translate(-52.95 -44.68)" style="fill:#5D66A8"></path><path d="M486.08,143.89c-.14.11-.29.2-.43.3a8.62,8.62,0,0,1,.39,1.43Z" transform="translate(-52.95 -44.68)" style="fill:#5D66A8"></path><path d="M470.55,194.79c-1-5.66-4.38-11.12-9.63-13.42-4.4,3.75-5.13,11.79-3.3,17.27s6.1,9.85,10.9,13.06C470.37,206.26,471.52,200.44,470.55,194.79Z" transform="translate(-52.95 -44.68)" style="fill:#5D66A8"></path><path d="M485.3,133.37a13.49,13.49,0,0,1,21.38-1.25,11.67,11.67,0,0,1-21.05.54" transform="translate(-52.95 -44.68)" style="fill:#5D66A8"></path><path d="M489.73,120a17.55,17.55,0,0,1-22.38-13.72,40.21,40.21,0,0,1,10.57.15,17.21,17.21,0,0,1,9.36,4.61,9.28,9.28,0,0,1,2.45,9" transform="translate(-52.95 -44.68)" style="fill:#5D66A8"></path><path d="M500.73,116a14.34,14.34,0,0,1-.1-22.13,30,30,0,0,1,6.28,13.38,11.25,11.25,0,0,1-.05,5.53,5.09,5.09,0,0,1-3.87,3.62" transform="translate(-52.95 -44.68)" style="fill:#5D66A8"></path><path d="M611.86,137.49a13.48,13.48,0,0,0,1-4.69,11.74,11.74,0,0,0-1.25-5.41,11.29,11.29,0,0,0-5.21-5,11.52,11.52,0,0,0-4.11-1.11,13.38,13.38,0,0,0-4.6.54c-3.13.82-6.24,2.61-9.94,3.34a11.66,11.66,0,0,1-5.77-.14,8.63,8.63,0,0,1-4.69-3.75c-2.24-3.47-2.87-7.81-5.56-11a11.09,11.09,0,0,0-5.06-3.3,14.28,14.28,0,0,0-5.9-.6,15.13,15.13,0,0,0-9.82,5.11,23,23,0,0,0-4.87,9,26.86,26.86,0,0,0-1.09,8.93,97.92,97.92,0,0,0,1.66,13.07c.26,1.49.46,2.67.61,3.54.06.37.1.67.14.92a1.54,1.54,0,0,1,0,.32,1.31,1.31,0,0,1-.09-.3c-.06-.25-.13-.55-.21-.92l-.74-3.51a89.62,89.62,0,0,1-1.88-13.1,27.58,27.58,0,0,1,1-9.11,23.59,23.59,0,0,1,5-9.29,17.57,17.57,0,0,1,4.48-3.59,15.55,15.55,0,0,1,11.93-1.15,11.67,11.67,0,0,1,5.36,3.51c2.86,3.42,3.47,7.8,5.61,11.09a8,8,0,0,0,4.32,3.49,11.06,11.06,0,0,0,5.45.14c3.57-.68,6.68-2.44,9.91-3.26a13.63,13.63,0,0,1,4.79-.52,11.94,11.94,0,0,1,9.63,6.51,11.84,11.84,0,0,1,1.17,5.58,11.2,11.2,0,0,1-.69,3.55A6,6,0,0,1,611.86,137.49Z" transform="translate(-52.95 -44.68)" style="fill:#5D66A8"></path><path d="M574.45,114.27a12.45,12.45,0,0,0,11.41.76,11.52,11.52,0,0,0,5.81-9.18A12.28,12.28,0,0,0,574,113.19" transform="translate(-52.95 -44.68)" style="fill:#5D66A8"></path><path d="M586.58,125.27a12.45,12.45,0,0,0,5.29,10.14,11.52,11.52,0,0,0,10.86.18,12.28,12.28,0,0,0-15.45-11.25" transform="translate(-52.95 -44.68)" style="fill:#5D66A8"></path><path d="M607.62,122.84a12.47,12.47,0,0,0,11.42-.47,11.55,11.55,0,0,0,4.8-9.75,12.28,12.28,0,0,0-16.77,9.18" transform="translate(-52.95 -44.68)" style="fill:#5D66A8"></path><path d="M556.79,107c-3.07-2.65-5.12-7.29-4.54-10.77a11.53,11.53,0,0,1,7-8.26,12.28,12.28,0,0,1-1.79,19" transform="translate(-52.95 -44.68)" style="fill:#5D66A8"></path><path d="M474.65,91.93a1,1,0,0,1,.12-.28c.12-.21.26-.47.43-.79A33.87,33.87,0,0,1,477.05,88a31.27,31.27,0,0,1,9.15-8.65,22.4,22.4,0,0,1,8.21-3,20.29,20.29,0,0,1,10,1,16.2,16.2,0,0,1,8.54,7c2,3.43,2.59,7.45,3.74,11.29a20.54,20.54,0,0,0,2.38,5.38,16.54,16.54,0,0,0,4.05,4c1.53,1.12,3.13,2.14,4.57,3.32a19.6,19.6,0,0,1,3.72,4,24.63,24.63,0,0,1,3.8,9.29,33.07,33.07,0,0,1,.51,8.73,66.76,66.76,0,0,1-2.23,12.42c-.38,1.44-.7,2.55-.92,3.31a7.68,7.68,0,0,1-.37,1.13,7.24,7.24,0,0,1,.23-1.17c.2-.82.46-1.93.79-3.33a71.69,71.69,0,0,0,2-12.39,33.34,33.34,0,0,0-.58-8.58,24.31,24.31,0,0,0-3.77-9,19.37,19.37,0,0,0-3.6-3.88c-1.41-1.14-3-2.15-4.56-3.29a17,17,0,0,1-4.22-4.15A21.59,21.59,0,0,1,516,95.83c-1.16-3.91-1.79-7.87-3.66-11.15A15.59,15.59,0,0,0,504.17,78a19.81,19.81,0,0,0-9.68-1.07,22.24,22.24,0,0,0-8,2.86,32,32,0,0,0-9.18,8.39c-.89,1.19-1.53,2.15-1.95,2.81A8.21,8.21,0,0,1,474.65,91.93Z" transform="translate(-52.95 -44.68)" style="fill:#5D66A8"></path><path d="M523.62,105.63c-1-1-1.57-.3-3,0a8.88,8.88,0,0,0-3.84,1.92,16.18,16.18,0,0,0-5.25,17,12.62,12.62,0,0,0,11.6-19" transform="translate(-52.95 -44.68)" style="fill:#5D66A8"></path><path d="M481.43,86.23c-.53-1.34-1.29-.94-2.69-1.32a8.78,8.78,0,0,0-4.29.08,16.17,16.17,0,0,0-12,13.07A12.63,12.63,0,0,0,481,85.92" transform="translate(-52.95 -44.68)" style="fill:#5D66A8"></path><path d="M534.36,131.43a14.56,14.56,0,0,0-22.91,1.12,18.09,18.09,0,0,0,11.88,4.69,18.43,18.43,0,0,0,12-4.85Z" transform="translate(-52.95 -44.68)" style="fill:#5D66A8"></path><path d="M530.9,112.8a14.77,14.77,0,0,0,14.92-17.62,13.25,13.25,0,0,0-15.41,17.47" transform="translate(-52.95 -44.68)" style="fill:#5D66A8"></path><path d="M515.6,89.29a14.77,14.77,0,0,0,19.93-11.66A13.26,13.26,0,0,0,515.19,89" transform="translate(-52.95 -44.68)" style="fill:#5D66A8"></path><path d="M510.47,81.62a14.75,14.75,0,0,0-19.92,11.66,13.26,13.26,0,0,0,20.34-11.36" transform="translate(-52.95 -44.68)" style="fill:#5D66A8"></path><path d="M504.36,77.48a14.76,14.76,0,0,0,7.86-21.71,13.27,13.27,0,0,0-8.37,21.75" transform="translate(-52.95 -44.68)" style="fill:#5D66A8"></path><path d="M488.7,78.23a14.77,14.77,0,0,0-12.06-19.69A13.25,13.25,0,0,0,488.4,78.65" transform="translate(-52.95 -44.68)" style="fill:#5D66A8"></path><polygon points="457.13 148.87 462.02 154.94 522.22 154.94 526.32 148.87 457.13 148.87" style="fill:#263238"></polygon><path d="M577.94,193.5c0,.19-14.79.34-33,.34s-33-.15-33-.34,14.79-.35,33-.35S577.94,193.3,577.94,193.5Z" transform="translate(-52.95 -44.68)" style="fill:#455a64"></path><path d="M571.18,170.64s-.11.19-.38.49a12.78,12.78,0,0,1-1.22,1.29,22.26,22.26,0,0,1-5.38,3.73,23.61,23.61,0,0,1-9.4,2.42,22.87,22.87,0,0,1-5.75-.49,34.08,34.08,0,0,1-5.86-1.94c-3.88-1.65-7.4-3.53-10.84-4.63a18.63,18.63,0,0,0-9.36-.9,12.23,12.23,0,0,0-5.75,2.67c-1.14,1-1.58,1.75-1.64,1.7a2.68,2.68,0,0,1,.3-.54,8.6,8.6,0,0,1,1.16-1.36,12,12,0,0,1,5.83-3,18.78,18.78,0,0,1,9.65.77c3.52,1.09,7.09,3,10.92,4.6a34.55,34.55,0,0,0,5.74,1.92,22.44,22.44,0,0,0,5.58.51,23.76,23.76,0,0,0,9.21-2.22A28.85,28.85,0,0,0,571.18,170.64Z" transform="translate(-52.95 -44.68)" style="fill:#455a64"></path><path d="M571.78,165.94a2.35,2.35,0,0,1-.42.47,15,15,0,0,1-1.31,1.2,25.46,25.46,0,0,1-5.57,3.46,26.16,26.16,0,0,1-9.47,2.25,25.33,25.33,0,0,1-5.76-.38,37.94,37.94,0,0,1-6-1.69c-4-1.44-7.62-3.1-11.11-4.07a22,22,0,0,0-9.44-.85,14,14,0,0,0-6,2.27c-1.25.88-1.8,1.55-1.85,1.5s.11-.19.38-.5a9.8,9.8,0,0,1,1.31-1.21,13.64,13.64,0,0,1,6-2.55,21.91,21.91,0,0,1,9.69.73c3.56,1,7.24,2.6,11.17,4a39.32,39.32,0,0,0,5.84,1.67,25.94,25.94,0,0,0,5.62.42,26.7,26.7,0,0,0,9.29-2.07A33.49,33.49,0,0,0,571.78,165.94Z" transform="translate(-52.95 -44.68)" style="fill:#455a64"></path><path d="M517.83,148.16a1.67,1.67,0,0,1,0-.36c0-.28,0-.63.06-1.06.06-.92.15-2.29.18-4a36.23,36.23,0,0,0-2.38-14.54,22.21,22.21,0,0,0-5.84-8.22A15.65,15.65,0,0,0,499.21,116a13.34,13.34,0,0,0-6,1.51,12,12,0,0,0-4.63,4.42c-2.32,3.83-2.9,8.63-2.7,13.37s.85,9.48.32,14.06a21.11,21.11,0,0,1-1.75,6.52,13.62,13.62,0,0,1-3.93,5.16,19.75,19.75,0,0,1-5.48,2.8,28.09,28.09,0,0,0-5.17,2.34,18.73,18.73,0,0,0-6.78,7.39,17.86,17.86,0,0,0-2,8.09,19.19,19.19,0,0,0,1,6.25,22.64,22.64,0,0,0,2.43,4.86s-.09-.08-.24-.27-.37-.47-.62-.86A17.26,17.26,0,0,1,461.9,188a18.79,18.79,0,0,1-1.16-6.34,18.22,18.22,0,0,1,1.91-8.31,19.24,19.24,0,0,1,6.92-7.66c3.16-2.1,7.34-2.62,10.55-5.15s4.92-6.86,5.41-11.26-.17-9.14-.34-14,.37-9.74,2.81-13.74a12.52,12.52,0,0,1,4.9-4.66,13.89,13.89,0,0,1,6.3-1.55,16.18,16.18,0,0,1,11,4.11,22.79,22.79,0,0,1,5.92,8.47,30.51,30.51,0,0,1,2,8.3,44.33,44.33,0,0,1,.18,6.43c-.07,1.77-.2,3.13-.31,4.06,0,.42-.09.77-.13,1A1.31,1.31,0,0,1,517.83,148.16Z" transform="translate(-52.95 -44.68)" style="fill:#5D66A8"></path><path d="M517.83,148.16a1.67,1.67,0,0,1,0-.36c0-.28,0-.63.06-1.06.06-.92.15-2.29.18-4a36.23,36.23,0,0,0-2.38-14.54,22.21,22.21,0,0,0-5.84-8.22A15.65,15.65,0,0,0,499.21,116a13.34,13.34,0,0,0-6,1.51,12,12,0,0,0-4.63,4.42c-2.32,3.83-2.9,8.63-2.7,13.37s.85,9.48.32,14.06a21.11,21.11,0,0,1-1.75,6.52,13.62,13.62,0,0,1-3.93,5.16,19.75,19.75,0,0,1-5.48,2.8,28.09,28.09,0,0,0-5.17,2.34,18.73,18.73,0,0,0-6.78,7.39,17.86,17.86,0,0,0-2,8.09,19.19,19.19,0,0,0,1,6.25,22.64,22.64,0,0,0,2.43,4.86s-.09-.08-.24-.27-.37-.47-.62-.86A17.26,17.26,0,0,1,461.9,188a18.79,18.79,0,0,1-1.16-6.34,18.22,18.22,0,0,1,1.91-8.31,19.24,19.24,0,0,1,6.92-7.66c3.16-2.1,7.34-2.62,10.55-5.15s4.92-6.86,5.41-11.26-.17-9.14-.34-14,.37-9.74,2.81-13.74a12.52,12.52,0,0,1,4.9-4.66,13.89,13.89,0,0,1,6.3-1.55,16.18,16.18,0,0,1,11,4.11,22.79,22.79,0,0,1,5.92,8.47,30.51,30.51,0,0,1,2,8.3,44.33,44.33,0,0,1,.18,6.43c-.07,1.77-.2,3.13-.31,4.06,0,.42-.09.77-.13,1A1.31,1.31,0,0,1,517.83,148.16Z" transform="translate(-52.95 -44.68)" style="opacity:0.30000000000000004"></path><g style="opacity:0.30000000000000004"><path d="M474.6,163.62l.57.2a16.19,16.19,0,0,0-21.9-15.94A27,27,0,0,0,474.6,163.62Z" transform="translate(-52.95 -44.68)"></path><path d="M471.27,164.8l-.21,1.24c-3.13,3.44-2.92,9-.69,13s6.09,7,9.95,9.56a21,21,0,0,0-9.05-23.83Z" transform="translate(-52.95 -44.68)"></path><path d="M485.46,151.58l.37-.22c-.06-.37-.13-.73-.17-1.1Z" transform="translate(-52.95 -44.68)"></path><path d="M499.77,153.39c-3.78-3.32-9.66-4.6-13.94-2a18.62,18.62,0,0,0,21.05,15.54C505.67,161.87,503.65,156.8,499.77,153.39Z" transform="translate(-52.95 -44.68)"></path><path d="M474.2,147.29a17,17,0,0,0,11.45-3.1c-1.38-3.82-5.41-6.51-9.54-6.9-4.62-.43-9.19,1.55-12.9,4.34A17,17,0,0,0,474.2,147.29Z" transform="translate(-52.95 -44.68)"></path><path d="M486.08,143.89c-.14.11-.29.2-.43.3a8.62,8.62,0,0,1,.39,1.43Z" transform="translate(-52.95 -44.68)"></path><path d="M485.3,133.37c.13-.19.28-.36.42-.55l-.09-.16Z" transform="translate(-52.95 -44.68)"></path><path d="M485.72,132.82a11.66,11.66,0,0,0,21-.7,13.46,13.46,0,0,0-21,.7Z" transform="translate(-52.95 -44.68)"></path><path d="M475.46,118.21A17.82,17.82,0,0,0,489.73,120a9.28,9.28,0,0,0-2.45-9,17.21,17.21,0,0,0-9.36-4.61,40.21,40.21,0,0,0-10.57-.15A17.82,17.82,0,0,0,475.46,118.21Z" transform="translate(-52.95 -44.68)"></path><path d="M500.73,116l2.26.4a5.09,5.09,0,0,0,3.87-3.62,11.25,11.25,0,0,0,.05-5.53,30,30,0,0,0-6.28-13.38,14.34,14.34,0,0,0,.1,22.13Z" transform="translate(-52.95 -44.68)"></path></g><path d="M460.92,181.37c-4.4,3.75-5.13,11.79-3.3,17.27s6.1,9.85,10.9,13.06c1.85-5.44,3-11.26,2-16.91S466.17,183.67,460.92,181.37Z" transform="translate(-52.95 -44.68)" style="opacity:0.30000000000000004"></path></g><g id="freepik--Wood--inject-79"><rect x="211.8" y="384.87" width="362.37" height="11.5" style="fill:#455a64"></rect><path d="M316.61,429.55s-.1.17-.31.47a4,4,0,0,1-.42.52,5.7,5.7,0,0,1-.65.66,10.44,10.44,0,0,1-5.3,2.4,24,24,0,0,1-8.66-.36c-3.21-.55-6.76-1.49-10.51-1.11a23.85,23.85,0,0,0-5.36,1.14c-1.69.55-3.28,1.18-4.79,1.82-3,1.28-5.7,2.5-8,3.31a27.07,27.07,0,0,1-5.68,1.43,18.7,18.7,0,0,1-2.15.15l.56-.06c.36-.05.9,0,1.58-.17a28.91,28.91,0,0,0,5.64-1.49c2.33-.83,5-2.06,8-3.35,1.5-.64,3.1-1.28,4.8-1.83a24.1,24.1,0,0,1,5.4-1.16c3.8-.38,7.36.57,10.56,1.13a24,24,0,0,0,8.61.4,10.45,10.45,0,0,0,5.27-2.31,4.94,4.94,0,0,0,.65-.64,4.16,4.16,0,0,0,.43-.51C316.48,429.7,316.61,429.55,316.61,429.55Z" transform="translate(-52.95 -44.68)" style="fill:#263238"></path><path d="M314.9,441l-.37-.1-1-.36-3.78-1.39c-1.6-.6-3.49-1.32-5.62-2.05A24.71,24.71,0,0,0,297,435.6a27.2,27.2,0,0,0-12.85,2.63,30.3,30.3,0,0,0-3.49,2l-.89.63a2.8,2.8,0,0,1-.33.21s.1-.09.3-.24l.87-.66a27.44,27.44,0,0,1,3.48-2A26.74,26.74,0,0,1,297,435.39a24.72,24.72,0,0,1,7.17,1.48c2.13.74,4,1.48,5.6,2.09l3.75,1.46,1,.39Z" transform="translate(-52.95 -44.68)" style="fill:#263238"></path><path d="M345.77,437a5.06,5.06,0,0,0,1.69.24,4.89,4.89,0,0,0,2-.49,4.58,4.58,0,0,0,2-1.81l0,.09a13.55,13.55,0,0,0-5.9,0,12.15,12.15,0,0,0-3.3,1.22,2.93,2.93,0,0,0-1.24,1.32,1.34,1.34,0,0,0,.54,1.63c1.12.7,2.62.54,4,.6a37.29,37.29,0,0,0,4.42-.27,38,38,0,0,0,4.57-.84,11.22,11.22,0,0,0,2.25-.75,2.68,2.68,0,0,0,1.53-1.68,2.14,2.14,0,0,0-.4-1.77,4.65,4.65,0,0,0-1.4-1.25,7.36,7.36,0,0,0-1.72-.77,16.49,16.49,0,0,0-1.79-.51,21.32,21.32,0,0,0-7.08-.36,33.09,33.09,0,0,0-11.47,3.61c-3.07,1.55-5.43,3.06-7.07,4.08l-1.88,1.18-.66.41.64-.44,1.86-1.22a80.55,80.55,0,0,1,7-4.15A33.52,33.52,0,0,1,346,431.34a21.68,21.68,0,0,1,7.14.36,17.06,17.06,0,0,1,1.82.52,7.88,7.88,0,0,1,1.76.78,4.8,4.8,0,0,1,1.46,1.31,2.39,2.39,0,0,1,.44,1.94,2.92,2.92,0,0,1-1.65,1.82,11.39,11.39,0,0,1-2.29.76,38.12,38.12,0,0,1-4.6.84,35.56,35.56,0,0,1-4.44.26c-.72,0-1.43,0-2.13-.06a4.11,4.11,0,0,1-2-.58,1.51,1.51,0,0,1-.6-1.84,3.15,3.15,0,0,1,1.31-1.41,12.42,12.42,0,0,1,3.36-1.22,13.78,13.78,0,0,1,6,.06l.08,0,0,.07a4.71,4.71,0,0,1-2.08,1.83,4.87,4.87,0,0,1-3.29.32A4.06,4.06,0,0,1,345.77,437Z" transform="translate(-52.95 -44.68)" style="fill:#263238"></path><path d="M377.4,429.55s0,.07-.1.19l-.34.52c-.29.45-.74,1.08-1.33,1.84a28.44,28.44,0,0,1-5.28,5.31,18.83,18.83,0,0,1-6.76,3.21,12.22,12.22,0,0,1-3.08.38s.3,0,.83-.11a16.29,16.29,0,0,0,2.22-.42,19.35,19.35,0,0,0,6.66-3.23,29.73,29.73,0,0,0,5.29-5.23c.6-.74,1.07-1.36,1.39-1.8.13-.17.25-.33.36-.49Z" transform="translate(-52.95 -44.68)" style="fill:#263238"></path><path d="M401.76,429.64l-.32.05-.92.09c-.79.07-1.94.22-3.36.45a53.7,53.7,0,0,0-10.74,3,53.07,53.07,0,0,0-9.9,5.16c-1.19.79-2.13,1.47-2.76,2l-.74.56-.26.18a36.17,36.17,0,0,1,3.68-2.82,50.93,50.93,0,0,1,20.7-8.17A37,37,0,0,1,401.76,429.64Z" transform="translate(-52.95 -44.68)" style="fill:#263238"></path><path d="M450.76,429.56s-.1.14-.32.41a13,13,0,0,1-1,1.1,16.3,16.3,0,0,1-4.57,3,24.71,24.71,0,0,1-7.9,2,61,61,0,0,1-10-.17,78,78,0,0,0-9.95-.34,27.65,27.65,0,0,0-7.91,1.63,18.81,18.81,0,0,0-4.79,2.62c-.5.4-.89.72-1.13,1s-.39.34-.39.34l.36-.37c.24-.25.61-.58,1.11-1a18.39,18.39,0,0,1,4.78-2.69,27.52,27.52,0,0,1,8-1.68,74.47,74.47,0,0,1,10,.32,63.26,63.26,0,0,0,9.94.19,24.83,24.83,0,0,0,7.85-1.9,16.45,16.45,0,0,0,4.57-2.94,13.48,13.48,0,0,0,1-1.07Z" transform="translate(-52.95 -44.68)" style="fill:#263238"></path><path d="M480.76,435.85l-.4-.05a9.79,9.79,0,0,0-5.6,1v-.08a47.74,47.74,0,0,0,10.77.91c1.1,0,2.25-.09,3.42-.22a2.7,2.7,0,0,0,1.59-.68,1.1,1.1,0,0,0-.13-1.57,3.5,3.5,0,0,0-1.72-.76c-.63-.11-1.31-.15-2-.22-1.34-.12-2.73-.19-4.16-.23a67,67,0,0,0-8.94.38c-1.55.17-3.12.4-4.72.7a14.7,14.7,0,0,0-2.36.55,2,2,0,0,0-.93.7,1,1,0,0,0,0,1.07,3.46,3.46,0,0,0,2.16,1c.83.2,1.66.39,2.51.55,1.68.34,3.41.6,5.17.8a63.55,63.55,0,0,0,10.81.3,62.37,62.37,0,0,0,7.31-.85c1.19-.21,2.37-.45,3.53-.73a6.67,6.67,0,0,0,3.21-1.28,2,2,0,0,0,.56-1.51,1.43,1.43,0,0,0-1-1.18c-1.06-.41-2.17-.73-3.23-1.09s-2.17-.58-3.24-.86-2.15-.44-3.2-.65a57.46,57.46,0,0,0-22.74.73,55.67,55.67,0,0,0-14.37,5.52l-2.1,1.2-1.49,1c-.81.53-1.24.79-1.24.79l1.21-.82,1.48-1,2.1-1.22a55.19,55.19,0,0,1,14.38-5.59,57.48,57.48,0,0,1,22.8-.78c1.06.21,2.14.39,3.22.65s2.16.53,3.24.86,2.17.68,3.26,1.09a1.67,1.67,0,0,1,1.12,1.35,2.17,2.17,0,0,1-.63,1.67,6.66,6.66,0,0,1-3.3,1.34c-1.16.29-2.35.52-3.54.73a61,61,0,0,1-7.34.86,64,64,0,0,1-10.85-.3c-1.76-.2-3.49-.47-5.18-.81-.85-.16-1.69-.36-2.51-.55a3.64,3.64,0,0,1-2.29-1.13,1.18,1.18,0,0,1,0-1.29,2.23,2.23,0,0,1,1-.77,14.87,14.87,0,0,1,2.4-.56c1.6-.3,3.17-.52,4.73-.69a64.12,64.12,0,0,1,9-.37c1.43,0,2.82.11,4.17.24.67.06,1.33.11,2,.22a3.79,3.79,0,0,1,1.79.8,1.24,1.24,0,0,1,.14,1.78,2.73,2.73,0,0,1-1.68.73c-1.19.13-2.33.19-3.43.22a47.94,47.94,0,0,1-10.79-1l-.12,0,.11,0a9.79,9.79,0,0,1,4.45-1A7.42,7.42,0,0,1,480.76,435.85Z" transform="translate(-52.95 -44.68)" style="fill:#263238"></path><path d="M517.42,429.75s.43,0,1.19.11a17.6,17.6,0,0,1,5.25,1.62,9.4,9.4,0,0,1,2.19,1.4,4,4,0,0,1,1.43,2.47,3.4,3.4,0,0,1-1.15,2.82,7.1,7.1,0,0,1-2.72,1.44c-.94.31-1.86.56-2.75.76a30,30,0,0,1-4.79.69,24.42,24.42,0,0,1-4.44-.1h.3l.89,0c.76,0,1.87,0,3.24-.08a30.92,30.92,0,0,0,4.75-.72c.89-.21,1.8-.46,2.74-.77a7.1,7.1,0,0,0,2.64-1.4,3.18,3.18,0,0,0,1.08-2.64,3.83,3.83,0,0,0-1.35-2.36,9.48,9.48,0,0,0-2.13-1.39,16.38,16.38,0,0,0-2.06-.87,18.79,18.79,0,0,0-3.13-.82c-.38-.07-.67-.11-.87-.13Z" transform="translate(-52.95 -44.68)" style="fill:#263238"></path><path d="M535.89,429.55a2.12,2.12,0,0,1,.43.32,6.36,6.36,0,0,1,1,1.07,6.89,6.89,0,0,1-.47,8.88,6.81,6.81,0,0,1-1.09,1,2.55,2.55,0,0,1-.45.27,11.68,11.68,0,0,0,1.43-1.33,6.92,6.92,0,0,0,.46-8.7A12.34,12.34,0,0,0,535.89,429.55Z" transform="translate(-52.95 -44.68)" style="fill:#263238"></path><path d="M555,429.87a4.05,4.05,0,0,1-.68.24c-.44.13-1.07.35-1.83.66a20.86,20.86,0,0,0-9.67,8.16,18.06,18.06,0,0,0-1,1.69,5.56,5.56,0,0,1-.34.63s0-.06.06-.18.14-.32.21-.49a16.14,16.14,0,0,1,.91-1.73,19.89,19.89,0,0,1,9.74-8.21,14.4,14.4,0,0,1,1.87-.61l.52-.13Z" transform="translate(-52.95 -44.68)" style="fill:#263238"></path><path d="M626.52,440.68l-.8,0a13.25,13.25,0,0,1-2.31-.14,23.8,23.8,0,0,1-3.59-.76c-1.37-.39-2.91-.92-4.61-1.5a43.33,43.33,0,0,0-5.64-1.59,17,17,0,0,0-6.66.06c-2.32.45-4.7,1.26-7.3,1.52a15,15,0,0,1-7.8-1.57,67.69,67.69,0,0,0-7.31-3.2,26.78,26.78,0,0,0-7.3-1.23,27.64,27.64,0,0,0-6.68.57,28.37,28.37,0,0,0-5.58,1.74,26.81,26.81,0,0,0-7.17,4.47,18.93,18.93,0,0,0-1.68,1.58l-.58.56s.18-.21.55-.59a18.4,18.4,0,0,1,1.65-1.62,26.65,26.65,0,0,1,7.17-4.53,28,28,0,0,1,5.61-1.78,27.41,27.41,0,0,1,6.72-.59,26.81,26.81,0,0,1,7.35,1.23,67.5,67.5,0,0,1,7.34,3.2,14.59,14.59,0,0,0,7.69,1.55,73.67,73.67,0,0,0,7.28-1.5,17.15,17.15,0,0,1,6.73,0,44.21,44.21,0,0,1,5.66,1.62c1.69.59,3.23,1.13,4.59,1.53a25.78,25.78,0,0,0,3.57.79,15.27,15.27,0,0,0,2.3.18Z" transform="translate(-52.95 -44.68)" style="fill:#263238"></path><path d="M608.44,430.39l.18.08.51.27c.43.24,1.07.56,1.86.94a37,37,0,0,0,6.45,2.35,38.2,38.2,0,0,0,6.78,1.1c.88.06,1.59.08,2.09.09h.56l.2,0s-.07,0-.2,0l-.56,0c-.5,0-1.21,0-2.1,0a33.25,33.25,0,0,1-6.82-1,32.74,32.74,0,0,1-6.46-2.42c-.79-.4-1.42-.74-1.84-1l-.49-.3C608.49,430.44,608.44,430.4,608.44,430.39Z" transform="translate(-52.95 -44.68)" style="fill:#263238"></path><rect x="222.09" y="407.74" width="362.37" height="11.5" style="fill:#455a64"></rect><path d="M326.9,452.42s-.1.17-.31.47a4,4,0,0,1-.42.52,5.7,5.7,0,0,1-.65.66,10.32,10.32,0,0,1-5.29,2.4,24,24,0,0,1-8.67-.36c-3.21-.55-6.75-1.49-10.51-1.11a23.43,23.43,0,0,0-5.36,1.15c-1.69.54-3.28,1.17-4.79,1.81-3,1.28-5.69,2.5-8,3.31a27.07,27.07,0,0,1-5.68,1.43,18.48,18.48,0,0,1-2.14.15l.55-.06c.36-.05.9,0,1.58-.17a28.2,28.2,0,0,0,5.64-1.49c2.33-.82,5-2.05,8-3.35,1.5-.64,3.1-1.28,4.8-1.83a24.1,24.1,0,0,1,5.4-1.16c3.81-.38,7.37.57,10.57,1.13a24,24,0,0,0,8.6.4,10.41,10.41,0,0,0,5.27-2.31,4.94,4.94,0,0,0,.65-.64,4.36,4.36,0,0,0,.44-.51C326.77,452.57,326.9,452.42,326.9,452.42Z" transform="translate(-52.95 -44.68)" style="fill:#263238"></path><path d="M325.19,463.82l-.36-.1-1-.36L320,462c-1.59-.6-3.49-1.32-5.61-2a24.85,24.85,0,0,0-7.12-1.46,27.16,27.16,0,0,0-12.84,2.63,31.51,31.51,0,0,0-3.5,2l-.89.63a3.57,3.57,0,0,1-.32.21,3,3,0,0,1,.29-.24l.88-.66a26.58,26.58,0,0,1,16.39-4.76,24.72,24.72,0,0,1,7.17,1.48c2.13.74,4,1.48,5.6,2.09l3.76,1.46,1,.39Z" transform="translate(-52.95 -44.68)" style="fill:#263238"></path><path d="M356.06,459.84a5.06,5.06,0,0,0,1.69.24,5,5,0,0,0,2-.49,4.63,4.63,0,0,0,2-1.81l0,.09a13.51,13.51,0,0,0-5.89,0,11.91,11.91,0,0,0-3.3,1.22,3,3,0,0,0-1.25,1.32,1.35,1.35,0,0,0,.54,1.63c1.13.71,2.62.55,4,.6a37.17,37.17,0,0,0,4.42-.27,37.66,37.66,0,0,0,4.57-.84,10.44,10.44,0,0,0,2.25-.75,2.67,2.67,0,0,0,1.54-1.68,2.21,2.21,0,0,0-.4-1.77,4.83,4.83,0,0,0-1.41-1.25,7.53,7.53,0,0,0-1.71-.77q-.9-.3-1.8-.51a21.31,21.31,0,0,0-7.08-.36A33.09,33.09,0,0,0,344.81,458c-3.07,1.55-5.43,3.06-7.07,4.08l-1.87,1.18-.66.41s.21-.16.63-.44L337.7,462a81,81,0,0,1,7.05-4.15,33.25,33.25,0,0,1,11.51-3.66,21.47,21.47,0,0,1,7.15.35,17.58,17.58,0,0,1,1.81.52,7.88,7.88,0,0,1,1.76.78,5.1,5.1,0,0,1,1.47,1.31,2.43,2.43,0,0,1,.43,1.94,2.9,2.9,0,0,1-1.65,1.82,10.61,10.61,0,0,1-2.29.76,36.11,36.11,0,0,1-4.59.84,35.72,35.72,0,0,1-4.45.26c-.72,0-1.43,0-2.13-.06a4.21,4.21,0,0,1-2-.57,1.53,1.53,0,0,1-.6-1.85,3.17,3.17,0,0,1,1.32-1.41,12.24,12.24,0,0,1,3.35-1.22,13.78,13.78,0,0,1,6,.06l.08,0,0,.07a4.74,4.74,0,0,1-2.07,1.83,5,5,0,0,1-2,.47,4.76,4.76,0,0,1-1.27-.15Z" transform="translate(-52.95 -44.68)" style="fill:#263238"></path><path d="M387.69,452.42s0,.07-.1.19l-.34.52c-.29.45-.74,1.08-1.33,1.84a28.14,28.14,0,0,1-5.28,5.31,18.79,18.79,0,0,1-6.75,3.21,12.26,12.26,0,0,1-3.08.38,7.79,7.79,0,0,1,.82-.11,17.32,17.32,0,0,0,2.22-.41,19.41,19.41,0,0,0,6.66-3.24,29.73,29.73,0,0,0,5.29-5.23c.61-.74,1.07-1.36,1.39-1.79l.36-.5Z" transform="translate(-52.95 -44.68)" style="fill:#263238"></path><path d="M412.05,452.51l-.32.05-.91.09c-.8.07-1.95.22-3.36.45a53.45,53.45,0,0,0-20.65,8.15c-1.19.79-2.13,1.47-2.76,2l-.73.56a1.18,1.18,0,0,1-.27.18,36.17,36.17,0,0,1,3.68-2.82,50.93,50.93,0,0,1,20.7-8.17A37,37,0,0,1,412.05,452.51Z" transform="translate(-52.95 -44.68)" style="fill:#263238"></path><path d="M461.06,452.43s-.11.15-.33.41a11.51,11.51,0,0,1-1,1.1,16.08,16.08,0,0,1-4.57,3,24.64,24.64,0,0,1-7.89,2,61.15,61.15,0,0,1-10-.17,77.86,77.86,0,0,0-9.94-.34,27.72,27.72,0,0,0-7.92,1.63,18.54,18.54,0,0,0-4.78,2.62q-.76.6-1.14,1c-.25.23-.39.34-.39.34l.36-.37c.24-.25.62-.58,1.12-1a18.05,18.05,0,0,1,4.78-2.69,27.45,27.45,0,0,1,7.95-1.68,74.42,74.42,0,0,1,10,.32,63.26,63.26,0,0,0,9.94.19,24.77,24.77,0,0,0,7.85-1.9,16.53,16.53,0,0,0,4.58-2.94,13,13,0,0,0,1-1.07Z" transform="translate(-52.95 -44.68)" style="fill:#263238"></path><path d="M491.06,458.72l-.4-.05a10.86,10.86,0,0,0-1.19-.06,9.69,9.69,0,0,0-4.41,1.05v-.07a48.29,48.29,0,0,0,10.77.9c1.09,0,2.24-.09,3.41-.22a2.7,2.7,0,0,0,1.59-.68,1.1,1.1,0,0,0-.13-1.57,3.59,3.59,0,0,0-1.72-.76c-.63-.11-1.31-.15-2-.22-1.35-.12-2.74-.19-4.16-.23a65.5,65.5,0,0,0-8.95.39q-2.33.24-4.71.69a14.21,14.21,0,0,0-2.36.55,2,2,0,0,0-.94.7,1,1,0,0,0,0,1.07,3.48,3.48,0,0,0,2.16,1c.83.2,1.66.39,2.51.55,1.69.34,3.41.6,5.17.8a63.38,63.38,0,0,0,18.12-.55c1.2-.21,2.38-.45,3.53-.73a6.59,6.59,0,0,0,3.21-1.28,2,2,0,0,0,.57-1.51,1.46,1.46,0,0,0-1-1.18c-1.06-.41-2.17-.73-3.23-1.09s-2.17-.58-3.23-.86-2.16-.44-3.21-.65a57.64,57.64,0,0,0-22.74.73A56,56,0,0,0,463.37,461l-2.1,1.2-1.49,1-1.23.8,1.21-.83,1.48-1,2.09-1.22a55.19,55.19,0,0,1,14.38-5.59,57.49,57.49,0,0,1,22.8-.78c1.06.21,2.14.39,3.22.65s2.16.53,3.25.86,2.16.68,3.25,1.1a1.65,1.65,0,0,1,1.12,1.34,2.19,2.19,0,0,1-.63,1.68,6.74,6.74,0,0,1-3.3,1.33c-1.16.29-2.34.52-3.54.73a60.8,60.8,0,0,1-7.34.86,63.93,63.93,0,0,1-10.84-.3c-1.76-.2-3.5-.47-5.19-.81-.85-.16-1.68-.35-2.51-.55a3.59,3.59,0,0,1-2.28-1.13,1.18,1.18,0,0,1,0-1.29,2.29,2.29,0,0,1,1-.77,14.87,14.87,0,0,1,2.4-.56c1.6-.3,3.18-.52,4.73-.69a65.68,65.68,0,0,1,9-.37c1.43,0,2.82.11,4.17.24.68.06,1.33.11,2,.22a3.75,3.75,0,0,1,1.78.8,1.26,1.26,0,0,1,.15,1.79,2.82,2.82,0,0,1-1.69.72c-1.19.13-2.33.19-3.43.22a48,48,0,0,1-10.79-1l-.12,0,.11-.05a9.81,9.81,0,0,1,4.45-1A7.6,7.6,0,0,1,491.06,458.72Z" transform="translate(-52.95 -44.68)" style="fill:#263238"></path><path d="M527.71,452.63a10.16,10.16,0,0,1,1.19.1,16.07,16.07,0,0,1,3.17.76,16.55,16.55,0,0,1,2.09.86,9.34,9.34,0,0,1,2.18,1.4,4,4,0,0,1,1.43,2.47,3.37,3.37,0,0,1-1.15,2.82,7.26,7.26,0,0,1-2.72,1.45c-.94.3-1.86.55-2.75.75a30,30,0,0,1-4.79.69,24.42,24.42,0,0,1-4.44-.1h.31l.88,0c.77,0,1.88,0,3.24-.08a31.21,31.21,0,0,0,4.76-.72c.88-.21,1.79-.46,2.73-.77a7,7,0,0,0,2.64-1.4,3.22,3.22,0,0,0,1.09-2.64,3.84,3.84,0,0,0-1.36-2.35,9,9,0,0,0-2.13-1.4,18.77,18.77,0,0,0-5.19-1.69c-.38-.07-.67-.11-.87-.13Z" transform="translate(-52.95 -44.68)" style="fill:#263238"></path><path d="M546.18,452.42a2.12,2.12,0,0,1,.43.32,6.36,6.36,0,0,1,1,1.07,6.86,6.86,0,0,1-.47,8.88,6.34,6.34,0,0,1-1.08,1,2.8,2.8,0,0,1-.46.27,11.68,11.68,0,0,0,1.43-1.33,7.3,7.3,0,0,0,1.77-4.27,7.18,7.18,0,0,0-1.31-4.43A12.34,12.34,0,0,0,546.18,452.42Z" transform="translate(-52.95 -44.68)" style="fill:#263238"></path><path d="M565.31,452.74a4.05,4.05,0,0,1-.68.24c-.44.13-1.07.35-1.83.66a21.23,21.23,0,0,0-5.47,3.33,21,21,0,0,0-4.2,4.83c-.44.69-.76,1.28-1,1.69a5.56,5.56,0,0,1-.34.63s0-.06.06-.18l.21-.49a16.14,16.14,0,0,1,.91-1.73,19.89,19.89,0,0,1,9.74-8.21,16.16,16.16,0,0,1,1.87-.61l.52-.13Z" transform="translate(-52.95 -44.68)" style="fill:#263238"></path><path d="M636.81,463.55l-.8,0a13.3,13.3,0,0,1-2.31-.14,24.05,24.05,0,0,1-3.59-.76c-1.37-.39-2.91-.92-4.61-1.5a43.33,43.33,0,0,0-5.64-1.59,17,17,0,0,0-6.66.06,73.3,73.3,0,0,1-7.3,1.52,15,15,0,0,1-7.8-1.57,68.82,68.82,0,0,0-7.31-3.2,27.1,27.1,0,0,0-7.3-1.23,27.64,27.64,0,0,0-6.68.57,28.58,28.58,0,0,0-5.58,1.74,26.81,26.81,0,0,0-7.17,4.47,18.93,18.93,0,0,0-1.68,1.58c-.37.37-.58.56-.58.56s.18-.21.55-.59a17.27,17.27,0,0,1,1.65-1.61,26.48,26.48,0,0,1,7.18-4.54,27.69,27.69,0,0,1,5.6-1.78,27.41,27.41,0,0,1,6.72-.59,26.74,26.74,0,0,1,7.35,1.23,67.5,67.5,0,0,1,7.34,3.2,14.61,14.61,0,0,0,7.69,1.55c2.57-.24,5-1,7.28-1.49a17,17,0,0,1,6.74-.05,42.88,42.88,0,0,1,5.65,1.63c1.7.58,3.23,1.12,4.6,1.52a25.37,25.37,0,0,0,3.56.79,15.27,15.27,0,0,0,2.3.18Z" transform="translate(-52.95 -44.68)" style="fill:#263238"></path><path d="M618.73,453.26l.19.08.5.27c.43.24,1.07.56,1.86.94a37,37,0,0,0,6.45,2.35,37.57,37.57,0,0,0,6.78,1.1c.88.06,1.59.08,2.09.09h.57l.19,0s-.06,0-.19,0l-.57,0c-.5,0-1.21,0-2.1,0a33.37,33.37,0,0,1-13.28-3.46c-.79-.4-1.42-.74-1.84-1l-.49-.3Z" transform="translate(-52.95 -44.68)" style="fill:#263238"></path><rect x="255.82" y="441.06" width="362.37" height="11.5" transform="translate(821.07 848.94) rotate(180)" style="fill:#263238"></rect><path d="M566.33,452.56s.1-.16.31-.46a4,4,0,0,1,.42-.53,5,5,0,0,1,.65-.66,10.36,10.36,0,0,1,5.29-2.39,24,24,0,0,1,8.67.35c3.21.56,6.75,1.49,10.51,1.12a24,24,0,0,0,5.36-1.15c1.69-.54,3.28-1.18,4.78-1.82,3-1.28,5.7-2.5,8-3.31a28.46,28.46,0,0,1,5.69-1.43,18.48,18.48,0,0,1,2.14-.15l-.55.06c-.36.05-.9.05-1.58.17a29.15,29.15,0,0,0-5.65,1.49c-2.33.83-5,2.06-8,3.35a50.55,50.55,0,0,1-4.8,1.83,23.15,23.15,0,0,1-5.4,1.16c-3.81.38-7.37-.57-10.57-1.13a24.22,24.22,0,0,0-8.6-.4,10.5,10.5,0,0,0-5.27,2.31,6.62,6.62,0,0,0-.65.64,3.57,3.57,0,0,0-.44.51Z" transform="translate(-52.95 -44.68)" style="fill:#455a64"></path><path d="M568,441.16l.36.11,1,.35,3.78,1.4c1.59.59,3.49,1.32,5.61,2a24.52,24.52,0,0,0,7.12,1.45,26.94,26.94,0,0,0,12.84-2.63,30,30,0,0,0,3.5-2l.89-.63.32-.21-.29.24-.88.67a26.74,26.74,0,0,1-16.39,4.75,24.72,24.72,0,0,1-7.17-1.48c-2.13-.73-4-1.47-5.6-2.09l-3.76-1.45-1-.39A3.05,3.05,0,0,1,568,441.16Z" transform="translate(-52.95 -44.68)" style="fill:#455a64"></path><path d="M537.17,445.15a4.87,4.87,0,0,0-1.69-.25,5.15,5.15,0,0,0-2,.49,4.71,4.71,0,0,0-2,1.81l0-.08a13.57,13.57,0,0,0,5.9,0,11.88,11.88,0,0,0,3.3-1.21,3,3,0,0,0,1.25-1.33,1.35,1.35,0,0,0-.54-1.63c-1.13-.7-2.62-.54-4-.6a39.4,39.4,0,0,0-4.42.27,37.31,37.31,0,0,0-4.57.84,11,11,0,0,0-2.25.75,2.72,2.72,0,0,0-1.54,1.68,2.16,2.16,0,0,0,.4,1.77,4.82,4.82,0,0,0,1.4,1.26,7.77,7.77,0,0,0,1.72.76,14.65,14.65,0,0,0,1.8.51,21.32,21.32,0,0,0,7.08.37A33.52,33.52,0,0,0,548.42,447c3.07-1.56,5.43-3.06,7.06-4.08l1.88-1.19.66-.4-.64.44L555.53,443a81.38,81.38,0,0,1-7,4.14A33.32,33.32,0,0,1,537,450.77a21.48,21.48,0,0,1-7.15-.36,16.2,16.2,0,0,1-1.81-.51,7.72,7.72,0,0,1-1.76-.79,5,5,0,0,1-1.47-1.31,2.35,2.35,0,0,1-.43-1.94,2.87,2.87,0,0,1,1.64-1.81,10.91,10.91,0,0,1,2.3-.77,37.22,37.22,0,0,1,9-1.1c.72,0,1.43,0,2.13.06a4.11,4.11,0,0,1,2,.58,1.52,1.52,0,0,1,.6,1.84,3.12,3.12,0,0,1-1.32,1.41,11.87,11.87,0,0,1-3.36,1.22,13.43,13.43,0,0,1-6-.06l-.08,0,0-.07a4.81,4.81,0,0,1,2.07-1.83,5,5,0,0,1,2-.47,4.34,4.34,0,0,1,1.28.16Z" transform="translate(-52.95 -44.68)" style="fill:#455a64"></path><path d="M505.53,452.56a1.34,1.34,0,0,1,.11-.19c.11-.16.22-.33.33-.52.3-.44.75-1.08,1.34-1.84a28.74,28.74,0,0,1,5.28-5.31,18.75,18.75,0,0,1,6.75-3.2,12.26,12.26,0,0,1,3.08-.38,7.15,7.15,0,0,1-.82.1,16,16,0,0,0-2.22.42,19.3,19.3,0,0,0-6.67,3.23,31.15,31.15,0,0,0-5.29,5.23c-.6.75-1.06,1.37-1.38,1.8l-.37.5A.61.61,0,0,1,505.53,452.56Z" transform="translate(-52.95 -44.68)" style="fill:#455a64"></path><path d="M481.18,452.47l.32,0,.91-.1c.8-.07,1.95-.22,3.36-.45a53.59,53.59,0,0,0,10.75-3,54.38,54.38,0,0,0,9.9-5.15c1.19-.8,2.13-1.47,2.76-2l.73-.56a1.41,1.41,0,0,1,.27-.18,37,37,0,0,1-3.68,2.83,51.07,51.07,0,0,1-9.9,5.23A51.78,51.78,0,0,1,485.8,452,35.54,35.54,0,0,1,481.18,452.47Z" transform="translate(-52.95 -44.68)" style="fill:#455a64"></path><path d="M432.17,452.55l.32-.41a13.54,13.54,0,0,1,1-1.1,16.15,16.15,0,0,1,4.57-3,24.9,24.9,0,0,1,7.89-2,62.3,62.3,0,0,1,10,.17,74.3,74.3,0,0,0,9.94.34A27.38,27.38,0,0,0,473.8,445a18.74,18.74,0,0,0,4.78-2.61c.51-.4.89-.73,1.14-1s.39-.34.39-.34l-.37.38a11.94,11.94,0,0,1-1.11,1,18.22,18.22,0,0,1-4.78,2.69,27.19,27.19,0,0,1-8,1.68,72.7,72.7,0,0,1-10-.32,63.3,63.3,0,0,0-9.94-.19,25.32,25.32,0,0,0-7.85,1.9,16.76,16.76,0,0,0-4.58,2.94,14.85,14.85,0,0,0-1,1.07C432.3,452.43,432.17,452.55,432.17,452.55Z" transform="translate(-52.95 -44.68)" style="fill:#455a64"></path><path d="M402.17,446.26l.4.05a10.21,10.21,0,0,0,1.19.07,9.86,9.86,0,0,0,4.41-1.06v.08a48.21,48.21,0,0,0-10.77-.91c-1.09,0-2.24.1-3.42.22a2.65,2.65,0,0,0-1.58.69,1.09,1.09,0,0,0,.13,1.57,3.65,3.65,0,0,0,1.71.76c.64.1,1.31.15,2,.21,1.35.13,2.74.2,4.16.23a65.44,65.44,0,0,0,8.95-.38c1.55-.17,3.12-.4,4.71-.7a14.21,14.21,0,0,0,2.36-.55,2.07,2.07,0,0,0,.94-.69,1,1,0,0,0,0-1.08,3.54,3.54,0,0,0-2.17-1c-.82-.19-1.66-.39-2.5-.55-1.69-.34-3.42-.6-5.17-.8a63.58,63.58,0,0,0-10.81-.3,64.76,64.76,0,0,0-7.32.85c-1.19.21-2.37.45-3.53.73a6.59,6.59,0,0,0-3.2,1.28,2,2,0,0,0-.57,1.51,1.44,1.44,0,0,0,1,1.18c1.06.41,2.17.73,3.23,1.09s2.17.58,3.23.87,2.15.43,3.21.65a57.58,57.58,0,0,0,22.73-.74A55.53,55.53,0,0,0,429.85,444l2.11-1.2,1.49-1,1.23-.79s-.41.29-1.21.82l-1.48,1-2.1,1.22a55.26,55.26,0,0,1-14.37,5.6,57.68,57.68,0,0,1-22.8.78c-1.06-.22-2.15-.39-3.22-.65s-2.17-.53-3.25-.87-2.16-.67-3.25-1.09a1.67,1.67,0,0,1-1.12-1.35,2.2,2.2,0,0,1,.62-1.67,6.79,6.79,0,0,1,3.31-1.34c1.16-.28,2.34-.52,3.54-.73a64.84,64.84,0,0,1,7.34-.86,63.92,63.92,0,0,1,10.84.31c1.76.2,3.5.46,5.19.81.85.16,1.68.35,2.51.55a3.61,3.61,0,0,1,2.28,1.13,1.18,1.18,0,0,1,0,1.29,2.4,2.4,0,0,1-1,.76,14.91,14.91,0,0,1-2.4.57c-1.6.29-3.18.52-4.73.69a67.38,67.38,0,0,1-9,.37q-2.14-.06-4.17-.24c-.68-.07-1.34-.12-2-.23a3.69,3.69,0,0,1-1.79-.8,1.26,1.26,0,0,1-.14-1.78,2.77,2.77,0,0,1,1.68-.73c1.19-.13,2.34-.18,3.44-.21a47.42,47.42,0,0,1,10.79,1l.12,0-.11.05a9.71,9.71,0,0,1-4.45,1A7.6,7.6,0,0,1,402.17,446.26Z" transform="translate(-52.95 -44.68)" style="fill:#455a64"></path><path d="M365.51,452.36a9.4,9.4,0,0,1-1.19-.11,17,17,0,0,1-3.17-.75,17.23,17.23,0,0,1-2.08-.87,9,9,0,0,1-2.18-1.4,4,4,0,0,1-1.43-2.47,3.35,3.35,0,0,1,1.15-2.81,7.15,7.15,0,0,1,2.71-1.45c.95-.31,1.87-.56,2.76-.76a29.9,29.9,0,0,1,4.78-.68,23.4,23.4,0,0,1,4.45.1H371l-.88,0c-.77,0-1.88,0-3.25.07a32.75,32.75,0,0,0-4.75.73c-.88.2-1.8.46-2.73.76a6.9,6.9,0,0,0-2.64,1.41,3.2,3.2,0,0,0-1.09,2.64,3.79,3.79,0,0,0,1.36,2.35,9.26,9.26,0,0,0,2.13,1.39,18.86,18.86,0,0,0,2.05.88,18.41,18.41,0,0,0,3.14.81c.37.07.67.11.87.14A.93.93,0,0,1,365.51,452.36Z" transform="translate(-52.95 -44.68)" style="fill:#455a64"></path><path d="M347,452.56a2.1,2.1,0,0,1-.42-.32,6.21,6.21,0,0,1-1-1.06,6.87,6.87,0,0,1,.46-8.88,6.89,6.89,0,0,1,1.09-1,2.38,2.38,0,0,1,.46-.27,12.92,12.92,0,0,0-1.44,1.34,6.93,6.93,0,0,0-.45,8.69A13,13,0,0,0,347,452.56Z" transform="translate(-52.95 -44.68)" style="fill:#455a64"></path><path d="M327.92,452.24a4.31,4.31,0,0,1,.68-.23c.44-.13,1.07-.36,1.83-.67a20.91,20.91,0,0,0,9.67-8.15c.43-.7.76-1.28,1-1.7a5.53,5.53,0,0,1,.35-.63s0,.07-.06.18l-.21.49a14.08,14.08,0,0,1-.92,1.73,19.86,19.86,0,0,1-9.74,8.22,15.13,15.13,0,0,1-1.86.6l-.52.13Z" transform="translate(-52.95 -44.68)" style="fill:#455a64"></path><path d="M256.41,441.43l.81,0a14.39,14.39,0,0,1,2.31.14,25,25,0,0,1,3.58.76c1.38.39,2.92.92,4.62,1.5a42.08,42.08,0,0,0,5.63,1.59,16.86,16.86,0,0,0,6.67-.06,73.35,73.35,0,0,1,7.3-1.51,14.81,14.81,0,0,1,7.79,1.56,65.91,65.91,0,0,0,7.32,3.2,27.12,27.12,0,0,0,7.29,1.24,27.54,27.54,0,0,0,6.68-.58,28.28,28.28,0,0,0,12.76-6.2,22.38,22.38,0,0,0,1.68-1.58c.37-.38.58-.57.58-.57l-.55.59a17.48,17.48,0,0,1-1.66,1.62,26.64,26.64,0,0,1-7.17,4.54,28.34,28.34,0,0,1-5.6,1.77,27.93,27.93,0,0,1-14.07-.63,67.85,67.85,0,0,1-7.34-3.21,14.81,14.81,0,0,0-7.69-1.55,73.28,73.28,0,0,0-7.29,1.5,17,17,0,0,1-6.73,0,41.44,41.44,0,0,1-5.65-1.62c-1.7-.59-3.23-1.13-4.6-1.53a25.68,25.68,0,0,0-3.56-.79,15.27,15.27,0,0,0-2.3-.18Z" transform="translate(-52.95 -44.68)" style="fill:#455a64"></path><path d="M274.49,451.72l-.18-.08-.5-.26c-.43-.24-1.07-.57-1.86-.94a37.93,37.93,0,0,0-6.46-2.36,37.17,37.17,0,0,0-6.78-1.09c-.87-.06-1.59-.09-2.08-.09l-.57,0c-.13,0-.2,0-.2,0l.2,0,.57,0c.49,0,1.21,0,2.09,0a33.94,33.94,0,0,1,6.83,1A34.6,34.6,0,0,1,272,450.3c.79.4,1.42.75,1.84,1l.48.3C274.44,451.67,274.5,451.71,274.49,451.72Z" transform="translate(-52.95 -44.68)" style="fill:#455a64"></path><path d="M627.12,441.05c0,.06-81.13.11-181.18.11s-181.2-.05-181.2-.11,81.11-.1,181.2-.1S627.12,441,627.12,441.05Z" transform="translate(-52.95 -44.68)" style="fill:#263238"></path><path d="M353.08,419.92a.52.52,0,0,1-.38.07,1.29,1.29,0,0,1-.93-.58,1.57,1.57,0,0,1-.06-1.73,2.78,2.78,0,0,1,1.93-1.26,4.83,4.83,0,0,1,5,2.72,5.29,5.29,0,0,1,.51,3.5,7.37,7.37,0,0,1-1.64,3.41,11,11,0,0,1-6.26,3.48,34.43,34.43,0,0,1-5.82.64c-1.65.07-3,.16-3.91.26a10.47,10.47,0,0,1-1.43.14,5.89,5.89,0,0,1,1.41-.34c.91-.16,2.25-.31,3.91-.43a38.65,38.65,0,0,0,5.74-.73,10.74,10.74,0,0,0,6-3.35c1.59-1.86,2.13-4.49,1.11-6.36a4.47,4.47,0,0,0-4.52-2.58,2.53,2.53,0,0,0-1.74,1.05,1.33,1.33,0,0,0,0,1.46,1.28,1.28,0,0,0,.78.6C353,419.93,353.08,419.9,353.08,419.92Z" transform="translate(-52.95 -44.68)" style="fill:#455a64"></path><path d="M344.91,426.35s-.21.22-.69.17a1.83,1.83,0,0,1-1.43-1.31,1.58,1.58,0,0,1,.27-1.4,2.2,2.2,0,0,1,1.41-.79,2.34,2.34,0,0,1,1.74.45,2.72,2.72,0,0,1,1,1.64A3.32,3.32,0,0,1,347,427a4.06,4.06,0,0,1-1,1.4,6.09,6.09,0,0,1-2.53,1.31,12,12,0,0,1-1.87.33c-.44,0-.69,0-.69,0s1-.22,2.45-.68a6,6,0,0,0,2.31-1.31,3.1,3.1,0,0,0,1-2.83,2.23,2.23,0,0,0-.76-1.34,1.81,1.81,0,0,0-1.36-.37,1.7,1.7,0,0,0-1.13.58,1.19,1.19,0,0,0-.26,1,1.68,1.68,0,0,0,1.11,1.2C344.65,426.42,344.89,426.3,344.91,426.35Z" transform="translate(-52.95 -44.68)" style="fill:#455a64"></path></g><g id="freepik--Character--inject-79"><path d="M306.68,399.78s-17.8.66-20.71-1.19-14.1-13.85-14.1-13.85l-34.68-32.43,25.05-10.68Z" transform="translate(-52.95 -44.68)" style="fill:#ffbe9d"></path><path d="M275.76,388.74a5.52,5.52,0,0,1-1-1.64,15.64,15.64,0,0,1-1.37-4.49,15.48,15.48,0,0,1,0-4.69,5.21,5.21,0,0,1,.52-1.88,29.3,29.3,0,0,0,0,6.49A30.64,30.64,0,0,0,275.76,388.74Z" transform="translate(-52.95 -44.68)" style="fill:#eb996e"></path><path d="M251.19,116.18c1.53,2.2,5.09,2,7.12.29s2.82-4.52,3.21-7.17.47-5.39,1.49-7.87a11.4,11.4,0,0,1,11.77-6.74c-2.51-5.22.52-12.34,6-14.14,2.58-.84,5.37-.63,8.06-1a22.86,22.86,0,0,0,4.52-1.07A14.55,14.55,0,0,1,287.73,76,10.06,10.06,0,0,1,284,67.08a9.09,9.09,0,0,1,6-7.42,8.33,8.33,0,0,1,9,2.83c2,2.68,2,6.25,2,9.57,0,1,0,2.06,0,3.09,6.11-3.12,12.07-6.52,18.65-5.47,6,.95,10.71,5.42,16.32,7.65,4.08,1.63,8.56,2,12.71,3.52s8.21,4.48,9,8.82c.45,2.54-.3,5.18.18,7.72,1,5.24,6.86,8.74,7.17,14.07.26,4.32-3.29,7.91-4.32,12.12-1.12,4.58.82,9.26,2.08,13.81s1.57,10.09-1.91,13.27c-3.06,2.8-8,2.71-11,5.56-2.2,2.08-2.87,5.24-4.14,8s-3.92,5.44-6.87,4.77l-34-6.66c-12.44-.81-25.24-1.71-36.45-7.17s-20.58-16.64-20-29.1a7.14,7.14,0,0,0,5.28.16A12,12,0,0,1,251.19,116.18Z" transform="translate(-52.95 -44.68)" style="fill:#263238"></path><path d="M271.33,137.64c1.22-8.86,2.5-17.77,5.23-26.28s7-16.71,13.46-22.89c1-.94,8.32-6.85,9.48-6.15.83.51-4.88,6.58-4.8,7.55.7,9.22-2.36,18.42-7.05,26.39a121.32,121.32,0,0,1-16.32,21.38" transform="translate(-52.95 -44.68)" style="fill:#263238"></path><path d="M265.55,217.44C253.2,211.13,252.27,177,252.27,177l33.15-70.45c9.13-20.49,28.66-32.26,48.89-22.57l1.81,1a40.1,40.1,0,0,1,17.15,51.61c-8,17.72-17.08,37.19-22.22,46.22C320.4,201.52,299.94,194,299.94,194s-2.28,4.43-5.1,10.08c-6.32,12.71-24.5,16.18-29.29,13.32Z" transform="translate(-52.95 -44.68)" style="fill:#ffbe9d"></path><path d="M299.94,194s-12.26-5.87-20.51-20.81c0,0-1.6,17,18.13,25.7Z" transform="translate(-52.95 -44.68)" style="fill:#eb996e"></path><path d="M337.57,147.72a3.08,3.08,0,0,1-4.1,1.28,3,3,0,0,1-1.43-4,3.07,3.07,0,0,1,4.09-1.28A2.94,2.94,0,0,1,337.57,147.72Z" transform="translate(-52.95 -44.68)" style="fill:#263238"></path><path d="M344.92,142.18c-.52.17-1.73-2.47-4.63-4.06s-5.82-1.32-5.93-1.84c-.07-.25.62-.69,1.92-.85a8.36,8.36,0,0,1,5,1,8.06,8.06,0,0,1,3.44,3.67C345.23,141.31,345.18,142.12,344.92,142.18Z" transform="translate(-52.95 -44.68)" style="fill:#263238"></path><path d="M311.14,134a3.07,3.07,0,0,1-4.09,1.28,2.93,2.93,0,0,1-1.43-4,3.06,3.06,0,0,1,4.09-1.28A2.94,2.94,0,0,1,311.14,134Z" transform="translate(-52.95 -44.68)" style="fill:#263238"></path><path d="M315.92,127.68c-.52.16-1.73-2.47-4.63-4.06s-5.82-1.32-5.94-1.85c-.06-.24.62-.69,1.92-.85a8.47,8.47,0,0,1,5,1,8.08,8.08,0,0,1,3.44,3.67C316.22,126.81,316.17,127.61,315.92,127.68Z" transform="translate(-52.95 -44.68)" style="fill:#263238"></path><path d="M314,155.66c.08-.17,2.05.51,5.17,1.75.78.33,1.56.57,2,.14a4.27,4.27,0,0,0,.71-2.47q.45-3.26.93-6.83c1.39-9.69,2.84-17.5,3.23-17.44s-.42,8-1.82,17.66q-.54,3.57-1,6.82a4.93,4.93,0,0,1-1.23,3.11,2.13,2.13,0,0,1-1.81.41,6,6,0,0,1-1.35-.52C315.76,156.82,313.93,155.83,314,155.66Z" transform="translate(-52.95 -44.68)" style="fill:#263238"></path><path d="M304.39,153c.48.24-1.25,3.38.21,7.1s5,5.22,4.77,5.67c-.06.22-1.08.2-2.52-.54a9,9,0,0,1-4.08-4.56,7.84,7.84,0,0,1,0-5.84C303.4,153.4,304.18,152.82,304.39,153Z" transform="translate(-52.95 -44.68)" style="fill:#263238"></path><path d="M322.26,115.84c-.72.63-3.41-1.34-7-2.81s-6.88-2.06-6.94-3c0-.45.87-.93,2.4-1.08a13.23,13.23,0,0,1,10.64,4.44C322.3,114.57,322.59,115.54,322.26,115.84Z" transform="translate(-52.95 -44.68)" style="fill:#263238"></path><path d="M349.05,131.9c-.87.37-2.49-1.41-4.87-2.77s-4.67-2-4.76-2.95c0-.45.66-.93,1.89-1.06a8.09,8.09,0,0,1,7.76,4.61C349.55,130.87,349.45,131.7,349.05,131.9Z" transform="translate(-52.95 -44.68)" style="fill:#263238"></path><path d="M279.25,121.35c-.25-.32-10.83-11-17.54,2.12s7.84,17.13,8.05,16.77S279.25,121.35,279.25,121.35Z" transform="translate(-52.95 -44.68)" style="fill:#ffbe9d"></path><path d="M268.3,133.23c0-.08-.31,0-.79,0a2.59,2.59,0,0,1-1.72-.84c-1.12-1.22-1.16-4,0-6.41a8.59,8.59,0,0,1,2.31-2.94,3,3,0,0,1,2.62-.87,1.3,1.3,0,0,1,1,1.31c0,.46-.23.68-.17.74s.4-.08.57-.67a1.64,1.64,0,0,0-.1-1.09,1.93,1.93,0,0,0-1.09-1,3.6,3.6,0,0,0-3.42.81,8.74,8.74,0,0,0-2.67,3.25c-1.26,2.68-1.18,5.85.44,7.36a2.75,2.75,0,0,0,2.26.73C268.12,133.53,268.33,133.27,268.3,133.23Z" transform="translate(-52.95 -44.68)" style="fill:#eb996e"></path><path d="M355.68,110.52c2.72-.11-.22-10.21-4.27-15.21C345.3,87.76,334.32,79.5,326,77.91c-10-1.9-19.52-1.19-27.93,4.6S283.32,96.78,279,106c-1.32,2.83-2.48,5.87-2.17,9,.38,3.84,3,7.44.82,11.37a6.18,6.18,0,0,0-.64,4.71c1.12,3.76,5.27,2.83,7.84,1.1,5.47-3.71,8.88-9.7,12.09-15.48,2.28-4.11,4.6-8.31,5.44-12.94.45-2.52.46-5.11,1.05-7.6s1.93-5,4.22-6.1a9.81,9.81,0,0,1,1.61-.55,15.36,15.36,0,0,1,14.92,4.23c6.1,6.34,16.8,16.59,21.36,15.73,6.57-1.24,8.89-3,8.89-3Z" transform="translate(-52.95 -44.68)" style="fill:#263238"></path><path d="M327.57,76.47c8.45,1.2,16.62,5.46,21.63,12.36,2.66,3.66,4.41,8.27,3.56,12.71s-4.92,8.41-9.44,8.06l-.34,0c-6.56-.92-9.83-3.5-14.46-8.24-3.9-4-6.63-9-10.55-13a29.89,29.89,0,0,0-15.43-8.29C310.45,76.92,319.13,75.27,327.57,76.47Z" transform="translate(-52.95 -44.68)" style="fill:#263238"></path><path d="M292.44,81.41c-.11,0-.61,1.58-.83,4.27a30.6,30.6,0,0,0,5.61,19.92,12.43,12.43,0,0,0,2.93,3.21c.28-.18-4.38-5.12-6.52-13S292.77,81.42,292.44,81.41Z" transform="translate(-52.95 -44.68)" style="fill:#e0e0e0"></path><path d="M286,80.94a4.91,4.91,0,0,0-.79,1.48,26.13,26.13,0,0,0-1.39,4.35,30.7,30.7,0,0,0,7.64,28.09,26.42,26.42,0,0,0,3.4,3,5.09,5.09,0,0,0,1.43.88c.11-.14-1.83-1.53-4.32-4.4a32.35,32.35,0,0,1-7.47-27.48C285.21,83.19,286.17,81,286,80.94Z" transform="translate(-52.95 -44.68)" style="fill:#e0e0e0"></path><path d="M343.33,82.62c-.1.13,1.14,1.14,2.86,3a31.94,31.94,0,0,1,8.17,17.79c.3,2.53.25,4.13.42,4.14a11.78,11.78,0,0,0,.27-4.2,28,28,0,0,0-2.49-9.89,27.68,27.68,0,0,0-5.87-8.32A11.38,11.38,0,0,0,343.33,82.62Z" transform="translate(-52.95 -44.68)" style="fill:#e0e0e0"></path><path d="M291.3,59.44c-.22-.11-1.5,4-.22,9s4.32,8,4.46,7.82-2.35-3.32-3.5-8.06S291.6,59.48,291.3,59.44Z" transform="translate(-52.95 -44.68)" style="fill:#e0e0e0"></path><path d="M302.55,123c0,.13-.82.28-1.76-.05s-1.5-1-1.41-1.06.73.27,1.58.56S302.54,122.89,302.55,123Z" transform="translate(-52.95 -44.68)" style="fill:#eb996e"></path><path d="M301.27,124.34c0,.14-.89.12-1.94-.06s-1.88-.44-1.85-.58.89-.11,1.94.07S301.3,124.2,301.27,124.34Z" transform="translate(-52.95 -44.68)" style="fill:#eb996e"></path><path d="M345.89,148.69c-.12.06-.55-.52-.94-1.31s-.62-1.47-.49-1.54.55.52,1,1.31S346,148.62,345.89,148.69Z" transform="translate(-52.95 -44.68)" style="fill:#eb996e"></path><path d="M346.84,147c-.1.11-.63-.19-1.2-.67s-.95-1-.86-1.07.63.19,1.2.67S346.93,146.86,346.84,147Z" transform="translate(-52.95 -44.68)" style="fill:#eb996e"></path><path d="M338.16,117.94a4.17,4.17,0,0,1-1.69.18,10.71,10.71,0,0,1-4-1,10.55,10.55,0,0,1-3.33-2.39,3.76,3.76,0,0,1-1-1.39,13.9,13.9,0,0,0,10,4.55Z" transform="translate(-52.95 -44.68)" style="fill:#eb996e"></path><path d="M339.43,115.72a9.66,9.66,0,0,1-5.67-.6,9.76,9.76,0,0,1-4.66-3.28,24.89,24.89,0,0,0,4.84,2.79A24.51,24.51,0,0,0,339.43,115.72Z" transform="translate(-52.95 -44.68)" style="fill:#eb996e"></path><path d="M278.12,120.31a13.56,13.56,0,0,0-2-1.59,11.64,11.64,0,0,0-7-1.66H269l0-.14a4.47,4.47,0,0,1,2.43-2.4,21.13,21.13,0,0,1,3.67-1.34,65.91,65.91,0,0,1,9-1.66q5-.61,10.7-.94l2.91-.14a16.25,16.25,0,0,1,3,.1,15.83,15.83,0,0,1,5.95,2.06l24.37,13.77L344.53,134l7,4,1.78,1a2.84,2.84,0,0,1,1.23,1.81,3.14,3.14,0,0,1-.4,2.14l-.89,1.86-7.68,16c-.32.65-.64,1.3-.95,1.95a2.78,2.78,0,0,1-1.83,1.38,3,3,0,0,1-2.21-.38l-1.9-.93c-2.52-1.26-5-2.52-7.36-3.83-1.19-.66-2.36-1.32-3.49-2.06a11.54,11.54,0,0,1-1.62-1.23,2.05,2.05,0,0,1-.47-1c-.09-.33-.14-.66-.2-1-.19-1.31-.28-2.6-.39-3.87a16,16,0,0,0-.57-3.64c-.1-.22-.28-.24-.6-.28a8.85,8.85,0,0,0-.9-.08c-.61,0-1.22,0-1.83,0-1.21,0-2.41.05-3.59.1-2.36.1-4.66.23-6.88.38h-.06l-.05,0c-5.87-3-11.16-5.7-15.7-8.38a28.09,28.09,0,0,1-3.19-2.13,5.71,5.71,0,0,1-1.69-3.13,22.37,22.37,0,0,1-.5-6.21l.06.11-8.58-4.63-2.2-1.21c-.49-.27-.73-.42-.73-.42s.27.11.77.37l2.23,1.15,8.63,4.53.06,0v.08a22.65,22.65,0,0,0,.54,6.13,5.44,5.44,0,0,0,1.62,3,27.87,27.87,0,0,0,3.16,2.08c4.53,2.64,9.84,5.36,15.71,8.3l-.11,0c2.23-.16,4.53-.31,6.89-.41,1.19-.06,2.39-.1,3.61-.11.61,0,1.23,0,1.85,0,.31,0,.62,0,.94.07s.8.13,1,.53a15.4,15.4,0,0,1,.63,3.81c.11,1.27.2,2.56.39,3.83.06.32.11.64.19.94a1.67,1.67,0,0,0,.36.77,11.53,11.53,0,0,0,1.54,1.17c1.11.71,2.28,1.37,3.46,2,2.37,1.3,4.83,2.55,7.34,3.8l1.9.93a2.54,2.54,0,0,0,1.88.35,2.33,2.33,0,0,0,1.49-1.13l.93-1.94c2.5-5.21,5.07-10.57,7.68-16l.89-1.85a2.6,2.6,0,0,0,.36-1.81,2.31,2.31,0,0,0-1-1.48l-1.76-1-7-4-13.45-7.63L306.48,113a15.46,15.46,0,0,0-5.78-2,33.82,33.82,0,0,0-5.87,0c-3.82.21-7.39.49-10.68.89a64,64,0,0,0-8.92,1.59,19.11,19.11,0,0,0-3.63,1.3,4.17,4.17,0,0,0-2.34,2.22l-.12-.13a11.68,11.68,0,0,1,7.08,1.77,7.15,7.15,0,0,1,.88.67,4.72,4.72,0,0,1,.59.54C278,120.14,278.12,120.31,278.12,120.31Z" transform="translate(-52.95 -44.68)" style="fill:#e0e0e0"></path><path d="M306,141.92a7.33,7.33,0,0,1-1.37-.52c-.87-.37-2.11-.93-3.63-1.68a20.31,20.31,0,0,1-5-3.22,10.79,10.79,0,0,1-2.2-2.8,7.43,7.43,0,0,1-.87-3.74,9.39,9.39,0,0,1,.85-3.72c.48-1.12,1-2.18,1.48-3.18,1-2,1.93-3.78,2.73-5.26s1.47-2.67,1.95-3.48a7,7,0,0,1,.79-1.23,8.7,8.7,0,0,1-.61,1.33c-.47.92-1.08,2.12-1.8,3.55s-1.67,3.29-2.63,5.3c-.47,1-1,2.06-1.44,3.17a8.9,8.9,0,0,0-.8,3.53,8.19,8.19,0,0,0,2.88,6.18,20.55,20.55,0,0,0,4.84,3.24c1.49.79,2.7,1.4,3.54,1.83A8.88,8.88,0,0,1,306,141.92Z" transform="translate(-52.95 -44.68)" style="fill:#e0e0e0"></path><path d="M328.4,154.47a3.44,3.44,0,0,1-.2-1c-.09-.64-.21-1.58-.34-2.73s-.28-2.57-.45-4.06a5.47,5.47,0,0,0-.49-2.23,2.48,2.48,0,0,0-2-1,78.36,78.36,0,0,0-9,.26c-2.32.19-3.75.37-3.76.29a4.26,4.26,0,0,1,1-.24c.64-.12,1.57-.27,2.73-.42a60.21,60.21,0,0,1,9.12-.41,4.66,4.66,0,0,1,1.36.33,2.46,2.46,0,0,1,1.06.93,5.81,5.81,0,0,1,.53,2.45c.12,1.5.24,2.87.33,4.07s.15,2.1.18,2.76A4.36,4.36,0,0,1,328.4,154.47Z" transform="translate(-52.95 -44.68)" style="fill:#e0e0e0"></path><path d="M304,113.39l39.15,21.4,4,2.17a8.17,8.17,0,0,1,3.56,2.76,3.85,3.85,0,0,1,.63,2.18,6.41,6.41,0,0,1-.53,2.13l-1.6,3.78-2.95,7c-.47,1.1-.92,2.15-1.35,3.17a7.21,7.21,0,0,1-1.77,2.7,2.64,2.64,0,0,1-1.42.64,2.81,2.81,0,0,1-1.45-.25c-.85-.37-1.59-.77-2.32-1.12l-3.68-1.83-2.32-1.18-.6-.32c-.13-.08-.2-.12-.19-.13l.21.08.62.27,2.37,1.09,3.72,1.76c.72.33,1.5.73,2.31,1.08a2.31,2.31,0,0,0,2.52-.37,7,7,0,0,0,1.63-2.58c.42-1,.86-2.08,1.32-3.17.91-2.2,1.89-4.54,2.91-7l1.58-3.78a5.75,5.75,0,0,0,.48-2,3.34,3.34,0,0,0-.55-1.9,7.84,7.84,0,0,0-3.37-2.58l-4-2.16C332,129.36,322.29,124,315.25,120c-3.52-2-6.36-3.6-8.31-4.75-1-.56-1.73-1-2.23-1.34l-.56-.38C304,113.44,304,113.4,304,113.39Z" transform="translate(-52.95 -44.68)" style="fill:#e0e0e0"></path><path d="M331.1,136.65a73.66,73.66,0,0,1-8.59,1.38,69.53,69.53,0,0,1-8.66.87,73.19,73.19,0,0,1,8.59-1.38A74.24,74.24,0,0,1,331.1,136.65Z" transform="translate(-52.95 -44.68)" style="fill:#fff"></path><path d="M335.42,138a49.35,49.35,0,0,1-7,1.34,50,50,0,0,1-7.05.84,46.88,46.88,0,0,1,7-1.35A47.34,47.34,0,0,1,335.42,138Z" transform="translate(-52.95 -44.68)" style="fill:#fff"></path><path d="M173.22,183.43c5.13-14.24,21.1-20.47,23.7-21.75.69-.34,11.85-.75,12.44-.69,7.08.75,34.38,3.25,34.38,3.25l13.43-2.51,9,44.49L263.5,214l31-9.59.19,4.15h0A31.07,31.07,0,0,1,309,232.4a74.31,74.31,0,0,1-.38,15.76c-2.24,15.66-32.82,82-32.82,82l3,6.35s-42.14,19.76-44,18.27-4.1-7.46-3-13.42S245,315.66,245,315.66l-97.46-14.17,4.1-58.18Z" transform="translate(-52.95 -44.68)" style="fill:#455a64"></path><path d="M264.86,205.33a2.27,2.27,0,0,1-.59.06l-1.68.08-6.2.18-4.28.11-2.38.05a5.83,5.83,0,0,1-1.3-.1,2,2,0,0,1-1.21-.73,2.65,2.65,0,0,1-.45-1.35c0-.46-.06-.9-.09-1.35-.05-.91-.11-1.83-.17-2.77-.11-1.88-.22-3.83-.34-5.82-.42-7.95-.81-15.14-1.1-20.43-.11-2.56-.2-4.66-.27-6.19,0-.69,0-1.24-.05-1.69a2.8,2.8,0,0,1,0-.59,2.33,2.33,0,0,1,.09.59c0,.44.08,1,.14,1.68.11,1.53.26,3.62.44,6.18.33,5.29.77,12.48,1.25,20.42.12,2,.23,3.94.33,5.82.06.94.11,1.86.16,2.77a5.18,5.18,0,0,0,.42,2.45,2.53,2.53,0,0,0,2.12.65l2.39,0,4.28,0,6.2,0,1.68,0A2.44,2.44,0,0,1,264.86,205.33Z" transform="translate(-52.95 -44.68)" style="fill:#263238"></path><path d="M294.2,209.68a13,13,0,0,1-1.34,1.34l-3.67,3.64a72.7,72.7,0,0,1-5.64,5.23,30.06,30.06,0,0,1-3.77,2.59,21.22,21.22,0,0,1-4.52,1.9l-1.28.33-.45.11.16-.46a23,23,0,0,0,1-5.69,30,30,0,0,0,0-5.2l.25.2c-3.53.33-6.47.25-8.51.33l-2.38.09a4.85,4.85,0,0,1-.84,0A3.11,3.11,0,0,1,264,214c.55-.08,1.35-.15,2.37-.22,2-.16,5-.14,8.48-.52l.22,0,0,.22a29.86,29.86,0,0,1,.06,5.29,23.4,23.4,0,0,1-1,5.83l-.29-.34,1.23-.32a21,21,0,0,0,4.42-1.85,29.16,29.16,0,0,0,3.72-2.52c2.25-1.78,4.1-3.61,5.68-5.11s2.87-2.72,3.79-3.53c.46-.4.83-.7,1.08-.9A2.65,2.65,0,0,1,294.2,209.68Z" transform="translate(-52.95 -44.68)" style="fill:#263238"></path><path d="M283.28,242.24a2.3,2.3,0,0,1-.53-.22l-1.49-.71-5.44-2.69c-4.59-2.27-10.95-5.36-18-8.67s-13.55-6.17-18.24-8.23L234,219.28l-1.51-.68a2.44,2.44,0,0,1-.51-.27,2,2,0,0,1,.55.17l1.55.59c1.33.52,3.25,1.3,5.62,2.29,4.73,2,11.22,4.8,18.31,8.1s13.43,6.46,18,8.81c2.27,1.18,4.11,2.15,5.37,2.84l1.44.8A2,2,0,0,1,283.28,242.24Z" transform="translate(-52.95 -44.68)" style="fill:#fff"></path><path d="M280.22,248.35c-.06.13-11.65-5.39-25.88-12.33s-25.73-12.67-25.67-12.8,11.66,5.39,25.89,12.33S280.29,248.22,280.22,248.35Z" transform="translate(-52.95 -44.68)" style="fill:#fff"></path><path d="M289,299.83a24.8,24.8,0,0,1-2.92-1.65l-6.93-4.2c-2.7-1.65-5.13-3.18-6.86-4.32a21.34,21.34,0,0,1-2.73-2,21.26,21.26,0,0,1,2.93,1.65l6.93,4.19c2.7,1.65,5.12,3.18,6.85,4.32A19.62,19.62,0,0,1,289,299.83Z" transform="translate(-52.95 -44.68)" style="fill:#fff"></path><path d="M291.1,295.72c-.08.12-4.3-2.55-9.43-6s-9.22-6.28-9.14-6.4,4.3,2.55,9.43,6S291.18,295.61,291.1,295.72Z" transform="translate(-52.95 -44.68)" style="fill:#fff"></path><polygon points="233.15 323.96 280.89 383.08 284.35 384.87 288.39 384.87 238.89 320.05 233.15 323.96" style="fill:#e0e0e0"></polygon><path d="M276.25,332.59l18.62,32.69-9.74,6.3L262.4,341.75a8.33,8.33,0,0,1,2.16-12.07h0A8.32,8.32,0,0,1,276.25,332.59Z" transform="translate(-52.95 -44.68)" style="fill:#263238"></path><path d="M219.52,162s12.62,13.29,8.87,31.07-21.52,44-21.52,44l11,5.05s19.51-35.81,21.36-49.15-7.54-30.1-7.54-30.1Z" transform="translate(-52.95 -44.68)" style="fill:#5D66A8"></path><path d="M201.1,232.65l86.1,32.4-52.52,63.33,17.7,135.54H85l2.13-117.19s8.45-47.32,18.59-63.66S201.1,232.65,201.1,232.65Z" transform="translate(-52.95 -44.68)" style="fill:#5D66A8"></path><path d="M218.47,402.08l-.28,0h-.8l-3.11,0-2.24,0c-.82,0-1.71-.11-2.66-.17-1.91-.14-4.1-.22-6.48-.57l-3.76-.47c-1.31-.17-2.65-.46-4-.69-2.81-.44-5.75-1.19-8.86-1.91a141.5,141.5,0,0,1-19.61-6.73,139.83,139.83,0,0,1-18.28-9.8c-2.64-1.78-5.19-3.43-7.42-5.18-1.12-.87-2.24-1.65-3.26-2.49l-2.9-2.44c-1.88-1.51-3.42-3.06-4.83-4.36-.69-.66-1.35-1.25-1.93-1.83s-1.08-1.14-1.55-1.63l-2.12-2.26-.54-.6-.18-.21s.08,0,.21.18.35.33.58.56l2.2,2.19,1.57,1.59c.59.57,1.26,1.15,2,1.8,1.43,1.28,3,2.8,4.87,4.29l2.91,2.4c1,.83,2.14,1.61,3.27,2.46,2.23,1.74,4.78,3.37,7.42,5.13a131.38,131.38,0,0,0,37.75,16.46c3.1.74,6,1.5,8.81,2,1.4.25,2.73.54,4,.72l3.74.5c2.38.38,4.55.48,6.46.65.95.08,1.83.17,2.65.21l2.24.08,3.1.11.8,0Z" transform="translate(-52.95 -44.68)" style="fill:#263238"></path><path d="M227.77,418a.81.81,0,0,1-.2.17l-.6.47-1,.74c-.41.27-.9.55-1.44.88a28.85,28.85,0,0,1-10.18,3.46,52,52,0,0,1-15.95-.28,89.69,89.69,0,0,1-9.23-2c-3.17-.81-6.41-1.8-9.7-2.9a143.81,143.81,0,0,1-31.93-15.43c-3.84-2.45-6.77-4.67-8.81-6.19l-2.29-1.83-.58-.48-.19-.18s.08,0,.22.13l.62.45,2.34,1.75c2.07,1.47,5,3.64,8.88,6A150,150,0,0,0,179.63,418c3.28,1.1,6.51,2.08,9.67,2.9a89,89,0,0,0,9.18,2,51.77,51.77,0,0,0,15.82.39A29.67,29.67,0,0,0,224.43,420l1.46-.83,1-.7.63-.42C227.68,418,227.76,417.94,227.77,418Z" transform="translate(-52.95 -44.68)" style="fill:#263238"></path><path d="M298.61,246.9a3.58,3.58,0,0,1-.3.6c-.24.44-.56,1-.95,1.7s-.93,1.62-1.57,2.64-1.33,2.19-2.16,3.45c-1.62,2.54-3.66,5.5-6,8.73s-5,6.72-7.85,10.33c-5.73,7.19-11.14,13.53-15,18.11-1.93,2.26-3.51,4.1-4.65,5.42l-1.27,1.46a3.2,3.2,0,0,1-.48.49,4,4,0,0,1,.39-.56l1.21-1.52,4.51-5.52c3.84-4.65,9.2-11,14.92-18.21,2.85-3.6,5.51-7.07,7.87-10.28s4.41-6.14,6.06-8.66c.86-1.24,1.58-2.39,2.23-3.4s1.2-1.87,1.64-2.59l1-1.64A3.57,3.57,0,0,1,298.61,246.9Z" transform="translate(-52.95 -44.68)" style="fill:#263238"></path><g style="opacity:0.30000000000000004"><path d="M228.87,336.3a1334.47,1334.47,0,0,1-128.54-37.18l-2.71,2.8a59.91,59.91,0,0,0,14.12,27.26c7.08,7.54,16.68,12.88,27,14,9.1,1,18.23-1.18,27.39-1.4,10.8-.26,21.45,2.23,32.17,3.58s22.05,1.5,31.81-3.13c1.24-.59,2.62-1.51,2.64-2.89C232.74,337.6,230.61,336.71,228.87,336.3Z" transform="translate(-52.95 -44.68)"></path></g><path d="M219.19,240a12.62,12.62,0,0,1-.79,1.13c-.52.72-1.17,1.82-2,3.19a16.28,16.28,0,0,1-3.44,4.44,8.54,8.54,0,0,1-3,1.63,5.3,5.3,0,0,1-3.63-.21,5.54,5.54,0,0,1-2.59-2.56,6.53,6.53,0,0,1-.72-3.3,10.57,10.57,0,0,1,1.81-5.32,23.62,23.62,0,0,1,2.33-3,8.26,8.26,0,0,1,1-1,6.63,6.63,0,0,1-.82,1.11,30,30,0,0,0-2.17,3,10.53,10.53,0,0,0-1.64,5.14,6.2,6.2,0,0,0,.69,3.06,5.13,5.13,0,0,0,2.35,2.32,4.82,4.82,0,0,0,3.28.19,8.27,8.27,0,0,0,2.79-1.51,16.8,16.8,0,0,0,3.43-4.26,33.67,33.67,0,0,1,2.11-3.12A4.79,4.79,0,0,1,219.19,240Z" transform="translate(-52.95 -44.68)" style="fill:#263238"></path><path d="M212.58,243.84s-.05-.27-.19-.72a3.11,3.11,0,0,0-1.13-1.56,2.89,2.89,0,0,0-2.69-.36,2.83,2.83,0,1,0,2.69,4.92,3,3,0,0,0,1.13-1.56c.14-.44.15-.72.19-.72a1.31,1.31,0,0,1,0,.77,3,3,0,0,1-1.09,1.81,3.24,3.24,0,0,1-3.08.52,3.28,3.28,0,0,1,0-6.19,3.24,3.24,0,0,1,3.08.52,3,3,0,0,1,1.09,1.8C212.67,243.57,212.61,243.85,212.58,243.84Z" transform="translate(-52.95 -44.68)" style="fill:#263238"></path><path d="M268.19,262.35s32.21-32.37,30.6-50.62l5.5,6.49s-1,21.22-26.5,47.47Z" transform="translate(-52.95 -44.68)" style="fill:#5D66A8"></path><path d="M280.69,262.6a4.8,4.8,0,0,1-.68.91c-.46.56-1.12,1.38-2,2.38a18.9,18.9,0,0,1-3.36,3.17,10.78,10.78,0,0,1-2.47,1.24,5.87,5.87,0,0,1-3,.31,3.46,3.46,0,0,1-2.45-1.78,4.5,4.5,0,0,1-.35-2.79,9.65,9.65,0,0,1,2-4.19,17,17,0,0,1,2.13-2.27,4,4,0,0,1,.91-.68,39.14,39.14,0,0,0-2.74,3.17,9.56,9.56,0,0,0-1.84,4,4.21,4.21,0,0,0,.33,2.49,3,3,0,0,0,2.1,1.5,5.62,5.62,0,0,0,2.73-.28,10.37,10.37,0,0,0,2.36-1.16,19.94,19.94,0,0,0,3.36-3A28.49,28.49,0,0,1,280.69,262.6Z" transform="translate(-52.95 -44.68)" style="fill:#263238"></path><path d="M273.87,265.69s-.06-.2-.17-.54a2.31,2.31,0,0,0-.86-1.15,2.13,2.13,0,0,0-2-.25,2.08,2.08,0,0,0,0,3.89,2.13,2.13,0,0,0,2-.26,2.31,2.31,0,0,0,.86-1.15c.11-.33.13-.54.17-.54s.08.21,0,.59a2.27,2.27,0,0,1-.82,1.4,2.5,2.5,0,0,1-2.38.41,2.54,2.54,0,0,1,0-4.8,2.48,2.48,0,0,1,2.38.42,2.25,2.25,0,0,1,.82,1.39C274,265.49,273.9,265.69,273.87,265.69Z" transform="translate(-52.95 -44.68)" style="fill:#263238"></path><path d="M246.92,288.33a2.23,2.23,0,0,1-.58.06l-1.66.08a24.63,24.63,0,0,1-2.62,0c-1,0-2.19,0-3.48-.17l-2-.17c-.7-.07-1.42-.2-2.18-.31-1.5-.18-3.09-.54-4.76-.88a71.3,71.3,0,0,1-10.56-3.39,70.22,70.22,0,0,1-9.81-5.17c-1.42-1-2.78-1.84-4-2.79-.6-.46-1.2-.89-1.74-1.34L202,273c-1-.81-1.81-1.66-2.55-2.36a25.12,25.12,0,0,1-1.82-1.89l-1.1-1.24c-.25-.28-.38-.44-.36-.45a2.78,2.78,0,0,1,.43.38l1.17,1.17c.5.52,1.12,1.14,1.88,1.82s1.58,1.5,2.59,2.29l1.55,1.29c.54.44,1.14.85,1.74,1.31,1.19.92,2.56,1.78,4,2.72a65.88,65.88,0,0,0,20.22,8.5c1.66.36,3.23.73,4.72.93.75.11,1.46.25,2.16.33l2,.21c1.27.16,2.43.18,3.45.24s1.89.08,2.61.07l1.66,0A2.39,2.39,0,0,1,246.92,288.33Z" transform="translate(-52.95 -44.68)" style="fill:#263238"></path><g style="opacity:0.30000000000000004"><path d="M127.79,364.73a97,97,0,0,0,36,20.44c12.19,3.78,25.29,5.2,36.41,11.46a5.81,5.81,0,0,1,2.44,2.1c.52.95,1.34,1.78.4,2.34-.63.38-2.44,0-3.16-.11-27.71-5.34-53.05-15.45-72.11-36.23" transform="translate(-52.95 -44.68)"></path></g><g style="opacity:0.30000000000000004"><path d="M270.69,259.22a11,11,0,0,0-6.15,8.68,5.71,5.71,0,0,0,.95,4.16,4.64,4.64,0,0,0,4.48,1.46,7.69,7.69,0,0,0,4.15-2.55,23.26,23.26,0,0,0,2.73-4.13,12.94,12.94,0,0,1-4.83,3.22c-1.87.54-4.22,0-5.12-1.72-.8-1.51-.27-3.39.64-4.82s2.18-2.63,3-4.09" transform="translate(-52.95 -44.68)"></path></g><g style="opacity:0.30000000000000004"><path d="M214,247.66a7.21,7.21,0,0,1-5.56,2.29,5.47,5.47,0,0,1-4.75-4.73l-.48.5c-.46,1.95-.56,4.14.56,5.81a5.62,5.62,0,0,0,6.19,1.93,9.22,9.22,0,0,0,5.13-4.43,27.43,27.43,0,0,0,2.38-6.51A21,21,0,0,1,214,247.66Z" transform="translate(-52.95 -44.68)"></path></g><path d="M293.12,361.78s12.83-2,14.71,0,1.37,5.3,1.37,5.3,6.5,2.53,7.18,4.77a9.29,9.29,0,0,1,0,4.63l.3,11.46s5,3.59,3.8,6.84-6.84,7.35-9.23,7-6.5-.17-7-5.3c0,0-5.13-.68-5.82-2.91l-.68-2.22s-5.47.17-6.67-2.22a8.64,8.64,0,0,1-1-4.28l-.08-.06a6.12,6.12,0,0,1-1.6-6.9l4.69-11.49Z" transform="translate(-52.95 -44.68)" style="fill:#ffbe9d"></path><path d="M307.25,370.28a24,24,0,0,1-1.36,3.33c-.46,1-1,2.22-1.66,3.53a17.24,17.24,0,0,1-2.7,4,10.23,10.23,0,0,1-4.06,2.64,18.27,18.27,0,0,1-3.83.9c-1.11.14-2,.19-2.63.22a3,3,0,0,1-1,0c0-.08,1.36-.19,3.53-.56a19.28,19.28,0,0,0,3.72-1,10.09,10.09,0,0,0,3.85-2.55,17.86,17.86,0,0,0,2.66-3.85c.69-1.28,1.25-2.48,1.75-3.47A26.09,26.09,0,0,1,307.25,370.28Z" transform="translate(-52.95 -44.68)" style="fill:#eb996e"></path><path d="M311.84,379.23a21.07,21.07,0,0,0-1.27,2.56,15,15,0,0,1-3.85,5.83,14.35,14.35,0,0,1-6.1,3.42,10.72,10.72,0,0,1-2.1.34c-.5,0-.78,0-.78,0s1.1-.15,2.78-.67a15.49,15.49,0,0,0,5.85-3.45,16.33,16.33,0,0,0,3.86-5.6A5.93,5.93,0,0,1,311.84,379.23Z" transform="translate(-52.95 -44.68)" style="fill:#eb996e"></path><path d="M314.9,389.77a3.59,3.59,0,0,1-.6,1.91,8.64,8.64,0,0,1-3.54,3.29,14,14,0,0,1-4.63,1.35,7.86,7.86,0,0,1-2,.16,7.35,7.35,0,0,1,1.92-.52,17.38,17.38,0,0,0,4.45-1.45,9.32,9.32,0,0,0,3.46-3C314.64,390.49,314.81,389.74,314.9,389.77Z" transform="translate(-52.95 -44.68)" style="fill:#eb996e"></path><path d="M293.12,361.78a1.92,1.92,0,0,1,0,.31c0,.23,0,.53,0,.9,0,.81,0,1.95,0,3.42v0c-.78,2-1.81,4.55-3.06,7.67l-1,2.46a12.76,12.76,0,0,0-.91,2.65,5.92,5.92,0,0,0,2,5.47l.08.07v.11a8.07,8.07,0,0,0,.4,2.62,9,9,0,0,0,.51,1.3,2.45,2.45,0,0,0,.83,1.05,6.49,6.49,0,0,0,2.69,1,16.17,16.17,0,0,0,3.05.24h.19l.05.17.65,2.11a2.61,2.61,0,0,0,1.35,1.49,12.88,12.88,0,0,0,4.3,1.35l.2,0,0,.2a5.61,5.61,0,0,0,1.23,3.18,5.19,5.19,0,0,0,3.13,1.56c.6.12,1.23.18,1.87.25a5.1,5.1,0,0,0,.91.08,3.55,3.55,0,0,0,.89-.16,11.51,11.51,0,0,0,3.36-1.76,16.85,16.85,0,0,0,2.84-2.55,10.66,10.66,0,0,0,1.1-1.52,3.33,3.33,0,0,0,.22-3.37,7,7,0,0,0-.94-1.54,14.07,14.07,0,0,0-2.56-2.5l-.11-.07V388c-.1-4-.19-7.84-.28-11.46v-.07a9.24,9.24,0,0,0,.23-3.5,3.3,3.3,0,0,0-.5-1.54,5.32,5.32,0,0,0-1.17-1.15,26.71,26.71,0,0,0-5.58-3l-.14-.06,0-.15a7.29,7.29,0,0,0-.69-4.28,4.92,4.92,0,0,0-.58-.83,1.89,1.89,0,0,0-.79-.49,8.32,8.32,0,0,0-1.88-.36,42.64,42.64,0,0,0-6.45.12c-1.77.15-3.14.31-4.07.42l-1.06.12a1.69,1.69,0,0,1-.37,0l.36-.09,1-.18c.93-.14,2.3-.33,4.07-.51a40.44,40.44,0,0,1,6.49-.22,8.82,8.82,0,0,1,2,.36,2.18,2.18,0,0,1,.93.57,4.8,4.8,0,0,1,.64.89,7.51,7.51,0,0,1,.76,4.51l-.12-.21a26.27,26.27,0,0,1,5.7,3,5.9,5.9,0,0,1,1.27,1.23,3.88,3.88,0,0,1,.59,1.74,9.84,9.84,0,0,1-.23,3.69v-.07c.1,3.62.21,7.45.33,11.45l-.11-.19a14.27,14.27,0,0,1,2.68,2.59,7.57,7.57,0,0,1,1,1.64,4,4,0,0,1,.4,1.95,4.09,4.09,0,0,1-.64,1.89,10.69,10.69,0,0,1-1.16,1.6,17.15,17.15,0,0,1-2.93,2.64,12.33,12.33,0,0,1-3.52,1.84,4.18,4.18,0,0,1-1,.17,7.22,7.22,0,0,1-1-.08c-.63-.07-1.27-.14-1.91-.26a5.75,5.75,0,0,1-3.41-1.73,6,6,0,0,1-1.35-3.47l.21.22a13.41,13.41,0,0,1-4.48-1.42,3.08,3.08,0,0,1-1.56-1.78c-.22-.71-.44-1.41-.65-2.11l.24.17a15.74,15.74,0,0,1-3.16-.27,7,7,0,0,1-2.88-1.12,2.92,2.92,0,0,1-.56-.55,3.87,3.87,0,0,1-.39-.67,9.81,9.81,0,0,1-.53-1.36,8.3,8.3,0,0,1-.39-2.79l.07.18a6.3,6.3,0,0,1-2.09-5.85,13.18,13.18,0,0,1,1-2.72c.35-.85.69-1.66,1-2.45l3.18-7.62v0c.05-1.49.08-2.65.1-3.47,0-.37,0-.65,0-.88S293.12,361.77,293.12,361.78Z" transform="translate(-52.95 -44.68)" style="fill:#eb996e"></path><path d="M216.5,202.46c8.47-18.51,3.63-39.81-16.71-40.73h0c-8.66-.43-24.38,1.76-41.32,18.15-30.79,29.8-63.16,103.13-64,110.93s21.64,38.52,32.46,39.39c0,0,31.61-6.93,37.23-39.39l-8.22-6.93,48.48-55Z" transform="translate(-52.95 -44.68)" style="fill:#455a64"></path><polygon points="109.51 247.04 175.44 265.74 174.49 292.88 83.52 281.98 109.51 247.04" style="fill:#ffbe9d"></polygon><path d="M262.37,298.62l-34,11.8-.95,27.15s26,3.34,33.15,2.67,20,.09,20,.09,4.23-2.76,2.67-5.43a10,10,0,0,0-4.89-3.79,26,26,0,0,0,1.78-4.67c.44-2-.45-3.56-4.68-4.23,0,0,2-2.45-.66-6,0,0,6.23-1.33,6.45-2.89s1.78-2.22-.45-3.78S265,297.73,262.37,298.62Z" transform="translate(-52.95 -44.68)" style="fill:#ffbe9d"></path><path d="M274.84,316.2a17.62,17.62,0,0,1-4.21-3.24,21.46,21.46,0,0,1-3.6-3.9,37.61,37.61,0,0,1,4,3.52C273.11,314.58,274.91,316.1,274.84,316.2Z" transform="translate(-52.95 -44.68)" style="fill:#eb996e"></path><path d="M275.52,306.69a2.79,2.79,0,0,1,1.58.87,5.11,5.11,0,0,1-.27,7.84,2.86,2.86,0,0,1-1.63.76c0-.09.62-.32,1.39-1a5,5,0,0,0,.25-7.3C276.11,307,275.48,306.77,275.52,306.69Z" transform="translate(-52.95 -44.68)" style="fill:#eb996e"></path><path d="M275.51,322.3a25.74,25.74,0,0,1-8.2-2.49,22.1,22.1,0,0,1,4.15,1.09A22.35,22.35,0,0,1,275.51,322.3Z" transform="translate(-52.95 -44.68)" style="fill:#eb996e"></path><path d="M278.55,331.21a46.45,46.45,0,0,1-9.7-1,22.2,22.2,0,0,1,4.87.26A23.31,23.31,0,0,1,278.55,331.21Z" transform="translate(-52.95 -44.68)" style="fill:#eb996e"></path><path d="M217.38,172a2,2,0,0,1,.29.2l.82.66a9.64,9.64,0,0,1,1.18,1.24,6.22,6.22,0,0,1,.63.88c.2.34.46.67.65,1.07,1.69,3.11,2.64,8.27,2.31,14.53A68.14,68.14,0,0,1,222,200.7a35.42,35.42,0,0,1-4.54,10.84,106.4,106.4,0,0,1-7.59,10.54c-2.76,3.55-5.7,7.17-8.72,10.86C189,247.67,177.37,260.49,169,269.73l-10,10.89-2.75,2.94-.73.75a1.82,1.82,0,0,1-.26.25,1.55,1.55,0,0,1,.22-.28l.69-.79c.63-.72,1.53-1.72,2.68-3l9.91-11c8.35-9.3,19.89-22.15,32-36.87,3-3.69,5.95-7.3,8.72-10.84A108.8,108.8,0,0,0,217,211.29a35,35,0,0,0,4.52-10.68,67.47,67.47,0,0,0,1.36-10.09c.38-6.22-.51-11.32-2.12-14.42A12.93,12.93,0,0,0,217.38,172Z" transform="translate(-52.95 -44.68)" style="fill:#263238"></path><path d="M124,288.05a5.89,5.89,0,0,1,.92-1,21.42,21.42,0,0,1,2.91-2.43,24.56,24.56,0,0,1,24-2.48,21,21,0,0,1,3.35,1.79,5.63,5.63,0,0,1,1.12.83,48.72,48.72,0,0,0-4.61-2.28A25.3,25.3,0,0,0,128,284.88,49.86,49.86,0,0,0,124,288.05Z" transform="translate(-52.95 -44.68)" style="fill:#263238"></path><path d="M122.67,271.2s.12-.08.36-.18.6-.26,1.08-.41a24.75,24.75,0,0,1,4.11-1,27.48,27.48,0,0,1,25.24,9.17,24.36,24.36,0,0,1,2.51,3.41c.27.42.43.77.56,1s.18.36.16.37a11.78,11.78,0,0,1-.89-1.26,30.61,30.61,0,0,0-2.61-3.28,28.2,28.2,0,0,0-24.92-9,30.18,30.18,0,0,0-4.1.84A11.51,11.51,0,0,1,122.67,271.2Z" transform="translate(-52.95 -44.68)" style="fill:#263238"></path><path d="M192.08,242.27a3.42,3.42,0,0,1-.49-.45c-.35-.35-.8-.8-1.35-1.37s-1.29-1.33-2.15-2.14-1.8-1.78-2.92-2.76-2.31-2.1-3.66-3.21-2.81-2.28-4.35-3.5c-3.14-2.36-6.7-4.83-10.58-7.18a124.37,124.37,0,0,0-11.32-6c-1.8-.79-3.5-1.57-5.13-2.19s-3.15-1.23-4.55-1.73-2.69-.91-3.81-1.28-2.1-.66-2.9-.89l-1.84-.55a3,3,0,0,1-.63-.22,2.76,2.76,0,0,1,.66.12l1.87.46c.81.19,1.79.45,2.93.8s2.43.71,3.84,1.21,3,1,4.59,1.68,3.36,1.37,5.17,2.16a119.91,119.91,0,0,1,11.39,6,121.07,121.07,0,0,1,10.6,7.25c1.54,1.24,3,2.39,4.34,3.55s2.54,2.25,3.63,3.27,2,2,2.88,2.82,1.53,1.59,2.08,2.21,1,1.07,1.28,1.44A2.81,2.81,0,0,1,192.08,242.27Z" transform="translate(-52.95 -44.68)" style="fill:#fff"></path><path d="M195,236.93a3.71,3.71,0,0,1-.48-.46l-1.31-1.4c-.56-.61-1.25-1.35-2.09-2.18s-1.76-1.8-2.86-2.8-2.26-2.13-3.6-3.25-2.76-2.31-4.29-3.54a117.34,117.34,0,0,0-10.5-7.21,116.5,116.5,0,0,0-11.29-5.89c-1.8-.78-3.5-1.54-5.14-2.14s-3.15-1.17-4.55-1.65-2.69-.86-3.82-1.21-2.1-.62-2.91-.82l-1.84-.51a2.71,2.71,0,0,1-.63-.21,2.87,2.87,0,0,1,.65.11l1.87.41c.82.18,1.81.41,2.94.74s2.44.66,3.85,1.14,3,1,4.6,1.6,3.36,1.33,5.17,2.1a100.93,100.93,0,0,1,21.9,13.17c1.52,1.24,3,2.4,4.28,3.59s2.5,2.27,3.57,3.31,2,2,2.81,2.86,1.49,1.61,2,2.25l1.24,1.46A2.4,2.4,0,0,1,195,236.93Z" transform="translate(-52.95 -44.68)" style="fill:#fff"></path><path d="M155.57,282.49c0,.05-.8-.46-2.27-1.24a31.94,31.94,0,0,0-6.52-2.57,38.18,38.18,0,0,0-10.29-1.32,49.18,49.18,0,0,0-12.59,1.75c-8.75,2.43-16,6.49-21.17,9.42l-6.08,3.56-1.66,1a2.69,2.69,0,0,1-.6.31,3.74,3.74,0,0,1,.54-.39l1.61-1.05c1.41-.9,3.45-2.19,6-3.71,5.12-3,12.38-7.15,21.21-9.61a48.45,48.45,0,0,1,12.73-1.72,37.72,37.72,0,0,1,10.39,1.45,29.61,29.61,0,0,1,6.52,2.74,17.1,17.1,0,0,1,1.63,1A3.74,3.74,0,0,1,155.57,282.49Z" transform="translate(-52.95 -44.68)" style="fill:#fff"></path><path d="M134.9,279.7a11.6,11.6,0,0,1-1.61.44c-1,.24-2.53.63-4.36,1.15a91.19,91.19,0,0,0-26.84,12.58c-1.57,1.08-2.83,2-3.68,2.62a11.75,11.75,0,0,1-1.36.95,9.43,9.43,0,0,1,1.24-1.11c.81-.69,2-1.64,3.59-2.76a81.18,81.18,0,0,1,27-12.63c1.85-.48,3.37-.81,4.42-1A9.2,9.2,0,0,1,134.9,279.7Z" transform="translate(-52.95 -44.68)" style="fill:#fff"></path><path d="M268.89,367.59s5.48-6.5,11-4.44,11.79,8.89,12,11.62-.86,6.5-4.62,6.16-9.41-4.28-9.41-4.28S267.34,373.58,268.89,367.59Z" transform="translate(-52.95 -44.68)" style="fill:#ffbe9d"></path><path d="M268.89,367.59a6.44,6.44,0,0,1-.08,1,8.35,8.35,0,0,0,.13,1.16,5.6,5.6,0,0,0,.64,1.45c1.25,2.05,4.33,4,8.27,5.26h0l0,0a32.54,32.54,0,0,0,7.21,3.73c1.35.42,2.91.79,4.22.09a4.86,4.86,0,0,0,2.14-3.79,8.3,8.3,0,0,0,.07-1.57,3.88,3.88,0,0,0-.4-1.43,13.62,13.62,0,0,0-1.68-2.56,28.83,28.83,0,0,0-4.11-4.15,23.4,23.4,0,0,0-4.39-2.92c-.37-.2-.75-.33-1.11-.5s-.74-.22-1.1-.33-.74-.1-1.1-.1a6.16,6.16,0,0,0-1.06.07,10.09,10.09,0,0,0-3.53,1.28,17.53,17.53,0,0,0-2.36,1.64c-.61.5-1.06.93-1.36,1.22a3.22,3.22,0,0,1-.47.43,2.48,2.48,0,0,1,.39-.51,16.23,16.23,0,0,1,1.31-1.29,15.11,15.11,0,0,1,2.34-1.74,10.26,10.26,0,0,1,3.62-1.4,8.19,8.19,0,0,1,1.12-.09c.38,0,.77.07,1.17.1s.79.2,1.18.33.77.31,1.15.5a23.89,23.89,0,0,1,4.5,2.94,28.31,28.31,0,0,1,4.21,4.2,13.56,13.56,0,0,1,1.74,2.66,5.63,5.63,0,0,1,.31.77,4.21,4.21,0,0,1,.15.85,9.23,9.23,0,0,1-.07,1.66,7.34,7.34,0,0,1-.71,2.39,4.16,4.16,0,0,1-1.71,1.79,4.33,4.33,0,0,1-2.38.43,10.89,10.89,0,0,1-2.24-.5,31.76,31.76,0,0,1-7.3-3.85l.06,0c-4-1.33-7.11-3.35-8.37-5.54a5.93,5.93,0,0,1-.61-1.54,7.87,7.87,0,0,1-.07-1.21A5.86,5.86,0,0,1,268.89,367.59Z" transform="translate(-52.95 -44.68)" style="fill:#eb996e"></path></g><g id="freepik--Table--inject-79"><path d="M682.38,463.87c0,.14-140.91.26-314.7.26S53,464,53,463.87s140.88-.26,314.73-.26S682.38,463.72,682.38,463.87Z" transform="translate(-52.95 -44.68)" style="fill:#263238"></path></g></svg>